<?xml version="1.0" encoding="utf-8"?>
<!-- Generator: Adobe Illustrator 25.0.1, SVG Export Plug-In . SVG Version: 6.00 Build 0)  -->
<svg version="1.1" id="Layer_1" xmlns="http://www.w3.org/2000/svg" xmlns:xlink="http://www.w3.org/1999/xlink" x="0px" y="0px"
	 viewBox="0 0 1000 1000" style="enable-background:new 0 0 1000 1000;" xml:space="preserve">
<g>
	<path d="M524.5,528c0.1-2.1-0.9-3.9-1.3-5.9c-1.1-5.1-2.3-10.2-3.7-15.2c-0.8-2.8-1.7-5.5-2-8.4c-0.5-4.7,0-9.2,1.1-13.7
		c1.2-4.8,3.3-9.3,4.8-13.9c1.6-4.7,2.8-9.6,4.2-14.4c2.6-9.4,5.2-18.9,7.8-28.3c0.1-0.3,0.1-0.6,0.1-1.2c-0.8,0.3-1.5,0.5-2.2,0.8
		c-12.4,5.3-25.1,9.7-38.1,13.2c-3.1,0.8-6.2,1.8-9.3,2.7c-0.4,0.1-1,0.2-1.3,0.5c-2.3,2.2-5.3,2.8-8.1,4c-3.4,1.5-6.7,3.1-9.9,4.8
		c-1.5,0.8-3.1,1.5-4.7,2.1c-4,1.7-8.1,3.3-12.2,4.8c-3.6,1.4-7.5,1.6-11.3,2.2c-6.1,0.9-12.3,1-18.5,1.4c-0.5,0-1,0-1.4,0.1
		c-3.2,1.1-6.5,0.6-9.8,0.5c-3.3-0.2-6.6-0.1-9.9-0.2c-4.9-0.2-9.8-0.6-14.7-1.1c-4.4-0.4-8.9-0.7-13.3-1.6c-4-0.8-8.1-0.9-12-2.1
		c-2.3-0.7-4.8-0.9-7.1-1.3c-4.8-0.9-9.5-1.8-14.3-2.8c-6-1.3-11.9-2.8-17.9-3.9c-3.1-0.6-6.3-1.1-9.4-1.7c-3.3-0.6-6.6-1.3-9.7-2.6
		c-3.4-1.5-6.9-2.4-10.4-3.7c-2.1-0.8-4.3-1.5-6.3-2.5c-3-1.6-6.3-2.2-9.5-3.4c-4.2-1.5-8.5-2.8-12.7-4.1c-2.1-0.7-4.3-0.8-6.4-1.4
		c-1.9-0.6-4-0.8-5.6-2.3c-0.3-0.3-0.7-0.3-1.1-0.4c-6.2-0.7-12.3,0.1-18.2,2.1c-2,0.7-4,1.2-6,1.9c-4.5,1.6-8.8,3.6-12.6,6.5
		c-1.5,1.1-2.9,2.4-4.2,3.8c-2.7,2.6-5.8,4.2-9.6,4.5c-2.9,0.2-5.2-0.8-6.7-3.4c-0.5-0.9-0.7-1.7-0.5-2.7c0.6-4.7,2.9-8.5,6.1-11.8
		c0.7-0.7,1.4-1.3,1.7-2.2c-0.7-0.5-1.2,0-1.8,0.2c-7.7,2.2-15.3,4.5-22.9,6.7c-2.9,0.9-5.8,1.3-8.8,0.8c-1.9-0.3-3.6-1.1-4.7-2.8
		c-1.8-2.5-1.9-4.5,0-7.6c1.7-2.9,4.5-4.7,7.3-6.5c3.4-2.1,7.2-3,10.9-4.1c4.2-1.2,8.4-2.4,12.5-3.6c0-0.8-0.6-0.7-1-0.8
		c-1.6-0.3-3.2-0.6-4.9-0.8c-3.6-0.5-7.2-1.2-10.8-2.1c-4.4-1.1-8.8-2-13.1-3.2c-4.6-1.3-8.8-3.4-12.1-6.9c-1.4-1.5-2.7-3.2-3.7-5.1
		c-2-3.9,0.5-10.2,5.2-11c4.9-0.7,9.8-1.4,14.7-0.2c0.9,0.2,1.9,0.3,2.8,0.4c4.9,0.2,9.6,1.3,14.4,2.2c4,0.7,8,1.4,11.9,2.6
		c2.2,0.7,4.3,1.3,6.4,2.3c1.1,0.5,2.2,0.8,3.4,0.8c0-0.2,0.1-0.5,0-0.5c-4.7-4.3-8.6-9.5-13.7-13.5c-2.7-2.1-5.4-4.3-7.9-6.7
		c-3-2.8-6-5.5-8.5-8.7c-2.1-2.6-3.1-5.7-3.2-8.9c-0.1-2.3,0.8-4.6,3.3-5.8c2.1-1,4.3-1.4,6.6-1.1c6,0.7,11.5,2.8,16.8,5.6
		c2.5,1.3,4.7,3,6.9,4.9c4.7,4.1,8.4,9.1,12,14c0.8,1,1.7,2,2.8,3.5c-0.5-3.2-1.1-5.9-1.4-8.6c-0.4-3.2-1.1-6.3-0.4-9.5
		c0.5-2.2,1.3-4.4,3.9-5.1c2.5-0.7,4.8-0.6,7.1,1c4.1,2.9,6,7.3,7.7,11.7c1.7,4.4,2.3,9.1,3.8,13.5c1.6,4.7,3.3,9.4,6.4,13.5
		c0.6,0.8,1.2,1.4,1.8,2.1c4.1,4.1,9.1,6.9,14.6,8.6c4.7,1.4,9.6,2.1,14.5,2.5c8.4,0.5,16.9,0.7,25.3,1.5c6.5,0.6,13,1.4,19.2,3.1
		c4.7,1.3,9.3,0.8,14,1.2c1.1,0.1,2.2,0.1,3.2,0.4c0.4,0.1,0.9,0.1,1,0.5c0.7,1.8,2.4,1.6,3.8,1.7c4.2,0.3,8.3,1.1,12.1,2.6
		c4.9,1.9,10,3.5,14.7,6.1c5.7,3.2,11.9,4.8,18.5,5.3c4.8,0.4,9.5,0.5,14.3,0.7c0.6,0,1.3,0,1.9,0.2c5.4,1.8,11,2.6,16.5,3.8
		c2.4,0.5,4.5,0,5.9-1.7c3-3.6,7.1-5.3,11.2-7.2c4.3-2,8.4-4.3,12.4-6.7c6-3.7,12.3-6.4,18.9-8.9c11.2-4.2,22.7-7.1,34.4-9.5
		c12.1-2.5,24.4-4.3,36.6-6c2-0.3,2-0.6,2.4-2.3c1.3-5.6,1.8-11.3,2-17c0.1-3.4,0.5-6.7,0.4-10.1c-0.2-5.9-0.5-11.9-1.2-17.8
		c-0.2-2.1-0.4-4.2-0.5-6.3c-0.2-4.5-1-8.8-2.1-13.2c-2.4-9.7-5.1-19.4-8.8-28.7c-3.1-7.7-6.7-15.2-11.4-22.1
		c-4.8-7.1-10.6-13.3-17.5-18.6c-5.1-3.9-10.1-7.9-15.6-11.3c-2.3-1.4-4.7-2.5-7.2-3.5c-2.3-0.9-4.8-1.5-6-4.1
		c-0.3-0.6-1-0.6-1.7-0.6c-3.1-0.2-6.2-0.9-9.3-1.5c-1.7-0.3-2-0.7-2.1-2.3c0-1.5,0.4-2.1,2.1-2.4c4.2-0.8,8.3-1.5,12.4-2.6
		c2.2-0.6,4.5,0.1,6.8,0.2c6.2,0.4,12.1,2.3,18.1,4c9.5,2.7,18.5,6.7,26.9,12.1c3.4,2.2,7,4.2,10.6,6.1c3.4,1.7,6.4,3.9,9.3,6.4
		c5.1,4.3,10.3,8.5,15.3,12.9c5,4.4,9,9.6,12.8,15c5.6,7.9,10.9,15.9,16,24.1c6.2,9.9,11.1,20.5,14.8,31.6c2.6,7.7,5.4,15.3,8.2,23
		c0.1,0.3,0.3,0.5,0.5,1c3.3-2.1,6.7-4.1,10-6.2c5.3-3.3,10.5-6.6,15.7-9.9c1.3-0.8,2.6-1.5,3.9-2.2c8.3-4.2,16.6-8.1,24.7-12.6
		c5.3-2.9,10.6-6,15.6-9.5c4.8-3.3,9.9-6.4,15.4-8.5c6.5-2.5,13.1-4.4,20.2-3.4c5.6,0.7,11,2.2,16.3,4.4c5.9,2.4,11.6,5.1,17.6,7.2
		c3.2,1.1,6.4,2,9.7,2.7c6.5,1.5,12.6,4.3,18.8,6.5c7.7,2.8,14.8,6.8,21.5,11.4c4.5,3.1,9.3,5.9,14.5,7.6c6.9,2.2,13.9,3.1,21,0.6
		c4.4-1.6,8.7-3.5,12.6-6.3c4.3-3.1,8.6-6.3,12.9-9.4c2.7-2,5.7-3.3,8.6-4.8c2.1-1.1,4.4-0.9,6.6-0.1c2.3,0.8,3.1,2.6,2.6,5
		c-0.4,1.9-1.5,3.2-2.8,4.6c-2.2,2.4-4.6,4.4-7.3,6.3c-2.3,1.6-4.5,3.2-6.7,4.8c-0.5,0.3-0.9,0.8-1.7,1.4c3.7-0.1,7,0,10.2-0.3
		c3-0.3,5.9,0,8.9,0.1c6,0.2,11.9,0.8,17.7,2.3c2.9,0.8,5.4,2,7.9,3.5c1.9,1.2,2.9,3.1,3.2,5.2c0.1,1.4-0.6,2.7-1.8,3.6
		c-2.2,1.6-4.4,3.2-7.1,4c-5.5,1.6-11,2.9-16.7,3.3c-2.4,0.2-4.8-0.2-7.3-0.5c-2.4-0.3-4.8-0.3-7.3-0.5c-0.2,0-0.4,0.2-0.9,0.4
		c2.3,0.8,4.3,1.7,6.4,2.4c6.4,2.1,12.4,4.8,18.2,8.1c2.6,1.5,5,3.5,7.5,5.2c0.4,0.3,0.8,0.7,1.2,1.2c2.1,2.3,1.4,5.3-1.4,6.6
		c-2.3,1-4.7,1.1-7.1,1.2c-4.1,0.2-8.1-0.3-12.1-1.3c-3.9-0.9-7.8-1.5-11.7-2.2c-1-0.2-2-0.4-3-0.7c-0.9-0.2-1.8-0.5-2.7-0.3
		c0,0.2-0.1,0.4,0,0.5c1.3,2,2.4,4.2,3.6,6.3c1.8,3.1,3.1,6.3,4.5,9.5c1.3,2.9,2.3,5.9,3.3,9c0.3,0.8,0.3,1.7,0.3,2.6
		c0,0.7-0.2,1.6-0.8,1.9c-2.1,1-3.7,3.1-6.3,3.3c-2.6,0.1-4.5-1-6.3-2.6c-3.8-3.4-6.8-7.5-9.5-11.8c-1.9-3-3.5-6.1-5.1-9.2
		c-1.2-2.4-3-4.3-5.5-5.6c-0.7,0.3-0.4,0.9-0.4,1.4c0,2.8,0,5.6,0.1,8.5c0.1,3.6-0.2,7.2-2.6,10.2c-2.6,3.3-6.4,3.4-9.1,0.1
		c-1.6-2-2.4-4.3-2.8-6.8c-1.2-6.5-2.2-13.1-2.5-19.7c-0.1-1.3-0.4-2.6-0.7-3.9c-0.7-2.8-2.4-4.8-4.8-6.3c-4-2.5-8.4-3.2-12.9-4
		c-7-1.3-14-2.5-21-3.5c-3.6-0.5-7.2-1.1-10.9-1.7c-2.3-0.4-4.5-1.1-6.8-1.7c-5.6-1.6-10.9-3.8-16.2-6c-4.6-1.8-9.4-3.3-14-5.2
		c-5.8-2.4-11.9-4.4-17.2-8c-1-0.7-1.3-0.6-2.1,0.1c-2.2,2-4.5,3.9-6.6,6c-3.5,3.5-7.7,6.2-11.6,9.2c-10.3,7.8-21.3,14.6-32.2,21.6
		c-4.4,2.8-8.7,5.5-13.2,8.1c-3.4,2-6.2,4.7-9.5,7c-5.2,3.6-10.9,5.9-17.2,7.1c-7.3,1.4-14.6,2.9-21.6,5.5c-3.6,1.4-7,3.1-10.2,5.3
		c-4.6,3-9.2,5.8-13.7,9c-6.1,4.3-11.2,9.7-15.9,15.5c-5.7,7-9.3,15-10.9,23.9c-0.6,3.2-0.6,6.5-0.2,9.8c0.2,1.8,1,3.3,2,4.7
		c1.7,2.5,3.7,4.9,6.1,6.7c1.9,1.4,4.1,2.1,6.5,2.3c5,0.4,9.7-0.5,14-2.9c2.5-1.3,4.1-3.5,4.5-6.1c-2.8,2.1-5.6,3.7-8.9,4.6
		c-3.3,0.9-6.7,1.1-10,0.2c-3.7-1-5.8-3.8-6.9-7.4c-0.9-3.1-0.8-6.4-0.5-9.6c0.5-5.8,1.9-11.4,4.2-16.7c2-4.6,4.8-8.8,8.5-12.2
		c4.3-4,8.9-7.6,13.8-10.9c5.6-3.7,11.8-6,18-8.5c2.8-1.1,5.6-1.9,8.6-2.5c0.2,0,0.4-0.2,0.7-0.2c4.2-0.8,4.7-0.1,4.6,4
		c-0.2,6.8-1.7,13.3-2.5,20c-0.7,5.3-1.5,10.7-2.1,16c-0.8,7.3-2.3,14.4-3.7,21.5c-1.9,10.5-3.9,21-5.1,31.7c-1,9.5-2.2,19-3.7,28.4
		c-1,6.1-2.5,12.1-4,18.1c-2.2,9-3.9,18-4.9,27.2c-0.6,4.9-2.2,9.4-3.5,14.1c-3,10.5-6.1,21.1-9.2,31.6c-1,3.3-2.6,6.4-4,9.5
		c-4.1,8.6-7.1,17.7-10.7,26.6c-1.2,3-2.7,5.8-4,8.6c0.5,0.7,1,0.3,1.4,0.2c3.8-1.1,7.7-2.1,11.5-3.4c2.3-0.8,4.6-1.7,7.2-1.8
		c2.5-0.1,4.8-1.4,7.1-2.4c2.3-1.1,4.7-1.7,6.9-2.9c0.4-0.2,0.9-0.4,1.4-0.1c1.3,0.6,2.5,0.1,3.6-0.3c5.2-1.7,10.4-3.4,15.5-5.3
		c2.9-1,5.6-2.4,8.6-3.2c0.5-0.1,1.1-0.5,1.6-0.4c3.7,0.5,7.1-1.2,10.6-1.8c6.9-1.2,13.9-2.3,20.9-3.2c7.2-0.9,14.2-2.2,21.4-3.1
		c9.5-1.2,19.1-1.2,28.5,1.2c3,0.8,5.8,1.9,8.4,3.5c5.9,3.4,6.7,10.7,4.6,15.4c-2.1,4.7-5.4,8.4-8.8,12.1c-3.2,3.5-6.7,6.8-9.9,10.4
		c-3.6,4-6.6,8.5-9.8,12.9c-4.8,6.5-9.5,13.1-14.2,19.6c-3.1,4.3-6.7,8.1-10.2,12c-3.8,4.2-7.4,8.5-11.2,12.7
		c-3.4,3.8-7.3,7.1-11.2,10.4c-6,5-11,10.9-15.6,17.2c-6.2,8.5-12.4,16.9-18.8,25.3c-2,2.7-4.5,5-6.8,7.5c-2.1,2.3-4.2,4.4-6.1,6.8
		c-1.7,2.1-3.9,3.9-5.7,5.9c-5.6,6.2-11.3,12.4-17.1,18.5c-3.6,3.8-7.1,7.8-10.9,11.4c-5.2,5-9.8,10.6-14.6,15.9
		c-3,3.4-6.2,6.6-8.8,10.4c-2.2,3.1-4.5,6-6.3,9.3c-1.5,2.6-3.6,4.8-5.2,7.3c-2,3-3.9,6.2-5.6,9.4c1.1-0.3,1.8-1.2,2.7-1.9
		c3.3-2.4,6.4-4.9,10-6.9c1.8-1,3.4-2.2,5.2-3.2c6.1-3.6,12.5-6.6,19-9.2c6.6-2.6,13.4-4.1,20.5-4.1c1.7,0,3.3,0.2,4.8,0.9
		c2.9,1.5,3.9,4.2,4.1,7.2c0.3,4.2-0.6,8.2-2.3,12.1c-2.4,5.6-5.6,10.6-9.4,15.4c-3,3.8-5.9,7.7-8.8,11.6c-1,1.4-2.3,2.6-3.7,3.5
		c-0.7,0.4-1.4,0.6-2.2,0.6c-1.3-0.1-2.1-1-1.8-2.3c0.6-3.5,1.1-7,1.2-10.5c0.1-3.5-0.5-6.9-2.5-9.8c-1.4-1.9-2.9-3.4-5.7-2.5
		c-1.6,0.5-3.3,0.4-4.9,0.9c0.1,0.6,0.5,0.6,0.7,0.6c3.4,0.3,5.6,2.3,7.1,5.1c2,3.9,2.3,8.1,1.6,12.4c-1.5,8.3-5.8,14.8-12.7,19.5
		c-10,6.8-20.9,11.4-32.8,13.3c-5.7,0.9-11.3,0.8-16.9-1.2c-5.5-2-11.7-8.5-10.2-16.8c0.6-3.2,1.7-6.2,2.6-9.3
		c0.2-0.8,0.4-1.7,0.6-2.5c0.6-2.7,0.3-5.2-0.5-7.8c-1-3-1.8-6-2.1-9.1c-0.2-2.3,0.2-4.5,0.4-6.8c0.1-0.8,0.2-1.6,0.2-2.3
		c-0.3-3.9,0.7-7.6,1.6-11.3c0.2-0.9,0.4-1.8,0.5-2.8c0.5-4.5,1.9-8.9,3.2-13.2c0.9-2.9,2.2-5.7,3.9-8.2c0.5-0.7,1-1.2,1.7-1.6
		c10.2-5.7,20.1-11.8,30.2-17.8c5.7-3.4,12.1-5.6,18.1-8.3c6.7-3,13.3-6.1,19.5-9.8c4.6-2.8,8.8-5.9,12.6-9.7
		c1.9-1.9,3.5-4.1,4.8-6.4c3.3-5.8,2.9-11.7,0.4-17.6c-2.3-5.7-5.8-10.7-9.6-15.6c-1.5-1.9-3.1-3.6-5-5c-1.3-1-2.4-2.2-3.6-3.4
		c-1.4-1.5-1.4-2.3-0.3-3.9c5-7.2,9.8-14.5,14.9-21.7c3.3-4.7,7-9,10.9-13.2c3.4-3.7,7-7.4,10.6-11c7.8-7.5,16-14.5,24.7-21
		c0.9-0.7,1.9-1.4,2.7-2.2c-2,0.4-3.8,1.3-5.4,2.4c-3.4,2.5-7,4.7-10.7,6.7c-0.4,0.2-0.8,0.5-1.1,0.8c-4.6,5-10.1,9.2-15,13.9
		c-4.6,4.3-8.8,8.9-12.7,13.8c-5.4,6.7-11,13.3-16.1,20.2c-2.4,3.2-4.8,6.4-7.7,9.1c-0.9,0.8-1.6,1-2.6,0.5c-3.7-1.5-7-3.5-10.1-5.9
		c-8.8-6.6-18.2-12.3-27.1-18.7c-3.4-2.5-6.6-5.2-9.7-8.2c-0.9-0.8-1.2-1.7-1.1-2.9c0.2-1.6,0.5-3.2,1-4.8
		c2.7-10.1,4.7-20.3,6.1-30.6c0.8-6.1,2.2-12,3.8-17.9c2.6-9.7,4.9-19.6,7.2-29.4c0.5-2.1,1.3-4,2-6c0.5-1.4,1.4-2.6,2.5-3.6
		c5.7-5.1,9.7-11.5,12.7-18.4c3.3-7.7,3.1-15.4-0.9-22.9c-4.2-7.9-10.8-13.3-18.9-16.9c-7.4-3.3-15.2-5.2-23.2-6.6
		c-4.2-0.7-8.4,0-12.6,0.5c-3.9,0.5-7.8,1-11.7,1.2c-1.6,0.1-3.3-0.1-4.9-0.5c-1.8-0.5-2.1-1.1-1.1-2.7c1.3-2.2,2.5-4.4,4-6.4
		c3.6-4.9,5.9-10.5,8.2-16c4.8-11.5,9.8-22.9,15.5-34c2.6-5,4.9-10.1,6.7-15.5c0.1-0.2,0.2-0.4,0.3-0.6c0.2-0.4,0.3-1,0.8-1
		c0.7,0,0.8,0.7,1,1.2c0.2,0.4,0.3,0.9,0.3,1.4c0.8,6,2.7,11.7,4.3,17.5C521.4,519.6,522.7,523.8,524.5,528z M557.6,480.6
		L557.6,480.6c-0.9-1.4-1.4-3-2.1-4.6c-2.2-4.9-1.6-9.9,0.3-14.6c2.2-5.6,5.6-10.7,8.9-15.7c3.6-5.5,8-10.4,12.3-15.4
		c4.2-4.8,8.7-9.3,14.1-12.7c1.2-0.8,1.9-1.5,1-2.9c1-0.3,2,0.3,2.8-0.5c1.4-1.5,3.3-2.3,5.1-3.2c0.4-0.2,0.9-0.5,0.5-1.1
		c-0.4-0.6-0.5-1,0.2-1.4c0.6-0.3,1.1-0.1,1.3,0.5c0.1,0.3,0.3,0.6,0.7,0.5c0.3-0.1,0.5-0.3,0.4-0.7c-0.3-1.6,0.8-2.2,2-2.7
		c1.6-0.6,3.3-1.1,4.9-1.6c0.6-0.2,1-0.4,0.2-1.1c-0.5-0.5,0-1.2,0.4-1.4c0.6-0.3,1.5,0,1.5,0.6c0.2,1.5,1,1,1.8,0.7
		c1.9-0.6,3.9-1.2,5.8-1.8c4.7-1.4,9.5-2.5,14.2-4.2c0.2-0.5-0.3-0.7-0.4-1c-0.1-0.5,0.2-0.7,0.5-1c0.4-0.3,1,0,1,0.3
		c0.1,1.5,1,1.1,1.8,0.7c1.7-0.6,3.3-1.3,5-1.9c0.5-0.2,1-0.3,0.6-1.1c-0.3-0.6,0.2-1.1,0.7-1.3c0.3-0.2,0.9,0.1,1,0.4
		c0.5,1.2,1.2,0.6,1.9,0.4c2.7-1.1,5.3-2.2,8-3.3c1.8-0.8,3.6-1.8,5.3-2.8c2.1-1.1,4.3-2.1,6-3.7c3.5-3.4,7.2-6.7,10.9-10
		c4.5-4,9.3-7.6,14.6-10.5c3.2-1.7,6.5-3,9.8-4.5c2.1-1,4.2-2.1,6.3-3.2c2.1-1.1,3.8-2.8,5.9-4c2-1.1,2.5-3.4,4.3-4.7
		c-2-1.7-2.1-2.1-1-4c0.2-0.4,0.5-0.6,0.9-0.6c0.4,0,0.8,0.3,0.9,0.6c0.3,0.6-0.2,0.8-0.6,1.1c-0.2,0.2-0.7,0.1-0.5,0.6
		c0.1,0.2,0.3,0.3,0.5,0.4c0.5,0.2,0.7-0.1,0.8-0.6c0-0.2,0.1-0.3,0.1-0.4c0.8-2.9,0.2-4.7-2.3-6.5c-0.7-0.5-1.4-1.1-2.1-1.5
		c-2.6-1.5-5.1-3.3-8.2-3.9c-2.4-0.4-4.7-0.2-6.4,1.9c-2.1,2.7-2.4,6.8-0.7,9.7c1.5,2.6,4.4,3.2,6.8,1.5c1.7-1.2,1.4-5.3-0.4-6.3
		c-1-0.5-1.9,0-1.9,1.1c0,0.6,0.3,1.2,0.3,1.8c0,0.4-0.2,0.8-0.7,0.8c-0.9,0.1-2-0.7-2.1-1.5c-0.2-2.4,1.5-5.2,4.6-5.1
		c3.4,0.2,5.5,3.3,4.4,6.7c-1.3,4.1-4.8,6.4-9.4,6.1c-2.2-0.2-3.8-1.3-4.8-3.2c-1.4-2.6-1.4-5.5-0.8-8.3c0.6-2.8,1.9-5.4,4.6-6.8
		c2.4-1.3,5-1.7,7.8-1.4c3.5,0.4,6.6,1.9,9.4,4c3,2.2,5.6,4.8,8.3,7.3c2.3,2.1,4.3,4.6,7.2,6c2.4,1.2,5,1.9,7.4,3
		c5,2.4,10.2,3.8,15.3,5.9c2.3,0.9,4.9,0.9,6.8,2.8c0.3,0.3,0.9,0.3,1.3,0.5c2.1,0.7,4.3,1.5,6.3,2.4c0.6,0.3,1.1,0.5,1.7-0.4
		c0.7-1,2.3-0.7,2.2,0.4c-0.2,1.5,0.7,1.6,1.5,1.8c3,0.7,6.1,1.4,9.1,2c1.3,0.3,2.6,0.5,3.9,0.6c4.8,0.4,9.6,1.3,14.4,2.1
		c5.8,1.1,11.8,1.8,17.5,3.5c5.7,1.6,10.6,4.3,13.6,9.6c1.7,2.9,2,6.2,2.2,9.5c0.5,6.2,1.2,12.3,2.4,18.3c0.2,1.2,0.6,2.3,1.7,3
		c0.8-1.7,1-3.2,0.8-5.7c-0.3-4.8-0.3-9.6,0.1-14.3c0.1-1.4-0.2-2.6-0.6-3.8c-0.9-2.3-1.4-4.7-1.1-7.3c0.3-3.3,1.6-6.2,2.7-9.2
		c0.7-1.9,2-3.5,3.8-4.6c2.3-1.3,5.2-0.5,6.5,1.8c1.3,2.4,0.6,6.5-1.5,8.2c-1.1,1-2.5,1.2-4,1c-0.9-0.1-1.3-0.8-1.4-1.7
		c-0.1-1.1,0.3-1.8,1.3-2.3c0.9-0.4,1.3,0,1.7,0.7c0.2,0.3,0.4,0.5,0.7,0.4c0.9-2,1.2-2.7,1.1-3.8c-0.1-1.7-1.2-2.3-2.7-1.7
		c-2.2,0.9-3.3,2.8-3.9,5c-1,3.8-0.8,7.7-0.2,11.6c0.1,0.7,0.2,1.2,1.2,0.9c0.9-0.3,1.7,0.2,2.4,0.6c5.3,2.6,8.7,7,11.2,12.1
		c1.7,3.4,3.5,6.6,6.6,8.9c2.4,1.8,4.4,4,6.4,6.3c0.5,0.6,0.8,1.3,1.8,1.7c-0.1-1.7-0.4-3.2-1-4.7c-1.4-3.7-3.2-7.3-5.2-10.8
		c-1.9-3.4-3.9-6.8-6.5-9.7c-0.5-0.6-0.9-1.2-1.2-2c-1-2.2,0.8-4.4,2.7-4.4c1.2,0,2.5,0,3.7,0.2c4.5,0.8,8.9,2.3,13.5,2.8
		c3.1,0.3,6,1.1,9,1.8c2.8,0.7,5.7,0.9,8.6,1.1c0.5,0,1.1,0.2,1.5-0.5c-0.2-0.2-0.4-0.5-0.6-0.6c-2.8-2.4-6.2-3.8-9.6-5.4
		c-6-2.8-12.3-4.9-18.6-6.9c-1.9-0.6-3.8-1.5-5.4-2.7c-2.6-1.8-2.7-5-0.2-6.7c1-0.7,2.1-1.3,3.4-1.5c2.7-0.4,5.4-0.9,8.1-1.1
		c5.2-0.4,10.5-0.3,15.7-0.3c4.4,0,8.8-0.4,13.1-1c0.7-0.1,1.4-0.3,2-0.6c1.6-0.7,1.8-2,0.4-3c-0.7-0.5-1.6-1-2.5-1.3
		c-4.3-1.6-8.8-2.2-13.3-2.6c-3.6-0.3-7.2-0.9-10.7-0.8c-5.2,0.1-10.3,0.6-15.5,0.8c-1.3,0.1-2.7-0.1-3.9-0.6
		c-1.5-0.6-2.1-2.1-1.5-3.6c0.5-1.3,1.4-2.3,2.4-3.1c4.9-4.5,9.8-9,15-13.1c0.8-0.7,2-1.2,2.3-2.4c-0.4-0.2-0.6,0-0.9,0.2
		c-4.4,2.2-7.9,5.5-11.9,8.3c-2.5,1.8-4.9,3.7-7.5,5.2c-4.5,2.5-9.1,4.7-13.9,6.8c-4.3,1.8-8.7,3.1-13.4,2.3c-2.4-0.4-5-0.5-7.2-1.9
		c-2.9-1.8-6-3-9.1-4.2c-4.2-1.7-8.5-3.2-12.7-5c-5.9-2.6-11.8-5.4-17.9-7.5c-8.9-3.1-17.7-6.3-27-8.2c-6.2-1.2-12.4-2.8-18.6-4
		c-4.8-0.9-9.5-1.8-14.3-2.5c-4-0.6-8.1-1.1-12.1-1.4c-6.3-0.4-12.4,1.1-18.4,3c-4.3,1.3-8.5,3.1-12.9,4.3c-2.9,0.8-5.5,2.1-8,3.8
		c-2.3,1.5-4.7,2.8-7.1,4.1c-4.1,2.2-8.3,4.1-12.2,6.6c-8,4.9-15.6,10.5-24.5,13.9c-0.9,0.4-1.7,0.9-1.1,2.1c0.4,0.7,0,1-0.6,1.4
		c-1.3,0.8-1.8-0.4-2.6-0.8c-0.5,0.6-1,1.1-1.1,1.8c-0.1,0.7-0.6,1-1.2,0.7c-1-0.5-1.6,0-2.3,0.6c-3.9,3-7.9,5.9-11.8,8.9
		c-1.3,1-2.3,2.3-3.1,3.8c-1.2,2.1-2.4,4.2-3.7,6.3c-1.2,1.9-1.7,2.3-3.5,3.3c1.8-2.7,2.6-5.7,3.4-8.6c1.8-6.8,3-13.5,1.5-20.5
		c-0.9-4.2-1.4-8.5-1.5-12.8c0-1.1-0.2-2.2-0.3-3.3c-0.6-3.8-2.1-7.2-3.1-10.8c-0.1-0.5-0.5-0.9,0-1.6c0.5,0.9,1.1,1.5,1.4,2.3
		c0.6,1.6,1.5,3,2.6,4.2c3.6,4.3,5.1,9.2,5.1,14.7c0,0.9,0,1.9,0.2,2.8c0.5,2.7,0.5,5.4,0.4,8.2c0,0.4,0,0.8,0,1.2
		c0.1,0.3,0.4,0.5,0.7,0.6c0.3,0.1,0.6,0,0.8-0.4c0.3-0.6,0.4-1.3,0.5-2c0.6-4.3,0.5-8.6-0.1-12.9c-0.6-4-1.6-8-4.1-11.3
		c-0.8-1.1-1.7-2.2-2.5-3.4c-2.1-3.5-4.2-7-6.4-10.4c-1-1.5-2.3-2.8-2.9-4.5c-2.5-6.4-5.3-12.7-8.5-18.8c-4.4-8.3-9.7-15.9-15.8-23
		c-2-2.4-4.1-4.7-6.6-6.7c-4.8-4.1-9.6-8.3-14.4-12.4c-3.7-3.1-7.3-6.4-12-8.2c-3.4-1.3-6.6-2.9-9.3-5.4c-1.2-1.1-2.6-1.7-4-2.4
		c-3.6-1.9-7.3-3.1-11.2-4.1c-6.4-1.7-13-2.9-19.5-4.3c-3.6-0.7-7.2-1.3-10.9-1.4c-0.5,0-1.1-0.3-1.5,0.6c1.9,0.9,3.9,1.4,6,1.8
		c2.8,0.6,5.6,0.6,8.3,1.7c2.2,0.9,4.3,1.9,6.4,2.9c3.1,1.5,6.2,3.1,9.7,3.2c1.3,0.1,2.4,0.6,3.5,1.4c5.5,3.7,10.5,7.9,15.2,12.5
		c3.3,3.3,6.6,6.7,10.5,9.4c3,2.1,5.6,4.5,7.8,7.4c1.3,1.8,3,3.2,4.9,4.4c1.3,0.8,2,1.8,2.7,3.2c1.8,3.9,3.2,8.1,6.8,10.8
		c0.2,0.2,0.4,0.5,0.6,0.7c5.7,7.9,10.2,16.5,13.3,25.8c2.5,7.5,3.8,15.3,4.9,23.2c0.8,5.7,1.2,11.5,1.4,17.3
		c0.2,7.5-0.3,14.9-1.9,22.2c-1.1,4.9-2.9,9.6-6.6,13.3c-1.9,1.9-4.3,2.8-6.8,2.6c-3.1-0.2-6.2-0.7-9.3-1.5
		c-0.5-0.1-1.1-0.3-1.2-0.9c-0.6-4.1-1.6-8.2-0.8-12.3c0.8-3.9,3.1-5.2,7.2-4.3c0.5,0.1,0.9,0.3,1.2,0.7c1.4,2.1,1.4,3.7-0.1,5.7
		c-0.2,0.3-0.5,0.6-0.7,0.9c-0.3,0.4-0.7,0.8-1.2,0.4c-0.4-0.3-0.9-0.7-0.6-1.4c0.2-0.6,0.5-1.2,0.7-1.7c0.2-0.4,0.5-0.9,0.2-1.3
		c-0.4-0.5-1.1-0.3-1.5,0c-0.9,0.5-1.7,1.2-2,2.2c-0.9,2.7-0.9,5.4,1,7.8c0.5,0.6,1,1.2,1.8,1.5c3.5,1.5,7.2,0.2,9.1-3
		c0.4-0.7,0-1.2,0.2-1.7c0.2-0.6,1.2,0.1,1.6-0.5c0.2-0.3,0.3-0.7,0.5-1.1c1.3-3.2,1.9-6.6,2.3-10c0.1-0.8,0.5-1.9-0.6-2.5
		c-0.4-0.2-0.2-0.7,0.1-0.7c1.6-0.5,1-1.8,1-2.7c0.1-4-0.1-8-0.1-12c0-1-0.1-1.7-1.3-1.6c-0.3,0-0.6-0.1-0.7-0.5
		c-0.1-0.4,0.1-0.7,0.4-0.7c1.8-0.2,1.3-1.5,1.2-2.5c-0.2-5.2-1-10.3-1.1-15.4c0-0.9,0.1-2.2-1.3-2.7c-0.8-0.3-0.9-1-0.1-1.9
		c1.1-1.2,0.9-2.2-0.1-3.5c-0.2-0.2-0.7-0.2-0.4-0.6c0.9-1.2,0.1-2.4-0.1-3.5c-0.8-3.9-2.2-7.5-3.7-11.1
		c-4.2-10.1-9.6-19.6-15.8-28.5c-2.7-3.8-5.6-7.6-9-10.8c-0.5-0.5-0.9-1.3-1.7-1.1c-1.1,0.3-1.2-0.4-1.4-1c-1.3-3.5-4-5.8-6.9-7.7
		c-0.5-0.3-1-0.7-1.4,0.1c-0.3,0.6-0.9,0.6-1.4,0.3c-0.6-0.4-0.6-0.9-0.1-1.4c0.6-0.7,0.3-1-0.3-1.5c-1.4-0.9-2.7-1.9-4.1-2.8
		c-4.6-2.9-8.6-6.6-12.8-10c-3.7-3-7.6-5.6-12.3-6.5c-0.7-0.1-1.5-0.4-1.7,0.6c-0.2,1.2-1,1.1-1.8,0.9c-1-0.3-0.8-1-0.5-1.7
		c0.2-0.6,0.2-1.1-0.5-1.3c-1.6-0.4-3.1-1.1-4.8-1.1c0.1,1.1,0.7,1.7,1.4,2.2c2.3,1.5,4.3,3.4,6.5,5c1.8,1.4,3.5,2.9,5.5,3.9
		c0.8,0.4,1.7,0.9,2.5,0c0.3-0.3,0.8-0.5,1.3-0.1c0.4,0.4,0.2,0.9,0,1.3c-0.6,1-0.1,1.6,0.6,2.2c1,0.8,2,1.7,3,2.6
		c4.8,4.5,8.6,9.8,12.6,14.9c2.9,3.7,5.6,7.6,7.9,11.7c3.4,6.1,5.7,12.7,7.4,19.5c2.3,9,4.7,18,6.6,27.1c1.8,8.5,3.1,17.1,2.5,25.8
		c-0.2,2.9-0.2,5.8-0.7,8.7c-0.7,4.7-0.8,9.5-1.2,14.3c-0.2,3.4-0.3,6.7-1,10c-0.9,4.7-2,9.3-3,14c-0.2,0.9-0.4,1.8-1.1,2.6
		c-0.4,0.5-0.7,1.1-1.5,1c-1-0.1-0.6-0.9-0.8-1.5c-0.1-0.4-0.2-0.8-0.2-1.1c-0.4-2.7-1.8-4.8-4.3-6.1c-1.8-0.9-3.6-1.4-5.6-1.6
		c-5.3-0.5-10.5,0.3-15.6,1.5c-6.2,1.5-12.5,3-18.8,4.2c-8.9,1.7-17.7,4-26.1,7.5c-8.9,3.7-17.4,8.3-25.7,13.1
		c-1.3,0.8-2.7,1.5-4,2.4c-2.3,1.7-2.4,3.5-0.2,5.3c2.1,1.8,4.8,2.5,7.4,2.9c5.7,0.8,11.2,0,16.7-1.7c1.7-0.5,2.9-1.8,3.7-3.4
		c0.4-0.8,0.4-1.5-0.1-2.2c-1.6-2.1-5.2-1.7-6.4,0.7c0.4,0.5,0.9,0.5,1.5,0.6c0.7,0.1,1.3,0.4,1.3,1.1c0.1,0.8-0.4,1.3-1.1,1.7
		c-1,0.6-3,0.2-4-0.7c-0.9-0.8-1.3-2.6-0.9-3.6c0.8-2.3,2.6-3.4,4.8-3.6c2.5-0.2,5.1-0.1,6.8,2.2c0.2,0.3,0.5,0.6,0.6,1
		c0.5,2,0.6,4-0.4,5.9c-1.5,2.8-3.6,4.9-6.6,6.1c-7.6,3.1-15.4,3.3-23.3,2c-3.1-0.5-5.9-1.6-8.6-2.9c-0.7-0.3-1.6-1.1-2.2-0.7
		c-1.6,1.2-3.3,0.8-5,0.9c-2.7,0.2-5.5,0.4-8.2,0.3c-2.5-0.1-5-0.4-7.5-0.7c-1.9-0.2-3.9-0.4-5.8-0.8c-5.6-1.2-11.3-2.4-16.9-3.9
		c-5.6-1.5-11.1-3.2-16.7-4.8c-4.6-1.3-9-3.1-13.5-4.4c-5.8-1.6-11.6-3.2-17.4-4.5c-4.7-1.1-9.4-2.3-14.1-3.6
		c-6.1-1.7-12.4-2.7-18.7-3.3c-6.3-0.6-12.6-1.5-18.9-1.6c-4.5-0.1-8.9-0.6-13.4-0.8c-6.3-0.3-12.4-1-17.8-4.6c-3-2-6.1-3.9-8.7-6.3
		c-3.5-3.4-5.9-7.4-7.8-11.9c-2.2-5.2-3.9-10.5-5-16c-0.7-3.4-1.9-6.6-3.4-9.7c-0.9-1.8-2.2-3.4-3.9-4.6c-1.7-1.2-3.1-0.5-3.4,1.5
		c-0.4,2.8,0.4,5.4,0.5,8.2c0.1,2.4,0.5,4.7,1.2,6.9c1.6,5.2,3.5,10.2,5.3,15.3c1.8,5.1,3.5,10.2,3.5,15.7c0,3.6-0.6,6.8-4.1,8.9
		c-2.3,1.3-4.7,2.1-7.4,1.8c-2.3-0.2-4.2-1.4-5.2-3.5c-0.8-1.8-0.9-3.6,0.3-5.4c1.1-1.5,2.6-2.2,4.5-2.1c1.1,0.1,2.2,1,2.6,2.1
		c0.4,1.1-0.5,1.6-0.9,2.2c-0.5,0.6-1.1,0.5-1.7,0.2c-0.8-0.4-0.3-0.9-0.1-1.4c0.1-0.2,0.2-0.5,0.2-0.7c0-0.6-0.2-0.9-0.8-0.8
		c-1.6,0.2-3,2.8-2.1,4c1.7,2.4,4,4,7.2,2.2c1.7-1,2.9-2.2,3.3-4.3c0.3-1.6,0.5-3.1,0.4-4.6c-0.4-4.4-1.4-8.6-3.3-12.6
		c-0.7-1.5-1.2-3.2-3.3-3.5c-0.3-0.1-0.7-0.4-1-0.6c-2.3-2.4-4.7-4.6-6.8-7.1c-2.5-3-4.8-6.2-7.2-9.2c-4-5.1-8.6-9.4-14.4-12.4
		c-2.2-1.1-4.4-2.1-6.6-3c-2.1-0.9-4.4-1.1-6.6-1.4c-2.1-0.3-2.9,0.6-2.6,2.7c0.3,2.5,1.7,4.5,3.4,6.3c2.1,2.2,4.3,4.3,6.4,6.5
		c4.8,5.2,10.5,9.4,15.1,14.8c0.8,0.9,1.7,1.9,2.6,2.7c2.9,2.7,5.8,5.5,7.9,9c0.7,1.1,0.7,2.5-0.1,2.9c-1.1,0.6-2.4,1.2-3.8,0.8
		c-2.9-0.8-5.7-1.6-8.5-2.6c-4.9-1.8-10-3.1-15.2-3.8c-1.9-0.2-3.9-0.5-5.8-0.9c-2.7-0.5-5.3-1.1-8.1-1.4c-5.5-0.6-10.9-1-16.4-0.8
		c-1.4,0.1-3-0.1-3.7,1.5c-0.7,1.4,0.3,2.6,1.1,3.6c2.5,3.8,6.3,5.7,10.5,7.1c3.5,1.1,7.1,1.8,10.7,2.7c4.7,1.2,9.5,2.1,14.2,3
		c3.7,0.7,7.5,0.8,11.1,1.9c2.4,0.7,4.3,2,5.6,4.1c0.5,0.8,0.4,1.3-0.2,1.9c-1,0.9-2,1.9-3.5,2.2c-3,0.7-5.9,1.5-8.8,2.3
		c-3.1,0.9-6.1,2-9.2,2.6c-5.9,1.3-11.3,3.6-16,7.5c-0.7,0.6-1.3,1.2-1.7,1.9c-0.6,1.2-0.3,1.9,0.9,2.4c0.5,0.2,1.1,0.2,1.6,0.1
		c4.1-0.9,8.3-1.7,12.4-2.7c3.7-0.9,7.3-2.1,11-3.2c4.3-1.2,8.6-2.3,12.9-3.5c1.7-0.5,3.4-0.7,5.1-0.8c1.4-0.1,2.6,0.5,3.3,1.8
		c0.6,1.1-0.1,2.8-1.3,3.7c-0.1,0.1-0.3,0.1-0.4,0.2c-2.4,1.7-4.9,3.3-7.2,5.2c-2.8,2.4-5.3,4.9-6.5,8.4c-0.4,1-1,2.2-0.1,3.1
		c0.9,0.8,2,0,2.8-0.4c2.2-1.1,4.3-2.6,6.2-4.3c3.2-2.8,6.7-5.1,10.6-6.9c3.2-1.5,6.4-3,9.6-4.4c2.5-1.1,5.1-1.9,7.8-2.4
		c1.8-0.4,3.4,0.3,5.1,0.1c4.2-0.6,8.3-0.4,12.4,0.5c2.5,0.6,5.4-0.4,7.4,2c0.1,0.1,0.3,0,0.5,0.1c2.2,0.5,4.4,1,6.6,1.5
		c4.4,0.9,8.6,2.4,12.9,3.5c3,0.8,5.7,2,8.6,3.1c4,1.6,8.1,2.9,12.1,4.4c4.6,1.6,9.2,3.1,14,3.8c5.7,0.9,11.4,2.1,17,3.4
		c5.9,1.3,11.9,2.5,17.9,3.8c4.8,1,9.6,1.3,14.4,2.4c6.7,1.5,13.5,2.7,20.4,3.2c1,0.1,1.8,0,2.8-0.6c0.8-0.5,1.4,1.2,2.6,1.2
		c4.2,0.2,8.4,0.6,12.7,0.7c9.2,0.3,18.4,0,27.7-0.5c2.8-0.2,5.6-0.6,8.3-1.4c7.4-2.2,14.8-4.6,22.2-6.9c0.6-0.2,1.2-0.7,1.8-0.2
		c1.3,1.1,2.5,0.3,3.7-0.2c3.5-1.7,7-3.5,10.5-5.1c1.5-0.7,3-1.4,4.5-1.8c2.9-0.7,5.7-1.7,8.4-2.8c3.5-1.3,6.9-3,10.6-3.8
		c3.7-0.8,6.6-3.8,10.5-3.6c0.1,0,0.3-0.2,0.4-0.2c4.1-1.1,7.9-3,11.7-4.8c2.5-1.2,5.1-2.2,7-4.2c1.5-1.5,3.1-2.6,4.9-3.5
		c1.9-0.9,3.4-2.2,4.8-3.7c0.6-0.6,1.2-1.2,1.8-1.8c0.6-0.6,1-0.2,1.2,0.4c0.2,0.5,0.3,1.1,0.1,1.6c-0.6,1.7-0.5,3.5-0.7,5.3
		c-0.5,4.9-1.3,9.8-1.7,14.6c-0.5,6.8-2.3,13.2-4.4,19.6c-1.6,5-3.5,9.9-5.7,14.6c-3,6.5-4.6,13.5-5.3,20.6
		c-0.7,6.7,1,13.2,2.3,19.7c1.2,5.9,3.1,11.6,4.6,17.4c0.8,3.1,1.7,6.2,3.4,9c2.4,4,4.9,7.9,7.6,11.6c2.7,3.7,5.7,7.3,9.8,9.7
		c3.4,2.1,7.1,3,11,2c3.7-0.9,6.7-3,9.2-5.8c3.6-4.2,5.8-9,6.4-14.6c0.5-5.1-0.9-9.5-4-13.3c-1.7-2.1-3.9-3.4-6.6-3.6
		c-4.5-0.4-9,2.1-10.9,6.2c-1.5,3.2-0.5,6,2.6,7.6c1.2-1.7,2.8-3,5-3c0.9,0,0.9-0.9,1.5-1.3c1.2,0.6,2,1.6,2.6,2.7
		c1.3,2.3,1.5,4.4-1,6.7c-2.5,2.3-5.5,3.3-8.8,3.5c-7.1,0.5-12.4-5-11.6-12c0.8-7.9,8.2-15.5,15.8-16.4c1.2-0.2,2.1-0.4,1.9-1.9
		c-0.1-0.8,0.4-1.1,1.2-0.9c0.9,0.2,1.5,0.5,1.1,1.6c-0.4,1,0.1,1.2,1,1.3c0.6,0.1,1.2,0.3,1.8,0.4c3.2,0.6,5.9,2.2,8.1,4.5
		c4.9,5,6.5,11.3,6.6,18.1c0,3.9-0.7,7.8-2.2,11.5c-2.1,5.2-5.2,9.8-10.3,12.4c-7.9,4-16,4.2-23.9,0c-6.3-3.3-11-8.4-15.1-14.2
		c-2.4-3.4-3.9-7.3-7-10.3c-0.7-0.7-1.3-1.4-1.7-2.2c-1.2-2.2-2.8-4.1-4.4-6.1c-2-2.5-4.5-1.8-5.9,0c-0.4,0.5-0.8,1.1-1.2,1.7
		c-1.4,2.3-2.9,4.6-4.9,6.6c-2.8,2.8-4.8,6.1-6.4,9.7c-0.9,1.9-0.9,3.9,0.1,5.9c0.8,1.6,1.9,3,2.7,4.6c1.9,3.6,4.7,6,8.8,6.7
		c2.5,0.5,4.9,1,7.3,1.7c3.9,1,7.5,2.8,10.9,4.7c4.7,2.6,9.7,4.7,14,8.1c5.9,4.6,10.7,9.9,13.3,17.1c2.6,7,2.7,13.8-0.1,20.8
		c-2.4,6.1-5.7,11.6-9.5,16.9c-5.7,7.8-8.9,16.6-10.5,26c-1,5.8-2.1,11.5-3.7,17.2c-1.3,4.7-2.7,9.3-4,14c-0.8,2.9-2.1,5.7-2,8.8
		c0,1.7-0.9,3.4,0.6,4.9c0.3,0.3,0.2,0.8-0.1,1.1c-1.3,1.1-0.7,1.6,0.6,2.1c0.6,0.3,0.7,1.1,0,1.2c-1.7,0.1-1.1,1.1-1,1.9
		c0.2,1,0.2,2.1,0.7,2.9c0.5,0.9-0.1,2.3,1.1,2.7c1.6,0.5-0.5,2,0.8,2.5c0.1,0,0.1,0.2,0.2,0.3c1.2-1.5,1.6-1.7,2.6-1.2
		c0.9,0.4,1.1,1.1,0.9,1.9c-0.4,1.8-1.9,0.7-3.1,0.9c0.8,1.8,1.5,3.4,2.3,5c0.6,1.2,1,2.7,2.7,3c0.5,0.1,0.6,0.7,0.5,1.2
		c-0.1,0.6,0.1,1.1,0.8,1.4c0.5-1.3,0.8-2.9,2.7-2.6c0.8,0.1,1.7,0.5,1.9,1.5c0.2,1.8-0.9,2.7-2.4,3.2c0.2,1.5,1.3,2,2.3,2.5
		c1-1.7,1.5-2,2.6-1.5c0.4,0.2,0.6,0.5,0.8,0.8c0.7,1.1-1,1.5-0.7,2.6c1.7,0.7,3.1,2,4.9,2.4c0.1-0.2,0.2-0.4,0.2-0.5
		c0.1-0.7,0.1-1.3,1.1-1c0.7,0.2,1.1,0.5,0.8,1.3c-0.4,1.2,0.5,1.5,1.3,1.7c1.9,0.6,3.9,1.2,5.8,1.8c1.3,0.4,2.6,0.8,3.9,0.8
		c3.7-0.1,7.2-1.3,10.5-3c4-2.1,7.4-5.1,11-7.9c1-0.8,2.3-1.1,3.1-2c2.4-2.3,4.9-4.5,6.9-7c4.8-5.8,10-11.3,15.5-16.4
		c2.2-2.1,3.9-4.7,6.6-6.3c0.8-0.5,1.6-1,2.3-1.6c9.6-8,19.6-15.5,30.7-21.2c4.9-2.5,10.1-4.7,15.8-5c5.1-0.3,9.2,1.4,12.2,5.6
		c3.5,5,4.1,10.5,2.7,16.4c-1.9,7.7-6.4,13.9-11.4,19.7c-2,2.3-4.6,4-7.1,5.8c-3.6,2.6-7.8,3.8-12.2,3.3c-4.3-0.5-7.1-1.8-8.5-6.8
		c-1-3.6-0.6-7.1,0.1-10.7c0.5-2.6,2.3-4,4.2-5.3c0,0.4-0.1,0.6-0.2,0.9c-1.6,3.3-1.9,6.6,0.1,9.9c2,3.3,4.9,4.9,8.7,3.7
		c7.2-2.3,13.2-6.4,17.1-13c2.7-4.5,2.7-9.3,1-14c-1.3-3.7-4.9-5.8-8.9-5.5c-3.8,0.3-7.4,1.7-10.5,3.9c-5.5,3.8-10.8,7.8-16.1,11.8
		c-4.6,3.5-9.3,6.9-13.5,10.9c-7.2,6.8-14,13.9-21.2,20.8c-2.8,2.7-4.7,6-6.6,9.3c-3.4,5.9-5.5,12.4-7.2,19
		c-0.9,3.5-1.1,7.1,0.2,10.6c0.9,2.2,2.1,4.2,3.5,6.1c3,4,5.5,8.2,6.7,13.1c0.5,2,0.8,4,1,6c0.5,5-0.4,9.6-2.8,14
		c-1.1,2.1-2.7,3.7-4,5.6c-3.9,5.8-9.1,10.2-15.3,13.5c-3.2,1.7-6.4,3.2-9.4,5.2c-3,2-6.3,3.5-9.6,4.9c-2.4,1-5,1.5-7.2,2.9
		c-6.1,4-12.5,7.4-18.6,11.3c-5.9,3.9-12,7.6-18.1,11.2c-1.9,1.1-3.8,2.2-4.9,4.2c-2.9,5.5-5.3,11.1-6.4,17.3
		c-1.4,7.5-1.4,15.1-1.4,22.6c0,2,0.5,4.1,0.8,6.1c0.9-0.2,1.2-1.1,2.1-0.9c0.8,0.1,1.6,0.1,1.9,1c0.2,0.6,0.3,1-0.2,1.5
		c-0.6,0.6-1.2,1-2.1,0.6c-0.4-0.2-0.8-0.5-1.4-0.4c-0.3,0.8-0.4,1.6,0,2.5c1.2,2.7,1,5.5,0,8.2c-1,2.7-1.5,5.4-1.8,8.2
		c-0.6,5.2,3.5,10.5,8.8,11.3c3.4,0.5,6.9,0.4,10.3,0c4.1-0.4,8.2-1.1,12.2-2.5c4.7-1.6,9-3.9,13.2-6.5c3-1.9,6.1-3.9,8.5-6.7
		c2.3-2.7,4.3-5.5,5.5-8.9c1.4-4.1,1.2-8.1,0.1-12.2c-0.1-0.5-0.4-0.8-0.9-1c-0.9-0.4-1.9-0.6-3-0.6c-3.2,0-6,1.1-8.5,3.1
		c-2.3,1.8-4.2,4-6.3,6c-2.1,2.1-2.5,4.6-3.1,7.5c1.7-0.4,3.2-0.1,4.6-0.9c0.9-0.5,1.6-1,0.6-2.1c-0.7-0.7-0.4-1.5,0.3-2.1
		c1-0.9,2.5-0.7,3.3,0.5c0.8,1.2,0.8,2.5,0.1,3.8c-1.1,2.2-3,3.6-5,4.8c-4.1,2.5-8.2-0.7-8.3-4.8c-0.1-3.8,1.4-7.4,3-10.7
		c1.7-3.5,4.5-6.4,7.7-8.8c6.7-5,14.4-7.2,22.7-7.1c5.5,0,9.1,2.9,10.8,7.8c0.7,2.1,1.2,4.2,0.9,6.4c-0.1,0.5,0.1,1,0.1,1.5
		c0.4-0.2,0.6-0.3,0.6-0.4c3.8-5.9,7.6-11.9,10.3-18.3c1.2-2.9,2-5.9,2.1-9.1c0.1-3.1-1.6-4.7-4.7-4.4c-2.4,0.2-4.8,0.8-7,1.8
		c-6.2,3-12.6,5.6-18.9,8.4c-6.9,3-13.7,6.2-20.1,10.1c-3.4,2.1-6.4,4.8-9.5,7.2c-2.1,1.6-4.1,3.2-6.5,4.3c-0.8,0.3-1.9,0.8-2.7,0
		c-0.6-0.7-0.1-1.5,0.1-2.2c1.9-8.4,5.7-15.9,10.6-22.9c4-5.7,8.5-11,13.3-16.2c0.9-1,1.9-1.9,2-3.4c0.1-1.4,0.9-2.4,1.8-3.4
		c2.7-2.9,5.3-5.7,7.5-9c2.6-4,5.8-7.6,9.4-10.7c2.4-2.1,4.8-4.2,7.2-6.4c3.5-3.2,6.9-6.6,10.6-9.6c3.1-2.5,6-5.3,8.5-8.4
		c3.9-4.6,7.9-8.9,12.4-12.8c2.3-2.1,4.8-4.1,6.7-6.6c6.1-7.6,12.1-15.2,18.2-22.8c2.2-2.7,4.1-5.5,5.3-8.8c0.7-2,2-3.7,3.4-5.3
		c2.9-3.2,6-6.1,9.3-8.9c2.9-2.4,5.8-4.8,8.3-7.6c4.3-4.6,8.4-9.5,12.8-14c3-3.2,6.2-6.2,8.9-9.7c4-5.1,7.3-10.6,10.7-16
		c3.4-5.5,6.8-10.9,11.1-15.7c2.7-3,5.8-5.7,7.9-9.2c1.4-2.3,3.2-4.4,4.1-7.1c-0.8-0.1-1.4-0.1-2-0.4c-0.8-0.5-1.5-1.1-1.1-2.3
		c0.2-0.9,0.4-1.8,1.5-1.8c1.2,0,2.3,0.4,2.9,1.6c3.9-6.5,4-13.8,0.2-16.6c-0.2,0.5-0.3,1-0.5,1.5c-0.3,1.1-1.2,0.8-1.9,0.8
		c-0.7,0-1.4,0-1.5-0.8c-0.1-0.7-0.1-1.6,0.5-2.2c0.4-0.4,0.9-0.3,1.3-0.3c0.3,0,0.6,0.2,0.9,0.2c0.2,0,0.5,0.3,0.7-0.2
		c-1.6-1.6-3.4-2.7-5.5-3.4c-3.8-1.1-7.7-1.1-11.6-0.8c-2.8,0.2-5.6,0.3-8.4,0.3c-2.9,0-5.9-0.4-8.9,0.1c-10,1.7-19.9,3.4-29.9,5.1
		c-6.4,1.1-12.8,2.3-18.9,4.5c-8.3,2.9-16.6,5.7-25.2,7.5c-8.5,1.8-16.8,4.5-24.8,7.8c-4.4,1.8-9,3.3-13.8,3.7
		c-1.6,0.1-3.1,0.5-4.4,1.4c-0.8,0.6-1.8,1-2.7,1.5c-2.9,1.7-5.3,3.9-7,6.7c-1.2,1.9-0.5,3.8,1.4,5c2.3,1.5,4.6,1,6.9,0
		c1.2-0.5,1.7-1.3,1.3-2.6c-0.2-0.8-0.5-1.5-1.6-0.7c-0.7,0.5-1.5,0.5-2-0.4c-0.6-0.9-0.7-1.7,0.1-2.5c0.5-0.5,0.9-0.7,1.6-0.8
		c2.5-0.1,5,1.4,5.8,3.6c0.9,2.3,0.1,4.6-2,6.2c-2.8,2.1-5.9,2.7-9.3,2c-4.4-0.9-6.6-4.4-5.8-8.9c0.3-1.7,1.1-3.3,2.1-4.6
		c2.5-3.1,5.7-5.3,9.2-7.1c1-0.5,1.6-1.1,2-2.1c3.5-7.6,7.1-15.2,10.4-22.9c6.2-14.6,12.4-29.3,16.6-44.7c0.2-0.8,0.5-1.5,0-2.2
		c-0.5-0.8-0.2-1.3,0.5-1.7c1.4-0.9,1.3-2.6,1.7-4c0.1-0.3-0.1-0.5-0.4-0.8c-2-1.9-2-1.9,0.7-3.1c0.1-0.1,0.3-0.1,0.4-0.2
		c1.2-0.8,1.5-2.1,1.6-3.5c0.1-1.3-1-0.9-1.6-1.2c-1.1-0.6-1.2-1.4-0.3-2.2c0.6-0.5,1.2-1,1.9-1.4c1.2-0.7,1.7-1.6,1.9-3
		c0.7-4.8,1.3-9.6,2.4-14.3c1-4.3,2.2-8.5,3.1-12.8c1.2-5.6,2.4-11.2,1.2-17c-0.2-0.8,0.1-1.4,0.8-1.8c0.3-0.2,0.5-0.3,0.8-0.5
		c0.3-0.2,0.7-0.5,0.6-0.9c-0.1-0.6-0.6-0.7-1-0.8c-0.7-0.2-1.6,0-2.1-0.8c0.6-0.7,1.5-0.7,2.3-1c0.5-0.3,1.4-0.1,1.3-1
		c0-0.6-0.2-1.2-0.9-1.5c-1.1-0.5-1.5-1.5-1.9-2.5c-0.5-1.4-0.5-2.8-0.5-4.3c-0.1-2.8-0.6-5.6-0.8-8.4c-0.1-0.7-0.3-1-0.9-1.4
		c-1.2-0.6-1.2-1.7-0.1-2.4c0.9-0.6,1-1.2,1-2.1c0.3-5.3,1.1-10.6,1.9-15.8c0.6-3.5,1.5-7,2.3-10.5c1.3-5.2,2.7-10.4,4-15.6
		c0.6-2.4,1.2-4.9,1.8-7.3c0.2-0.7,0.2-1-0.6-1.4c-1-0.6-1.9-1.6-2.7-2.6c-0.6-0.7-0.2-1.3,0.3-1.8c0.5-0.5,0.9-0.2,1.4,0.1
		c0.9,0.5,1.2,1.6,2.3,2c1-0.8,0.7-2.1,0.9-3.1c0.2-1.6,1.3-3.3,0.1-5c-0.2-0.3-0.1-0.7,0.2-0.9c1.1-0.7,0.7-1.7,0.8-2.7
		c0.1-2.2-0.2-4.4-0.5-6.5c-0.3-2.4-0.4-4.9-1.4-7.1c-2.2-5-4.1-6-8.6-5.2c-1.5,0.3-2.9,0.7-4.2,1.3c-1.4,0.6-2.5,1.6-3.8,2.3
		c-3.5,1.9-6.9,4.1-9.7,6.9c-6.4,6.3-11.5,13.4-13.2,22.6c-0.4,2.2-1.1,4.4-0.9,6.7c0.4,5.3,2.5,9.5,7.6,11.7
		c3.7,1.6,7.5,0.9,10.4-1.9c1.5-1.4,2-3.6,3.3-5c1.7-1.8,1.7-3.8,1.5-5.8c-0.2-2.7-1-5.1-3.8-6.8c-2.9-1.8-5.6-1.7-8.2,0.1
		c-1.9,1.3-2.9,3.8-2,6c0.7,1.7,0.5,3.3,0.9,4.9c-0.9,0.5-1.5,0-2.1-0.3c-3.1-1.2-4.7-4-3.9-7.3c1.1-4.8,4.3-7.9,8.5-10
		c1.9-0.9,3.9-1,6-0.3c4,1.3,7.2,3.7,9.6,7.1c0.4,0.5,0.7,1.1,0.8,1.7c0.6,2.8,1.3,5.6,1.7,8.5c1,6.6-0.5,12.4-5.4,17.2
		c-3.5,3.3-7.7,5-12.2,6.3c-2.6,0.7-5.4,1.4-8.1,1.1c-5.5-0.5-9.8-3.2-12.8-7.8C560.9,486.2,559.3,483.4,557.6,480.6z"/>
	<path d="M311.8,879.1c0.7,1.8,1.9,2.9,3.5,3.4c1.9,0.5,3.9,0.6,5.8-0.1c1.9-0.7,2.3-1.7,1.7-3.7c-0.5-1.5-1.4-2.9-2.7-3.8
		c-3-2.4-6.3-4.3-10.1-5.3c-1.1-0.3-2.2-0.7-3.4-1.1c-3.3-1-6.8-0.9-10.2-1c-0.7,0-1.4,0.1-2.1,0.2c-1.7,0.5-3.3,1.1-5.2,1.1
		c-1.9,0-3.1,1.2-3.4,3.2c-0.5,2.6-1,5.2-0.8,7.9c0.1,0.9,0.2,1.7,0.7,2.4c0.8,1.3,1.6,2.7,2.5,3.9c1,1.3,2,2.5,2.3,4.3
		c0.3,1.6,2,2.6,2.9,4.2c-2.1,0.4-3.9,0-5.7-0.7c-3.6-1.4-7-3.1-10.3-5.1c-1.6-0.9-3.2-2.1-4.3-3.6c-2-2.5-4.6-4.1-7.1-6
		c-5.8-4.3-11.7-8.4-16.8-13.6c-2.9-3-5-6.6-6.1-10.7c-0.8-2.9-0.1-5.7,1.4-8.1c2.8-4.7,6.7-7.8,12.5-7.8c4,0,7.9,0.7,11.8,1.7
		c3.2,0.8,6.4,1.6,9.7,1.9c7.4,0.8,14.4,2.8,21.2,5.6c3.7,1.5,7.5,2.7,11.2,4.2c4.1,1.7,8.1,3.7,12.1,5.5c0.3,0.1,0.5,0.4,1.1,0.2
		c-0.6-1.3-0.9-2.7-1.7-3.9c-2.4-3.7-4.4-7.7-6.5-11.6c-2.1-4-4.6-7.8-7-11.7c-3.5-5.5-7-11.1-10-16.9c-2-4-4.7-7.6-7-11.3
		c-2.9-4.7-6.5-8.9-9.7-13.5c-2-2.9-3.8-5.9-5.2-9.2c-0.9-2.4-2.1-4.7-3.4-7c-1.3-2.3-2.1-4.9-3.2-7.2c-1.5-3.2-3.1-6.3-4.6-9.5
		c-1.7-3.7-3.5-7.3-4.7-11.2c-0.6-1.8-1.5-3.4-2.3-5.1c-8-16.7-14.6-33.9-20.8-51.3c-3.7-10.4-6.9-21-9.1-31.8
		c-1.3-6.5-2-13-1.5-19.6c0.3-3.8,1.1-7.6,2.9-11.1c3.2-6.4,8.2-10.1,15.5-11c4.9-0.6,9.5-0.1,14.1,1.6c3.7,1.4,7.8,1.8,11.5,3.2
		c6,2.3,12,4.6,17.6,7.6c2.3,1.2,4.1,3.1,6,4.9c3.9,3.8,8.1,7.1,12.7,10c2.5,1.5,4.6,3.4,6.8,5.4c1.7,1.6,2.2,3.5,2.2,5.6
		c0,1.7,0.5,3.2,1.3,4.7c1.3,2.4,2.4,4.9,3.5,7.4c1.6,3.5,3.7,6.6,7.2,8.6c8.8,5.1,16.5,11.6,24.5,17.8c2,1.6,4,3.3,5.6,5.3
		c0.9,1.2,2.2,2,3.4,2.9c1.4,0.9,2.6,2,3.6,3.3c2.8,3.5,5.9,6.7,8.9,9.9c0.3,0.3,0.7,0.7,1,0.9c2.9,2,4.8,4.9,6.5,7.8
		c3.1,5.3,6.8,10,11.5,14.1c5.1,4.5,8.8,9.9,10.3,16.6c0.6,2.8,0.6,5.8,0.1,8.7c-1.2,6.5-3,13-5.3,19.2c-1.7,4.5-3.9,8.7-6.1,13
		c-0.5,1-1.4,1.7-2.1,2.5c-2.1,2.3-3,5.3-4.7,7.8c-3.3,4.6-5.3,9.9-8.5,14.5c-0.2,0.3-0.4,0.7-0.7,0.9c-3.1,1.7-4.2,5-5.8,7.7
		c-1.6,2.7-3.9,4.9-6.3,6.9c-0.8,0.6-1.8,0-2.6-0.6c-1.2-0.9-1.9-2.1-2.4-3.4c-1-2.6-2.3-5.1-3.7-7.6c-0.7-1.4-1.2-2.9-2.3-4.2
		c-1.2-1.5-2-3.3-2.6-5.2c-0.9-2.9-2.1-5.7-3.3-8.5c-0.9-2-1-4.2-1.5-6.3c-0.9-3.4-2.5-6.4-4.1-9.4c-1.4-2.7-2.6-5.5-3.5-8.3
		c-0.7-2.1-1.6-4.2-2.3-6.4c-0.7-2.6-2.1-4.9-2.8-7.4c-0.3-1-0.8-1.8-1.3-2.8c-1.1-2.3-2.1-4.7-2.3-7.3c-0.2-1.7-0.8-3.3-1.5-4.9
		c-0.1-0.2-0.3-0.4-0.3-0.6c-0.4-3.7-2.1-7-3-10.6c-0.1-0.4-0.1-0.8-0.3-1.1c-1.8-2.7-2.5-5.9-3.9-8.7c-1.1-2.2-2.5-4.3-3.8-6.4
		c-0.2-0.3-0.4-0.6-0.7-0.5c-0.4,0.1-0.6,0.4-0.7,0.9c-0.1,0.6,0.1,1.1,0.3,1.6c1.8,3.8,2.8,8,4.8,11.7c1.9,3.6,2.8,7.5,4.6,11
		c0.2,0.4,0.4,0.9,0.4,1.4c0,2.1,0.9,3.9,1.4,5.9c0.1,0.2,0.2,0.5,0.2,0.7c-0.5,3,0.9,5.4,2.2,8c1.2,2.3,2.4,4.6,3.2,7
		c1.4,4.2,3.4,8.2,4.5,12.6c0.7,2.8,2,5.4,3.4,7.9c0.5,0.8,0.9,1.6,1.1,2.6c0.7,3.7,2.3,7.3,2.2,11.2c0,0.5,0.1,0.9,0.3,1.4
		c2.5,6.2,4.8,12.5,8.7,18.1c2.7,4,4,8.7,4.7,13.6c0.9,5.7,1.4,11.5,2,17.2c0.6,5.9,0.9,11.7,0.7,17.6c-0.1,4.4-0.2,8.8-1.1,13.1
		c-0.1,0.3-0.2,0.6-0.1,0.9c0.5,3.9-1.3,7.2-3.3,10.2c-2.6,3.9-6.4,6.1-11.2,6.4c-5.9,0.4-11.4-1.3-16.8-3.5c-1.2-0.5-2.5-1-3.8-1.3
		c-4.8-1-9.4-2.6-13.7-4.7c-3.5-1.8-6.4-4.5-8.9-7.5c-1.3-1.6-2.5-3.2-3.3-5.1c-0.3-0.6-0.6-1.1-1.3-1.3c-1.2-0.3-1-1.1-0.7-1.8
		c0.6-1.5,1.1-3.1,1.7-4.6c0.6-1.4,2.1-2.1,3.5-2.6c1.7-0.6,3.5-0.9,5.3-0.6c2.2,0.3,4.5,0.6,6.6,1.4c2.2,0.8,2.3,1.5,1.1,3.6
		C313.7,877.9,312.9,878.7,311.8,879.1z M315.5,831.8c0.2,0.2,0.4,0.3,0.6,0.5c0.9,1.5,1.7,3.1,2.6,4.5c0.9-0.2,1.2-1.2,2-1.1
		c0.7,0.1,1.7,0.3,2,1c0.2,0.5,0.2,1.2,0.1,1.8c-0.2,1.2-1.7,0.5-2.2,1.5c1.2,2.3,2.5,4.7,3.8,7c0.5,0.8,0.6,2,2,1.9
		c0.5-0.1,0.6,0.5,0.6,1.1c0,0.4-0.6,0.8,0,1.4c0.9,0.1,2.4-1,3,0.5c0.6,1.5-1,2-1.8,2.7c0.4,0.8,0.7,1.4,1,2
		c1.7,3.6,5.7,5.8,9.6,5.3c1-0.1,2.1-0.4,2.6-1.3c0.7-1.4,0.1-2.8-0.5-4c-0.5-1-1.4-1.5-2.8-1c-0.9,0.3-1.9-0.1-2.2-1.2
		c-0.3-1,0-1.8,1.3-2.4c2.2-1.2,4.8-0.6,6.7,1.6c2.2,2.5,2.5,5.5,1.3,8.3c-1.1,2.6-3.6,3.6-6.3,3.8c-2.2,0.1-4.5,0.9-6.7-0.3
		c-0.2-0.1-0.5-0.1-0.7-0.1c-2.6,0.7-4.9-0.1-7.2-1.1c-5.8-2.6-11.7-4.7-17.9-6.2c-7.8-1.9-15.6-3.6-22.9-7.1
		c-4.3-2-8.7-3.5-13.3-4.4c-4-0.7-7.9-1.9-12-2.2c-4.8-0.3-11,3-8.3,10c0.1,0.1,0.1,0.3,0.2,0.4c2.6,5.9,6.2,11,11.5,14.8
		c3,2.2,5.9,4.4,8.8,6.6c3.2,2.4,6.3,4.9,9.5,7.2c1.4,1,2.8,2,4.6,2.5c-1-2.9-1.4-5.7-2-8.4c-0.6-2.6-0.3-5.2,0.5-7.6
		c0.8-2.5,2.4-4.2,5.1-5c3.3-1,6.6-2.1,10.1-1.3c0.2,0,0.5,0,0.7,0c7-0.1,13.4,1.9,19.4,5.3c3.4,1.9,6.3,4.5,7.8,8.4
		c1.3,3.4-0.1,7.4-4.7,8.7c-2.9,0.8-5.8,0.7-8.6-0.7c-4.2-2-5.3-3.3-5.1-7.9c0-0.9-0.2-1.1-1-1.1c-1.3,0-2.5,0.4-3.6,1
		c-2.2,1.1-2.7,3.4-1.1,5.2c1.6,1.7,3.3,3.3,5.4,4.4c3.2,1.6,6.4,3.3,9.3,5.4c1.5,1,3.1,1.6,4.8,1.6c0.8,0,1.5,0.1,2.2,0.6
		c0.6,0.5,1.4,0.6,2.2,0.9c3.1,1,6.3,1.8,9.6,2.4c3.1,0.6,6.4,0.8,9.5,0.3c1.8-0.3,3.6-0.7,4.7-2.4c1-1.4,1.8-2.9,2.2-4.6
		c1.3-5.6,1.7-11.4,1.8-17.1c0.1-4.3,0-8.5-0.3-12.8c-0.2-3.7-0.7-7.4-1-11.1c-0.5-6.7-1.8-13.3-3.8-19.7c-0.9-3.1-1.5-6.3-2.7-9.2
		c-2.1-4.9-3.9-10-6.4-14.8c-2.2-4.4-3.2-9.3-5.9-13.5c-0.2-0.3-0.2-0.6-0.3-0.9c-1.3-3.6-2.4-7.2-3.4-11c-1.7-6.4-4-12.7-6.2-19
		c-2.1-6.2-4.3-12.4-6.5-18.6c-0.8-2.4-1.8-4.7-2.5-7.1c-1-3.7-2.5-7.2-4.1-10.7c-2.1-4.5-4.4-8.8-6.6-13.2c-2-4.1-3.8-8.3-6-12.2
		c-6.9-11.8-14-23.4-21.1-35c-1.2-2-2.8-3.8-4.6-5.3c-1.6-1.4-3.6-2.2-5.8-2.3c-2-0.1-3.1,0.7-3.6,2.6c-1.1,4-1.4,8.2-0.8,12.3
		c0.6,4.6,2.2,9,3.7,13.3c0.6,1.7,1.5,3.3,3.1,4.3c1.2,0.7,3,0.6,3.7-0.4c1.5-2.2,2.3-4.6,1.8-7.3c-0.1-0.6-0.4-1.2-1.3-0.9
		c-0.9,0.4-1.4-0.2-1.9-0.8c-1.7-2-1.2-4.4-1.2-6.7c0-0.3,0.2-0.6,0.5-0.7c1.8-0.7,4.9-0.7,5.8,1.9c0.4,1.1,0.8,2.2,1.3,3.2
		c1.4,3.1,2.2,6.4,2.7,9.7c0.4,2.3-0.3,3.3-2.5,4.1c-1.8,0.7-3.5,1.3-5.4,1.7c-3.9,1-5.2,0.4-7.4-3c-2.5-3.9-4.7-7.9-6.6-12.1
		c-1.9-4.1-2.7-8.2-3.1-12.6c-0.1-0.8-0.1-1.6,0.1-2.3c1-3.2,1.5-6.5,2.3-9.8c0.6-2.7,2.5-4.1,5.3-3.8c1.3,0.1,2.6,0.4,4,0.5
		c2.8,0.3,5.4,1.2,7.8,2.8c0.8,0.6,1.9,0.7,2.7,1.5c1.6,1.8,3.2,3.6,4.8,5.4c2.1,2.4,3.7,5.2,6.2,7.3c1.6,1.4,2.9,3.1,3.7,5.1
		c0.8,2,1.9,3.9,3.2,5.7c1.1,1.4,2.1,2.9,3,4.4c3.3,5.4,6.8,10.7,9.7,16.3c2,3.8,4.4,7.4,6,11.4c0.9,2.5,2.2,4.9,4.1,6.8
		c2,1.9,3.6,4,4.9,6.5c4,8.1,8.1,16.2,10.5,25.1c1.2,4.4,2.1,8.9,4.1,13c2.3,4.8,4,9.8,4.9,15.1c0.5,2.7,1.3,5.4,2.8,8.1
		c0.6-1.6,1.5-1.4,2.4-1c0.6,0.3,0.9,0.8,0.7,1.6c-0.4,1.4-1.6,0.8-2.8,0.8c1.1,3,2.1,5.8,3.1,8.6c2.2-1.1,3.8,0.2,5.5,1
		c0.8,0.4,1.3,1,0.9,1.9c-0.3,0.7-1.5,0.9-2.3,0.6c-0.4-0.2-0.6-0.5-0.7-0.9c-0.2-1-0.8-1-1.6-0.6c-0.3,0.2-0.7-0.3-1,0.1
		c0,0.2-0.1,0.4,0,0.5c1.3,3.9,3.1,7.6,4.9,11.3c0.4,0.8,0.9,1.4,1.9,1.6c0.8,0.2,0.9,0.6,0.7,1.4c-0.5,1.6-0.1,1.9,1.5,1.6
		c1.4-0.3,2.1,0.3,1.8,1.7c-0.3,1.5,0.7,2.7,0.6,4.1c0,0.6,0.6,0.8,1.1,0.1c0.3-0.4,0.6-0.8,1.2-0.5c1.4,0.7,2.8,1.2,4.5,1
		c0.4-0.1,0.8,0.4,0.9,0.9c0,0.3-0.2,0.7-0.5,0.7c-1.7-0.1-1.9,1.6-3.1,2.4c1.2,0.4,1.3,1.4,1.9,2.3c2.2-2.2,3.5-4.8,5.5-7.1
		c-0.8-0.4-1.4-0.7-2-0.9c-1.2-0.4-0.9-1.3-0.6-2.1c0.3-0.9,1-1.1,1.9-0.6c0.4,0.2,0.9,0.4,1.3,0.6c0.7,0.3,1.2,0.2,1.6-0.5
		c0.7-1.4,1.5-2.9,2.2-4.3c-1.6,2.3-3.6,2.8-6.1,1.6c-0.1,0-0.2,0-0.2,0c-2.1-0.4-2.1-0.4-2.8,1.5c-0.2,0.6-0.3,1.5-1.1,1.7
		c-1,0.2-2,0.4-3,0.4c-0.4,0-0.7-0.5-0.6-0.8c0.3-1.2,0.1-2.5,0.3-3.7c0.2-0.8,0.7-1.2,1.5-1.1c2,0.1,4-0.6,6.1,0
		c1.4,0.4,2.4-0.1,2.9-1.5c0.1-0.3,0.3-0.5,0.5-0.8c0.3-0.7,0.8-0.6,1.6-0.6c1.4,0,1,1.5,1.7,2c2-3,1.3-2.7,0.2-4.7
		c-0.4-0.8-1.4-1.3-0.8-2.4c0.2-0.4-0.3-0.6-0.7-0.8c-1.5-0.9-1.7-1.6-0.5-2.9c1.6-1.8,3.5-3.1,5.3-4.6c0.5-0.4,1-0.4,1.6-0.2
		c0.6,0.1,1.2,0.3,1.8,0.5c1.7-3.7,2.9-7.5,5-10.9c0.3-0.5,0.5-1.1,0.2-1.8c-0.3-0.7-0.3-1.3,0.8-1.4c1-0.1,1.2-0.8,1.2-1.7
		c-0.6-0.4-1,0.1-1.6,0.1c-1.2-0.1-2.2-1.1-2-2.1c0.1-0.9,1.5-1.8,2.5-1.7c0.9,0.1,1.4,0.7,2.2,1.4c-0.2-0.9-0.3-1.8,0.2-2
		c1-0.3,1-1.1,1.4-1.7c1.2-2.1,1.9-4.4,2.7-6.7c2.1-6.3,1.9-12.4-1.3-18.4c-0.6-1.1-1.1-2-2.3-2.4c-0.4-0.1-1-0.2-0.8-0.9
		c0.5-1.6-0.6-2.5-1.4-3.5c-1.3-1.8-3.1-3.1-4.5-4.8c-1.7-2.1-3.5-4-5.4-5.9c-4.6-4.7-8.8-9.8-12.5-15.2c-1.8-2.6-4-4.8-6.4-6.8
		c-3.8-2.9-7.7-5.6-11.1-9c-3.2-3.2-6.8-5.8-10.7-8c-7.4-4.3-14.5-8.9-20.2-15.4c-1.5-1.7-2.7-3.6-3.8-5.6
		c-2.4-4.6-4.2-9.4-7.2-13.6c-1.6-2.2-3.5-4.2-3.8-7.1c0-0.3-0.3-0.5-0.5-0.7c-3.8-2.6-6.5-6.3-9.8-9.4c-4.4-4-8.9-7.9-14.7-9.9
		c-3-1-6-2.3-9-3.4c-3.4-1.2-6.8-2.2-10.4-2.7c-4.5-0.6-8.2,1.2-11.8,3.6c-1,0.7-0.2,1.6-0.7,2.3c-0.6,0.9-1.7-0.5-2.3,0.5
		c-0.1,0.2-0.3,0.4-0.4,0.6c-1.3,2.2-2.9,4.2-4.1,6.5c-1.2,2.3-1.6,4.9-2.5,7.3c-1.4,4-1.8,8.2-1.9,12.4c-0.2,6.6,1.9,12.8,3.1,19.1
		c0.4,2.1,1.5,3.9,2,6c1,4.2,1.7,8.4,3,12.5c2,6.6,4.4,13,6.9,19.4c0.7,1.7,1,3.4,1.7,5.1c2.4,5.2,4.7,10.4,7.1,15.5
		c1.7,3.7,3.7,7.3,5.4,10.9c1.7,3.5,3.1,7.2,5,10.5c3.4,6,5.8,12.4,8.9,18.6c2.2,4.4,4.1,9,7.1,12.9c3.2,4.2,6.5,8.4,9.4,12.9
		c2.5,4,5.3,7.8,7.4,12C307.4,819,311.5,825.4,315.5,831.8z M382.8,797.7c-1.6,1.1-3.1,1.6-4.2,2.8c0.7,0.8,1.3,1.7,2.3,2.1
		C381.8,801.1,382.1,799.6,382.8,797.7z"/>
	<path d="M443.9,606.5c6.4-0.3,12.7-1,19-0.9c2.6,0,5.1,0.4,7.6,1.2c2.2,0.7,3.8,1.8,4.3,4.2c0.2,1.1,0.7,2.1,1.3,3
		c1,1.6,0.9,3.2-0.1,4.8c-0.9,1.4-1.9,2.6-3.3,3.6c-4.3,3.2-9.2,5.3-14.3,7c-8.7,2.9-17.6,4.6-26.5,6.5c-4.1,0.9-8.1,1.7-12.2,2.5
		c-4.3,0.8-8.7,1.1-13.1,0.6c-5-0.6-10-0.8-15-0.7c-2.5,0-5-0.4-7.3-1.5c-1.5-0.7-2.8-1.8-3.6-3.3c-2.1-4.4-2.3-8.9-0.2-13.4
		c3.3-7.1,8.8-12,15.9-15.4c3.1-1.5,6.4-2.2,9.7-2.6c12.7-1.5,25.2-4.1,37.7-6.5c8.4-1.6,16.8-3.3,25.2-4.6c7-1.1,14-1.6,21-2.4
		c6.7-0.8,13.3,0.5,19.8,1.8c3.8,0.8,7.4,2,10.9,3.5c2.6,1.2,5,2.5,6.8,4.8c1.5,2,1.9,4.2,1.6,6.6c-0.6,4.3-2.8,8-5.5,11.2
		c-5.1,6.1-10.9,11.5-18,15.3c-5.4,2.9-11.2,4.8-17.2,6.3c-7.3,1.7-14.7,3.3-22.1,4.3c-4.1,0.6-8.3,0.8-12.4,1.2
		c-5.7,0.6-11.3,2-16.9,3c-11.5,2.1-23,4.2-34.4,6.6c-5.9,1.2-11.7,2.9-17.6,4.3c-9.6,2.3-19.3,4-29.3,3.5c-4.5-0.3-9-0.8-13.4-2.3
		c-1.7-0.6-3.1-1.5-4.3-2.8c-2.4-2.8-2-5.9-0.7-9c1.7-4,4.4-7.4,7.2-10.6c4.5-5.3,10-9.4,15.7-13.4c3-2.1,5.7-4.4,8.8-6.2
		c1.2-0.7,2.4-1.2,3.7-1.3c1-0.1,1.5,0.4,1.3,1.4c-0.3,1.8-0.9,3.5-1.9,5c-1.4,2.3-2.8,4.5-4.2,6.8c-2,3.4-3.2,6.9-2.8,10.9
		c0.1,1.3,0.6,2.1,1.8,2.8c3.2,1.8,6.7,2.6,10.4,2.6c6.8,0.1,13.6-0.9,20.3-1.9c0.5-0.1,1.1-0.2,1.6-0.2c10.5,0.4,20.7-1.4,31-3.3
		c9.2-1.7,18.3-3.6,27.2-6.4c6.9-2.2,13.5-5,19.8-8.6c1.8-1,3.4-2.4,4.6-4c2.6-3.5,2.5-7.4-0.5-11c-1.4-1.7-3.2-2.7-5.2-3.4
		c-4.5-1.7-9.1-2.4-13.8-2.6C456.2,603.5,449.9,604.2,443.9,606.5z"/>
	<path d="M367.6,848.2c-1.9,4.4-2.1,8.9-1.4,13.3c0.5,3.6,0.9,7.3,3.1,10.5c0,0.1,0,0.2,0.1,0.2c3.1,3.1,4.8,7.3,7.9,10.4
		c0.8,0.8,1.6,1.4,2.7,1.7c3.6,1.1,7.2,2,10.8,2.6c2,0.3,4-0.2,6.1-1c-1.3-1-2.9-1.2-4.2-1c-2.8,0.7-5.1-0.4-7.3-1.7
		c-1.7-1-3.3-2.4-4.9-3.6c-2.4-1.7-3.7-4.1-4.7-6.8c-0.3-0.9-0.7-1.8-1.3-2.5c-1.3-1.4-1.6-3-1.7-4.9c-0.1-2.4-0.2-4.9-0.3-7.3
		c-0.1-2.9,0.2-5.9,0.4-8.9c0-0.8,0.5-1.1,1.3-1c4.8,1.2,9.8,2,14,5c3.7,2.6,7.9,4.5,12.3,5.7c3.5,1,6.9,2.4,10.6,2.9
		c2.6,0.4,4.9-0.5,7.3-1.1c3.4-0.9,6.3-2.9,9.6-4.3c4.2-1.7,8.5-3.4,12.7-5.2c1.4-0.6,2.6-1.4,3.9-2.1c7.7-3.7,14.7-8.6,20.9-14.5
		c1.3-1.3,3-2,4.7-2.5c17.4-5.3,34.4-11.7,51.9-16.7c4.9-1.4,9.6-3.3,13.9-6.1c1.4-1,3-1.9,5.3-1.9c-1,1.6-1.9,3-2.8,4.4
		c-1.6,2.6-3.7,4.9-5.8,7c-2.4,2.4-5.5,4.1-8.6,5.6c-2.3,1.1-4.8,1.9-7.3,2.6c-6.2,1.8-12.3,3.7-18.4,5.5c-2.6,0.8-5.3,1.4-7.9,2.1
		c-5.4,1.5-10.7,3.5-15.8,5.8c-3.6,1.7-6.6,4.2-9.8,6.5c-4.9,3.4-9.7,6.8-14.7,10.1c-1.4,0.9-3,1.4-4.6,1.7
		c-0.7,0.1-1.5,0.3-2.6,0.6c1.7,0.6,3,0.3,4.2,0.3c7.7,0,14.5-2.5,20.9-6.6c5.9-3.8,12-7.4,18.6-9.9c3.4-1.3,6.5-3.4,10-4.6
		c3.1-1,6.2-1.6,9.3-2.6c6-1.8,12-4.1,17.9-6.1c1.3-0.4,2.6-1,4.1-1.1c0.5,0,0.9-0.2,1.3-0.4c3.9-2.3,8.1-3.6,12.4-4.6
		c5.8-1.4,11.2-3.7,16.2-7.1c3-2,5.4-4.7,7-8.1c2-4.3,3.6-8.6,5.1-13.1c1-2.9,2.1-5.7,3.2-8.5c0.6-1.5,0.5-3.2,1.3-4.7
		c1.5-3,2.7-3,5.1-1.5c3.5,2.2,5.6,5.5,7.3,9c1.8,3.6,2.9,7.4,2.9,11.5c0,3.6-2.1,6-4.5,8.2c-5.9,5.2-12.5,9.4-19.2,13.5
		c-8.2,5-16.6,9.4-25.1,13.9c-10.9,5.8-21.6,12-32.4,18.1c-7.1,4-14.2,8-21.3,12c-0.7,0.4-1.4,0.7-2.2,0.8
		c-10.2,2-20.1,5.3-30.2,8.1c-6,1.7-12.1,3.1-18.2,4.6c-0.8,0.2-1.5,0.5-2.2,1.2c-1.1,1.1-2.7,1.5-4.2,1.9c-1.4,0.4-2.7,0.7-4.1,1
		c-8.6,1.9-17.1,3.8-25.8,5c-5.5,0.8-11.1,1.1-16.6,0.8c-1.9-0.1-3.9-0.4-5.1-2.4c-0.3-0.5-1.2-0.7-1.7-1.2
		c-9.7-7.6-15.3-17.4-15.7-29.9c-0.1-2.4,0.2-4.8,1.2-7.1c0.8-1.9,1-2.1,3.1-2.1C366.1,847.9,366.7,847.8,367.6,848.2z"/>
	<path d="M476.9,289.3c3.1-10.5,2.4-20.4-4.3-29.4c-1.6-2.1-3.5-3.4-6.2-3.9c-4-0.9-8-1.5-12.1-1.5c-2.7,0-5.3,0.5-7.8,1.5
		c-2.4,1-3.6-0.1-3.5-2.7c0.1-1.6,0.8-2.8,1.8-3.9c1.7-1.8,3.6-3.5,5.6-5c1.1-0.8,2.3-1.5,3.1-2.5c1.4-1.6,3.1-2.2,5.2-2.4
		c6.7-0.7,13.3-0.3,19.6,2.3c8.9,3.7,14.6,10.3,17.5,19.4c1.6,4.9,1.9,9.9,2.1,15c0.2,4.4,0,8.8-1.4,12.9c-2.1,6-3.8,12.1-6.3,17.9
		c-4.2,9.7-9.6,18.6-15.7,27.2c-5,7-10.6,13.6-16.3,20c-3.1,3.4-6.4,6.6-9.8,9.7c-3.3,3-6.3,6.3-9.6,9.3c-3.1,2.8-6.7,4.8-10.7,6.2
		c-0.6,0.2-1.2,0.3-1.8,0.3c-2.4,0.1-4.8,0.4-7.2,1c-3,0.8-5.6-0.3-8.1-1.6c-5.2-2.7-9.1-6.8-11.6-12.2c-0.5-1-0.8-2.1-1.7-2.8
		c-2.6-1.9-3.9-4.8-5.7-7.3c-0.1-0.2-0.2-0.5-0.3-0.6c-5-5.5-6-12.6-7.6-19.4c-0.7-2.9-1.1-5.8-1.6-8.8c-1.2-6.4-1-12.9-0.1-19.3
		c0.5-3.6,0.9-7.1,1.6-10.6c1.3-6.7,2.4-13.4,4.9-19.8c1.8-4.8,3.7-9.5,7.1-13.4c4-4.5,7.7-9.3,12.4-13.2c2.8-2.4,5.8-4.5,8.8-6.7
		c2.9-2.2,5.6-4.5,8.6-6.5c5.4-3.6,10.8-7.2,16.9-9.5c2.4-0.9,5-1.4,7.4-2.3c1.3-0.5,2.6-0.6,3.9-0.5c0.6,0,1.2,0.1,1.8-0.1
		c3-1,5.4,0.8,5,4c-0.3,2.1-1,4-2.7,5.6c-3.2,3.1-6.9,5.6-10.6,8.1c-5.2,3.4-10.4,7-15.4,10.8c-1.5,1.1-2.9,2.6-4.1,4.1
		c-4,4.8-7.7,9.9-10.5,15.5c-1.8,3.7-3.7,7.4-4.9,11.4c-1.8,6.2-3.6,12.5-3.3,19.1c0.3,6.4,1.8,12.5,5.1,18.1c1.9,3.1,4.5,4.4,8,4.1
		c4.2-0.3,8-1.8,11.3-4.2c5.6-4.1,10.4-9,14.6-14.5c2.5-3.1,4.9-6.3,6.3-10.1c0.5-1.4,1.2-2.7,1.1-4.3c-0.2-5.2-2.4-9.2-6.8-12.1
		c-2-1.3-3.9-2.3-6.3-1.7c-1.4,0.3-1.9,0.9-2,2.2c-0.2,2,0.6,3.1,2.7,2.9c1.7-0.1,3.1,0.3,4.5,1c1.4,0.6,2,1.7,1.2,3
		c-1.1,1.9-1.9,4-3.3,5.7c-2.3,2.6-5.1,3.7-8.4,2.7c-6.2-1.8-10.5-5.7-12.1-12.2c-0.7-2.6-1.5-5.1-1.4-7.8c0.1-2.2,0.6-4.3,1.7-6.2
		c1.2-2.1,2.5-4.1,4.4-5.7c3-2.6,6.6-4.3,10.3-5.3c4.9-1.4,10-1.8,15.1-1.5c3.8,0.3,7.1,1.9,10.1,4c3.9,2.7,6.1,6.6,7.7,10.9
		C474.8,278.6,475.6,284,476.9,289.3z M479.6,248.6L479.6,248.6c0-0.1,0-0.3-0.1-0.4c-3.6-2.5-7.5-4.1-11.9-4.5
		c-3.9-0.4-6.6,0.6-9.4,3.2c-0.3,0.3-0.5,0.3-0.8,0.1c-0.5-0.3-1-0.1-1.3,0.1c-2,1.1-4,2.3-5.8,3.8c0.4,0.4,0.7,0.2,1,0.2
		c4.4-0.8,8.7-0.7,13,0.8c0.8,0.3,1.6,0.6,2.5,0.7c2.7,0.3,4.9,1.5,7,3c2.9,2.1,5,4.9,6.6,8.1c1,2,2.1,3.9,2.5,6.1
		c1.4,7.6,0.1,15-2.2,22.2c-1.9,6.1-4.9,11.7-8.3,17.1c-3.2,5.1-6.4,10.2-9.1,15.6c-2.5,5-5.1,10-9.1,14.1
		c-4.4,4.4-9.4,7.7-15.3,9.7c-0.7,0.2-1.5,0.5-2.2,0.9c-2.1,1.1-4.3,1.4-6.6,1.2c-2.4-0.2-5-2.1-4.8-5.1c0.1-0.8,0-1.6,0-2.4
		c0.3-4.2,4.5-7.3,8.5-6.2c1.4,0.4,2.3,1.3,2.7,2.6c0.3,0.9-0.4,2.2-1.3,2.4c-1,0.2-1.7-0.2-1.6-1.4c0-0.4-0.2-0.5-0.5-0.6
		c-1.4-0.5-3.7,0.7-4.3,2.4c-0.5,1.4,0.1,2.4,2,3.1c0.5,0.2,1.1,0.3,1.6,0.3c4.8,0,9.1-1.3,12.7-4.6c3.1-2.8,5.9-5.9,8.3-9.2
		c3.2-4.5,6.6-8.9,9.3-13.8c3.4-6.2,6-12.7,8.9-19.1c1.7-3.7,1.6-7.6,0.6-11.4c-0.8-3.2-1.5-6.4-2.3-9.5c-1.7-7-7.3-13.6-15.5-14.1
		c-5.8-0.4-11.2,0.2-16.1,3.8c-2.3,1.7-4.5,3.6-6.5,5.7c-2.4,2.6-4.1,5.2-2.2,8.8c0.1,0.2,0.1,0.5,0.1,0.7c1.2,3.4,3.3,6.1,6.6,7.6
		c1.6,0.7,3.3,1,5,0.1c-0.2-0.3-0.2-0.4-0.3-0.4c-0.4-0.1-0.7-0.2-1.1-0.3c-3.6-1.2-5.7-3.5-5.8-7.4c0-1.8,0.1-3.6,0.6-5.3
		c0.3-1,0.8-1.6,1.8-1.9c2.9-1.1,5.7-2.1,8.5-3.4c1.8-0.8,3.4-1.5,4.7,0.7c0.1,0.1,0.3,0.2,0.4,0.3c2.3,2.4,5.5,3.5,7.8,5.9
		c0.7,0.7,0.8-0.1,1.2-0.5c0.7-0.7,1.7-0.8,2.3-0.1c0.7,0.7,0.3,1.5-0.2,2.1c-0.3,0.4-1,0.4-1.3,1c0.3,0.4,0.6,0.9,0.9,1.3
		c1.7,2.6,2.9,5.4,2.9,8.6c-0.1,2.5,0.3,5.2-2.3,6.9c-0.4,0.3-0.5,0.8-0.7,1.2c-0.4,0.7,0.3,1.2,0.2,1.7c-0.1,0.8-1.2-0.1-1.5,0.6
		c-0.1,0.3-0.2,0.6-0.4,0.9c-1.2,2-2.2,4.1-3.6,6c-4.6,6.2-9.7,11.8-15.6,16.8c-5.7,4.7-12.1,7.3-19.5,7.5c-2.5,0.1-4.7-0.7-6.8-2.1
		c-2.3-1.7-3.9-3.9-5.1-6.3c-3-6.1-4.5-12.6-4.6-19.4c-0.1-6.2,1.1-12.1,2.8-18c0.4-1.5,0.9-3,1.3-4.5c0.2-0.9,0.4-1.8,0.7-2.7
		c0.3-0.8,0.3-1.4-0.1-2.3c-0.6-1.3,1.8,0.2,1.8-1.2c0-0.1,0.1-0.3,0.2-0.4c2.4-4.4,4.9-8.7,7.7-12.9c0.5-0.8,1.1-1.5,0.1-2.4
		c-0.4-0.3-0.4-0.9,0.2-1.2c0.7-0.4,1,0.1,1,0.8c0,0.3,0.2,0.4,0.6,0.4c0.6-0.7,1.3-1.4,1.8-2.3c3-4.4,7-7.8,11.3-10.8
		c5.5-3.9,11.1-7.6,16.7-11.4c1.9-1.3,3.3-2.9,4.9-4.7c-1.1-0.3-1.9-0.3-2.7-0.1c-2.8,0.7-5.3,2-7.7,3.5c-0.6,0.4-0.7,0.7-0.2,1.3
		c0.2,0.3,0.1,0.6-0.2,0.8c-0.3,0.1-0.8,0-0.8-0.2c-0.3-1.2-0.9-0.9-1.7-0.6c-3.1,1.2-5.9,2.7-8.7,4.6c-2.3,1.5-4.4,3.2-6.7,4.7
		c-2.6,1.7-4.9,3.7-7.2,5.6c-3.1,2.5-5.9,5.3-8.9,8c-3.3,3-6.5,6.1-9.4,9.5c-3.5,4.1-4.9,9.2-6.2,14.3c-1.1,4.6-1.3,9.3-1.4,13.9
		c-0.1,4.6-0.2,9.2,0.9,13.8c0.7,2.9,1.6,5.7,2.1,8.6c0.7,4.2,1.4,8.3,2.7,12.4c0.8,2.6,1.6,5.2,2.7,7.7c1.5,3.4,3.4,6.5,5.2,9.7
		c2.9,5.1,6.5,9.4,11.2,12.7c2.2,1.6,4.6,3,7.4,3.4c5.3,0.9,10-0.8,14.6-3.2c1.5-0.8,2.9-1.8,4.4-2.6c3.2-1.8,6-4.3,8.6-6.9
		c2.1-2,3.8-4.4,5.8-6.5c3.9-4.1,7.5-8.3,11-12.8c0.7-0.9,1.8-1.4,2.4-2.5c1.2-2,2.5-4,3.8-6c1.2-1.9,2.3-3.9,3.4-5.8
		c1.2-2,2.2-4.1,3.5-6.1c1.2-1.9,1.4-4.4,3.2-6c0.1-0.1,0.1-0.3,0.2-0.4c1.4-3.1,2.8-6.3,4.4-9.3c0.6-1.2,0.8-2.3-0.2-3.3
		c2.1-1.1,3.2-3.7,2.9-6.3c-1.1,0.1-2.1,0.5-3.2,0.2c0.2-1.7,0.4-2.1,1.6-2.6c0.6-0.3,1.3-0.5,2-0.7c1-0.3,1.4-0.8,1.4-1.8
		c0.1-2.3,0-4.5-0.1-6.7c-0.2-0.4-0.4-0.1-0.7-0.1c-0.6,0.1-1.3,0.1-1.4-0.7c-0.1-0.7,0.3-1.2,1.1-1.2c1,0.1,0.8-0.6,0.7-1.1
		c-0.7-3.9-1.4-7.7-2.8-11.4c-0.2-0.5-0.5-1-1-1.3l0,0.1c-0.2-2.1-1.7-3.5-2.7-5.1c-0.5-0.8-0.9-1.5-2.1-1.4c-0.5,0-1.5-0.2-1-1.3
		c0.2-0.4-0.4-0.6-0.7-0.9C482.7,249.8,481.2,249,479.6,248.6z M424.7,373.1c-2-1.6-3.5-2.2-5.4-2.6c-0.5-0.1-0.9-0.2-1.4-0.3
		c-9.1-3.4-14.8-9.8-17-19.3c-0.2-0.9-0.5-1.8-1-2.6c-3.9-6.9-6.5-14.3-8.1-22.1c-0.8-3.7-1-7.6-2.3-11.2c-0.7-1.9-0.6-3.9-1.6-6.2
		c-0.1,1.2,0,2-0.2,2.6c-0.7,2.3-0.4,4.5,0.1,6.7c1,4.5,2,9,2.9,13.5c0.2,1,0.3,2,0.6,3c2.1,6,3,12.4,4.8,18.6
		c0.7,2.4,1,4.9,2.7,6.9c2.4,3.1,4.8,6.2,7.5,8.9c0.4,0.4,0.9,0.9,1.4,1.2C412.9,373.2,418.4,373.9,424.7,373.1z"/>
	<path d="M476.7,576.3c2.1-0.2,4.3-0.4,6.4-0.6c4.4-0.5,8.9-1,13.3-1.4c2.8-0.3,5.7,0.1,8.4,0.5c7.5,1.2,14.9,2.8,22.2,5
		c8.2,2.5,14.1,7.5,17.9,15.2c0.5,1.1,1.1,2.1,1.7,3.1c3.8,6.7,2.8,13.2-1,19.5c-2.3,3.8-5.2,7.2-7.9,10.8c-1.5,2.1-2.6,4.4-3.7,6.8
		c-3.5,7.6-5.5,15.7-7.4,23.7c-1.2,4.8-2.5,9.5-3.5,14.4c-0.6,2.9-0.8,5.9-1.3,8.8c-0.4,3-1.8,5.4-4.7,6.5
		c-3.7,1.5-7.5,2.8-11.2,4.2c-0.5,0.2-1.1,0.2-1.6,0.2c-1.2,0.1-2.1-0.5-2.5-1.7c-0.5-1.4-0.6-2.9-0.5-4.4c0.2-4.2,1.1-8.4,2.4-12.4
		c3.2-9.8,5.5-19.9,8.2-29.9c0.6-2.1,1.2-4.2,1.6-6.4c0.6-3.2,2.5-5.5,4.7-7.7c2.5-2.4,5.1-4.6,7.7-6.9c2.1-1.8,4.1-3.9,5.8-6.1
		c1.5-2.1,2.3-4.7,2.7-7.2c0.7-4.8-0.3-9.4-2.9-13.4c-2.6-4-6.3-6.6-10.9-8.1c-4.5-1.5-9.1-2.3-13.8-2.4c-2-0.1-4.1-0.3-6.1-0.3
		c-1.3,0-2.6,0.1-4,0.1c-5.2,0.1-10.3,0.5-15.4,1.4c-2.7,0.4-5.4,0.6-8.2,0.7c-5.9,0.2-11.7,0.9-17.5,1.5c-2.9,0.3-5.8,0.7-8.6,1
		c-5,0.5-9.9,1.8-14.7,3c-7.2,1.8-14.5,2.8-21.7,3.9c-5.2,0.8-10.3,1.9-15.1,4.2c-5.4,2.6-11.1,4.6-16.8,6.7
		c-3.9,1.4-7.5,3.5-10.9,6c-4.5,3.3-9.1,6.5-13.5,9.8c-5.3,3.9-10.4,8.1-14.5,13.2c-3.4,4.2-6.1,8.9-7.3,14.3
		c-0.1,0.6-0.2,1.2-0.3,1.8c-0.8,4.7,1.9,7.1,5.9,8.1c1.7,0.4,3.4,0.4,5.1,0.6c4.5,0.3,9-0.2,13.4,0.7c4.8,1,9.6,2.3,14.4,3.6
		c1.5,0.4,2.6,1.8,3.7,2.8c4.9,4.3,9.3,9.1,12.7,14.7c2.1,3.5,1.1,3.9-1.7,5.3c-3.7,1.8-7.8,2.5-11.8,2.9c-3.3,0.3-6.7,0.4-10.1,0.2
		c-4-0.2-7.1-1.7-9.9-4.5c-3-3-6.1-5.9-9.3-8.6c-2.6-2.1-5.6-3.8-8.4-5.7c-3.1-2.1-6.4-4-9.2-6.5c-2.8-2.5-5.2-5.3-6.4-8.9
		c-0.9-2.8-1.3-5.8-0.8-8.8c1.5-8.1,5.4-15,11-20.9c6.2-6.7,13.4-12.2,21-17.3c0.2-0.2,0.5-0.4,1.1-0.2c-2.9,2.5-5.1,5.5-7.6,8.2
		c-1.7,1.9-3.4,3.9-5.2,5.8c-4.4,4.5-8.1,9.5-12.4,14c-3,3.1-4.5,6.7-3.6,11.1c0.3,1.7,0,3.4,0.4,5.1c0.7,2.9,2.6,4.9,4.2,7.2
		c1,1.3,2.1,2.5,3.2,3.7c1,1,2,2.1,3.3,2.7c4.1,1.8,7.6,4.7,11.5,6.8c1.6,0.8,3.1,1.8,4.4,3.1c0.3,0.3,0.7,0.6,1.5,0.5
		c-0.9-1.9-2.2-3.3-3.8-4.2c-4-2.2-7.5-5.1-11.7-7c-1.3-0.6-2.4-1.5-3.4-2.5c-2.9-3-6-6-7-10.3c-0.8-3.2-0.9-6.5-0.4-9.7
		c0.2-1.5,1.1-2.8,2-3.9c3.5-4.1,6.8-8.4,10.4-12.4c3.8-4.2,7.3-8.6,11.1-12.7c3.1-3.3,6.7-6.2,9.6-9.7c0.5-0.6,1.3-0.9,1.9-1.3
		c8.8-4.7,17.7-9.2,27.2-12.3c8.5-2.8,17-5.5,25.7-7.3c0.4-0.1,0.7-0.2,1.1,0.2c-0.9,1-2.2,1.4-3.4,2c-1.1,0.5-2.2,1.1-3.3,1.7
		c-4.7,2.5-9.5,4.7-14.7,5.9c-2.3,0.5-4.6,1.1-6.9,1.4c-2.4,0.4-4.5,1.3-6.5,2.7c-2.7,1.9-5.6,3.4-8.4,5.1c-2.9,1.7-6,3.1-9.1,4.4
		c-1.6,0.6-2.6,1.6-3.5,2.9c-0.6,0.8-1.2,1.6-1.8,2.5c0.5,0.6,0.8,0,1.2-0.1c4.3-2,8.2-4.5,12.6-6.3c1.4-0.6,2.7-1.6,3.9-2.5
		c3-2.1,6.3-3.6,9.8-4.4c3.8-0.9,7.7-1.5,11.3-3.2c0.8-0.4,1.6-0.7,2.3-1.1c2.1-1.1,4.1-2.1,6.4-3c2.6-1,5.2-2.2,7.6-3.5
		c3.4-1.9,7-3.4,10.3-5.7c1.5-1.1,3.5-0.9,5.2-1.2c9.7-1.5,19.3-3,28.9-4.9c4-0.8,8.1-0.9,12.1,0.2c2.6,0.7,5.4,0.9,8.1,1.1
		c4.2,0.4,8.4,1.1,12.6,1.1c1.4,0,2.8,0,4.2,0c0.9,0,1.9-0.2,2.8-0.1c3.5,0.3,7,0.2,10.5-0.3c0.6-0.1,1.1-0.1,1.6,0
		c6.1,1.7,12.4,2.8,18,5.8c3.4,1.8,6.1,4.3,8.6,7.2c1.5,1.8,3.1,3.5,4,5.7c0.6,1.3,1.1,2.6,1,4c-0.1,2.9,0.2,5.7-0.3,8.6
		c-0.4,2.4-1.5,4.2-2.8,6.1c-2.3,3.2-5.2,5.8-8.3,8.3c-4.1,3.3-7.6,7.2-10.2,11.8c-0.1,0.2-0.1,0.4-0.1,0.9c2.4-1.7,4.4-3.4,6.4-5.3
		c1.1-1.1,2.3-2.1,3.4-3.3c0.6-0.6,1.3-1.2,2.1-1.5c3.9-1.5,6.4-4.6,9.1-7.6c1.2-1.3,2-2.9,2.6-4.6c1.7-4.5,2.7-9,2.3-13.8
		c-0.1-1.6-0.4-3.2-1.3-4.7c-1.4-2.3-2.7-4.6-4.1-6.8c-0.4-0.7-1-1.2-1.6-1.7c-2.1-2-4.7-3.3-6.8-5.3c-0.4-0.4-1.1-0.7-1.6-0.9
		c-4.5-1.5-8.5-3.9-13-5.4c-2.5-0.8-5.2-0.7-7.7-0.1c-5.5,1.4-11,1-16.6,0.7c-2.8-0.2-5.6-0.3-8.4-0.5
		C481.3,578.4,479,577.4,476.7,576.3z"/>
	<path d="M425.8,708.8c-4.1-0.3-8.1-0.7-12.2-0.9c-2.7-0.2-4.4-1.9-5.9-3.8c-2.2-3-4.2-6.2-6.3-9.3c-4.2-6.1-8.8-12-12.5-18.5
		c-1.7-3-3.3-6-5-9c-0.5-0.9-0.2-1.4,0.6-1.8c1.2-0.6,2.4-1,3.8-1.3c4.7-1,9.5-1.2,14.2-1.8c8.9-1.1,17.9-2.1,26.8-3.4
		c4.6-0.7,9.1-1.7,13.3-3.6c0.2-0.1,0.4-0.2,0.7-0.3c2-0.7,2.5-0.5,2.8,1.6c0.8,6.9,1.7,13.8,2.5,20.7c0.5,4,1.9,7.7,2.9,11.6
		c0.7,3,1.5,5.9,2.4,8.8c0.4,1.3,0,1.8-1,2.4c-7.6,4.8-15.8,7.8-24.8,8.5C427.2,708.8,426.5,708.7,425.8,708.8
		C425.8,708.8,425.8,708.8,425.8,708.8z"/>
	<path d="M596.9,122.1c-3.1,0-5.5-2.2-5.6-5.2c-0.1-1.4,0.8-2.5,1.7-3.4c0.4-0.5,1.1-0.5,1.6,0.2c0.8,1.1,1.8,1.1,2.9,0.5
		c1.2-0.8,2-2.2,1.7-3.3c-0.3-1.1-0.9-1.9-2.2-2.1c-2.4-0.4-4.7-0.9-6.9,0.9c-0.9,0.8-2.3,0.6-3.4,0.5c-6.9-0.5-13.1,1.5-19.1,4.8
		c-7.2,4-13.9,8.8-20,14.3c-3.3,3-6.3,6.3-9,9.9c-4.4,5.7-8.6,11.6-12.2,17.9c-3.5,6.1-6.8,12.2-10.2,18.3
		c-4.7,8.3-9.3,16.7-14.2,24.9c-4.1,6.9-9.5,12.7-16.3,16.9c-2.6,1.6-5.5,2.5-8.6,2.8c-0.6,0.1-1.1,0-1.6-0.2
		c-1.3-0.4-1.7-1.2-1.3-2.5c0.3-0.9,0.9-1.5,1.5-2.1c3.9-3.8,7.6-7.7,10.9-12c4.8-6.2,9.1-12.7,12.7-19.7c5.1-10,9.4-20.3,14.3-30.4
		c4.2-8.8,8.6-17.4,15-24.9c7.4-8.6,16-15.6,25.7-21.4c6.2-3.7,12.8-6.6,19.9-8.4c3.9-1,8-1.8,12-2.2c3.6-0.4,7.2,0.4,10.6,1.5
		c3.9,1.2,7.6,2.9,10.6,5.8c2.4,2.3,3.3,5.1,2.6,8.3C608.8,116.9,602.1,122.1,596.9,122.1z"/>
	<path d="M427.6,156.4c-0.1-2.6,0.5-5.8,0-9c-0.6-3.8-0.4-7.7-0.5-11.5c-0.1-4.3,0.5-8.4,1.8-12.5c2.9-8.8,5.1-17.9,7.7-26.8
		c3.3-11.4,7.2-22.5,12.6-33.1c4.3-8.3,9.6-16,15.6-23.1c3.7-4.4,8.3-7.6,13-10.7c6.7-4.6,13.8-8.6,21-12.4c0.7-0.4,1.4-0.8,2.2-0.8
		c2.6,0,5.2-0.1,7.7,0c5.8,0.4,8.2,3.5,7.9,9.7c-0.3,5.3-4.3,10.2-10.4,10.6c-0.6,0.1-1.2,0-1.9-0.1c-1.2-0.2-2.1-0.8-2.3-2
		c-0.3-1.4,0.3-2.8,1.4-3.4c0.7-0.4,1.4-0.7,2.1-1c1.4-0.6,2.4-1.5,2.9-2.9c0.8-2.2-0.5-4-2.8-4.2c-2.5-0.2-4.3,0.9-5.4,3
		c-0.9,1.7-2.2,2.4-3.9,3c-4.3,1.4-8,4-11.5,6.7c-6.9,5.5-12.2,12.4-17.3,19.4c-5.7,7.8-10.6,16.1-14.9,24.8
		c-4,8.2-7.3,16.6-10,25.3c-2,6.4-3.8,12.8-4.9,19.3c-0.6,3.6-1,7.3-1.3,10.9c-0.4,5.2-0.5,10.5-0.5,15.7c0.1,4.9,1,9.6,2.5,14.3
		c2.4,7.8,4.4,15.7,6,23.6c1.3,6.4,3.8,12.3,7.8,17.4c1.3,1.7,2.1,3.7,3.1,5.5c0.5,0.9,0.7,1.9,0.8,2.9c0.3,2.6-0.6,4-3.1,4.8
		c-0.4,0.1-0.9,0.1-1.4,0.3c-1.2,0.6-1.8,0-2.4-1c-2.2-4.2-4.4-8.3-6.7-12.4c-3.3-6-6.8-11.8-9.4-18.2c-2.6-6.5-5-13.1-5.5-20.3
		C427.8,164.6,427.6,160.8,427.6,156.4z"/>
	<path d="M457.7,826.9c-0.2-0.1-1-0.1-1.6-0.4c-0.7-0.3-1.1-0.9-1-1.7c0.6-5.8,1.1-11.6,1.7-17.5c0.4-4.6,0.7-9.2,1.1-13.8
		c0.4-5.2,0.9-10.4,1.3-15.6c0.1-1.3,0.6-1.9,1.9-2.1c6-1.2,11.9-2.5,17.9-4.1c4.1-1.1,8.1-2.4,11.9-4.3c2.3-1.2,3.4-0.8,4.5,1.7
		c3.9,8.2,7,16.8,9.9,25.3c0.8,2.4,2.3,4.5,3.4,6.7c0.9,1.8,1.8,3.6,2.2,5.7c0.2,1-0.1,1.6-1.1,1.9c-8.8,2.5-17,6.8-25.4,10.3
		c-2.1,0.9-4.3,1.4-6.5,1.9c-5.5,1.3-10.8,3-16.1,5.2C460.6,826.5,459.4,826.8,457.7,826.9z"/>
	<path d="M373.7,118.3c0.1-10.4,2.1-20.5,5.7-30.3c1.6-4.3,3.4-8.4,5.9-12.3c2.1-3.2,4.5-5.8,8.2-7.1c0.7-0.2,1.3-0.5,2-0.8
		c4.4-1.8,10.9,0.1,13.6,4c1.8,2.6,1.8,7.1-0.7,8.8c-1.6,1.1-3.4,2.4-5.6,2.7c-0.9,0.1-2.3-0.9-2.9-2c-1.4-3.1-4-3.7-6.7-1.6
		c-1.5,1.2-2.3,2.8-2.7,4.7c-0.6,2.7-0.9,5.5-1.8,8.2c-1.7,4.7-2.5,9.7-3,14.7c-0.5,5.2-0.6,10.3-0.3,15.5
		c0.5,7.1,1.8,14.1,4.5,20.8c2.4,5.9,5.5,11.4,7.8,17.4c1.6,4.3,3.3,8.6,5.2,12.8c3.2,7,8.1,12.6,14.3,17.1
		c3.8,2.8,7.6,5.5,11.2,8.6c5.1,4.4,8.8,9.7,10.5,16.3c0.2,0.6,0.4,1.2-0.4,1.6c-0.7,0.4-1.5,0.5-1.9,0c-2.5-3.2-6.5-4-9.9-5.5
		c-2.7-1.2-5.1-2.9-7.4-4.6c-7.1-5.3-14.1-10.7-20.5-16.8c-8-7.5-13.8-16.4-17.8-26.5c-1.4-3.4-1.9-7.1-2.2-10.8
		c-0.5-5.6-1.7-11.1-2.7-16.7c-0.8-4.7-2-9.3-2.5-14.1C373.5,121.1,373.7,119.7,373.7,118.3z"/>
	<path d="M459.6,206.6c0.2-10.4,0.8-20.8,2.6-31.1c1.5-8.3,3.5-16.5,5.3-24.8c1.1-5,2.3-10.1,3.8-15c1.9-6.3,4.5-12.4,7.5-18.2
		c5.2-10.1,11.2-19.7,17.3-29.3c2.2-3.4,4.6-6.7,7.4-9.7c2.7-3,6.2-5.3,9.4-7.8c7.2-5.7,15.5-9,24-12.3c1.7-0.6,3.3-0.3,4.8,0.2
		c3,1,5.7,2.3,6.6,5.7c0.5,2,0.1,3.9-1.4,5.4c-1,1.1-2,2.2-3.5,2.7c-1.5,0.5-3.1,0.7-4.5-0.4c-0.6-0.5-0.9-1-0.5-2
		c1.1-2.4,0.4-4.2-1-5.3c-0.8-0.6-1.7-0.8-2.6-0.7c-2,0.3-4.4,3.2-4.2,5.3c0.1,0.8-0.1,1.1-0.7,1.4c-9.6,4.6-16.7,11.8-22.5,20.5
		c-5.4,8.1-10.8,16.4-15.6,24.9c-3.8,6.7-7.4,13.7-9.7,21.1c-1.3,4.1-1.9,8.4-2.8,12.6c-1.2,5.9-2.4,11.8-3.6,17.7
		c-1,4.9-1.5,9.9-1.9,14.9c-1,11.6-2.1,23.2-5.6,34.4c-0.4,1.3-0.9,2.5-1.7,3.6c-0.4,0.6-0.9,1.1-1.5,1.4c-1.8,1-2.9,0.8-3.8-1.1
		c-1.1-2.3-1.5-4.8-1.5-7.3C459.6,211.2,459.6,208.9,459.6,206.6z"/>
	<path d="M499.3,680.4c-0.8,5.7-0.2,11.3-0.8,16.9c-0.3,2.5-0.1,5-0.2,7.5c-0.2,5.9-0.4,11.7-1.3,17.5c-0.2,1.3-0.6,2.3-1.9,3
		c-5.4,2.8-10.6,5.6-16,8.5c-1.1,0.6-2.2,0.8-3.4,1c-2.2,0.2-3.1-0.4-3.7-2.6c-2.7-10.8-5.5-21.6-8.1-32.4c-1.1-4.7-3.1-9.2-4-14
		c-0.5-2.5-0.9-5.1-0.7-7.7c0.1-1.5,0.7-2.3,2.1-2.6c3.2-0.9,6.4-1.4,9.7-1.7c5.5-0.5,10.9-1.1,16.3-1.6c2.6-0.3,5.1-1,7.5-2
		c1.9-0.8,2.3-0.5,3.1,1.4C499.2,674.5,498.7,677.6,499.3,680.4z"/>
	<path d="M316.7,125.8c-0.7-1.3-0.6-2.6-0.7-3.8c-0.3-2.3-0.8-2.8-2.5-3.1c-1.6-0.3-3.3,0.6-4.2,2c-1.3,2.1-1.5,4.6-2.1,6.9
		c-0.6,2.6-0.4,5.1-0.5,7.7c0,1.8,0.1,3.6,0,5.4c-0.3,3,0.6,5.7,1.9,8.3c0.6,1.1,1,2.3,1.2,3.5c1.3,7,3.4,13.7,6.5,20
		c3.7,7.5,7.2,15.1,11.6,22.3c3.1,5.1,6.6,9.8,11.8,12.9c3.4,2,5.9,4.9,8.3,7.9c3,3.6,6.8,5.9,11,7.9c6.6,3.1,13.4,5.2,20.6,6.4
		c4,0.7,8.1,0.5,12.2-0.1c4.3-0.6,8.5-1.5,12.7-2.6c5.3-1.3,10.6-2,16-2.5c3.1-0.2,6-1,9-1.6c2.7-0.5,5.3-0.8,7.9,0
		c0.5,0.1,1.2,0,1.3,0.7c0.1,0.8-0.1,1.6-0.8,2.1c-0.8,0.6-1.6,0.9-2.6,1.2c-2.4,0.6-4.8,1.3-7.3,1.9c-10.6,2.4-21.2,4.9-31.9,7
		c-8.4,1.6-16.9,2.3-25.4,0.6c-6.4-1.3-12.3-3.8-17.8-7.1c-9.8-5.9-18-13.6-25.2-22.3c-5.2-6.2-9.8-12.8-14.3-19.5
		c-1.6-2.3-3.2-4.7-4.7-7c-3.9-6.1-5.9-12.9-7.6-19.9c-2-7.6-3.2-15.3-3.2-23.2c0-9.2,3-17.3,8.4-24.7c0.8-1.1,1.9-2,3.1-2.9
		c2.2-1.5,4.2-0.4,6.2,0.6c2,1.1,3.6,2.8,4.7,4.8c1.6,2.9,0.5,6.8-1.4,9.2C318.2,125.7,317.5,125.7,316.7,125.8z"/>
	<path d="M520.3,805.3c-1.3,0-2.2-0.4-3-1.3c-3-3.5-4.8-7.7-6.9-11.7c-1.4-2.7-2.5-5.6-3.4-8.5c-0.3-1.1-0.2-1.7,0.6-2.5
		c1.8-1.7,4-2.9,6.3-3.6c9.1-2.9,16.6-8.7,24.5-13.8c2.9-1.9,5.7-3.9,8.5-5.9c0.8-0.5,1.4-0.5,2.2-0.1c1,0.6,2.1,1,3.1,1.7
		c6.2,4.1,12.4,8.2,18.1,13c2.1,1.7,2.1,2.1,0.4,4.1c-1.9,2.2-4.3,3.5-6.8,4.9c-5.3,2.9-10.1,6.5-15.2,9.8c-6.3,4-12.7,8-19.5,11.3
		C526.3,804.1,523.4,805.1,520.3,805.3z"/>
	<path d="M464.8,737.6c0,1.9-0.5,3.3-2.1,4.4c-5.6,3.7-11.6,6.5-18.1,8.2c-1.3,0.3-2.6,0.5-3.9,0.5c-2.9,0-5.1-1.3-6.6-3.7
		c-1.6-2.5-3.1-5.1-4.4-7.8c-2.8-6-6-11.7-9.8-17.1c-1.3-1.9-2.5-4-3.4-6.2c-0.3-0.7-0.5-1.3-0.6-2c-0.1-1,0.1-1.6,1.3-1.7
		c3.4-0.2,6.9-0.5,10.3-0.9c7.1-0.8,14.1-2,20.9-4.1c1.4-0.5,2.7-1.2,4.1-1.8c1.6-0.7,2.1-0.5,2.6,1.2c1,3.1,1.8,6.1,2.5,9.3
		c0.7,3.3,2,6.2,3.3,9.2c1.7,3.7,3.3,7.4,3.8,11.5C464.7,737,464.8,737.4,464.8,737.6z"/>
	<path d="M439,220.6c-1.9,0.5-3.4,0-4.8-0.1c-4.3-0.3-8.4,0.9-12.6,1.1c-5,0.3-9.9,1.2-15,1.1c-2.4-0.1-4.7-0.2-7-0.8
		c-3-0.7-6-1.3-8.9-2.1c-5.1-1.4-9.6-4.2-14.2-6.7c-2.4-1.3-4.8-2.7-7-4.3c-2.5-1.7-4.5-3.8-6.3-6.3c-6.7-9.5-10.3-20.3-13.2-31.4
		c-2.9-11.3-5.5-22.6-7.8-34.1c-1.1-5.4-1.4-10.8-1.2-16.3c0.2-4.6,0.8-9.2,2-13.7c0.6-2.2,1.6-4.2,3-6.1c1.4-1.9,2.6-2.1,4.6-1
		c2,1,3,2.6,3.4,4.8c0.6,3.4-0.7,6.7-3.4,8.2c-0.4-0.5-0.2-1-0.2-1.6c-0.1-1.3-0.8-2-1.8-2c-1.1-0.1-1.9,0.6-2.1,1.5
		c-0.9,3.6-1.6,7.1,1.1,10.3c0.3,0.4,0.5,0.8,0.5,1.3c0,5.8,1.7,11.4,2.5,17.1c0.5,3.3,1,6.7,1.2,10c0.2,3.6,1.2,7,2.8,10.1
		c2.1,4,3,8.4,3.9,12.7c0.9,4.6,2.7,8.8,5.1,12.8c2.2,3.8,4.6,7.5,7.7,10.6c3.2,3.2,6.7,5.9,10.6,8.2c8.6,5.2,17.9,8.5,27.8,10.4
		c8.1,1.6,16.4,2.6,24.5,4.2C435.7,219,437.2,219.5,439,220.6z"/>
	<path d="M454.5,781.1c0.1,4.6-0.2,8.3-0.8,11.9c-0.2,1-0.6,1.6-1.5,2.1c-4.9,2.5-10.1,3.7-15.5,4.3c-3.5,0.4-7,0.5-10.5,0
		c-2.1-0.3-4.1-0.9-6.1-1.8c-0.8-0.3-1.2-0.9-1.4-1.7c-0.7-2.9-0.1-5.8,0.3-8.6c0.4-3.1,1.1-6.2,1.9-9.2c0.9-3.4,1-6.8,1.3-10.2
		c0.3-3.1,0.3-6.2,0.7-9.3c0.1-0.8,0.4-1.1,1.1-1.2c0.9-0.1,1.9-0.3,2.8-0.3c3.1-0.1,6.3-0.1,9.4-0.2c3.8-0.1,7.5-0.2,11.1-1.4
		c2-0.7,3.5,0.4,4,2.4c1.4,6,2.7,12,3.2,18.2C454.6,778,454.3,780,454.5,781.1z"/>
	<path d="M453.6,807c-0.1,5.1-0.8,10.5-1.8,15.8c-0.3,1.5-0.8,2.9-1.2,4.3c-0.5,1.6-2,2.4-3.4,2.9c-1.6,0.6-3.3,0.9-5,1.1
		c-6.4,0.9-12.6,2.6-18.9,3.8c-5.9,1.1-11.9,1.8-18,0.8c-0.5-0.1-0.9-0.2-1.4-0.3c-1.1-0.2-1.4-0.8-1.1-1.9c0.5-2.4,1.7-4.5,2.9-6.7
		c3.7-6.7,6.5-13.7,9.3-20.7c0.3-0.7,0.6-1.4,0.9-2.1c1.4-2.8,2.6-3.3,5.7-2.6c1.8,0.4,3.6,1,5.5,1.3c3.6,0.6,7.2,0.3,10.8-0.1
		c4-0.4,8.1-1,11.9-2.4c0.8-0.3,1.5-0.3,2.3-0.1c1,0.2,1.5,0.7,1.5,1.8C453.6,803.5,453.8,805.1,453.6,807z"/>
	<path d="M495,743.9c0-3,0.5-3.7,2.8-4.8c3-1.3,6.1-2.3,8.9-4.2c1-0.7,2.1-1.4,3.1-2.1c1.8-1.4,1.8-1.4,3.8,0
		c2.2,1.6,4.2,3.5,6.3,5.3c2.9,2.6,6.3,4.4,9.5,6.5c3.8,2.6,7.8,5,11.2,8.1c0.6,0.6,1.2,1.2,1.8,1.8c1,1.1,1,1.5-0.3,2.4
		c-2.1,1.5-4.2,3.1-6.3,4.5c-5.9,4-11.8,8-18.2,11.1c-3.2,1.6-6.4,2.8-10,3.3c-1.4,0.2-2.3-0.2-2.9-1.4c-0.4-0.8-1-1.6-1.3-2.5
		c-2.3-6.8-5.3-13.4-7.1-20.4C495.5,749,495.4,746.3,495,743.9z"/>
	<path d="M362.5,694.8c7.1,0.3,13.6-1.5,20.3-2.2c1.8-0.2,3.6-0.5,5.4-0.6c3.6-0.1,6.4,1.5,8.4,4.3c4.5,6.3,9.1,12.6,13.2,19.1
		c2.2,3.5,4.4,7,6.3,10.7c0.9,1.7,2,3.4,3.4,4.8c1.1,1.1,0.8,1.8-0.7,2c-5.4,0.5-10.8,1.6-16.3,1.9c-4,0.2-7.4-1-10.1-3.9
		c-3.4-3.7-7-7-9.4-11.6c-1.2-2.3-2.9-4.6-5.3-6.1c-1.5-0.9-2.5-2.4-3.5-3.7c-2.6-3.6-5.8-6.6-8.9-9.7
		C364,698.5,362.8,697,362.5,694.8z"/>
	<path d="M455.6,662.6c0.3-2.3,0.4-5.1,0.5-7.9c0-1.3,0.9-1.9,1.9-2.5c2.1-1.2,4.4-1.7,6.7-2.2c10-2.1,20-4.4,29.8-7.5
		c3.1-1,6.1-2.4,9.1-3.9c0.3-0.1,0.5-0.4,0.8-0.5c1.3-0.6,1.9-0.2,1.7,1.2c-0.4,4.7-1.6,9.2-2.9,13.8c-0.7,2.6-1.5,5.3-2.5,7.8
		c-1,2.7-2.9,4.1-5.4,5.1c-2.6,1.1-5.3,1.8-8.2,2c-7.2,0.6-14.3,1.9-21.4,3c-0.9,0.1-1.9,0.1-2.8,0.1
		C458.1,671,455.5,668.7,455.6,662.6z"/>
	<path d="M389.1,835.2c-3.8,0-7.5-0.5-11.1-1.5c-0.9-0.2-1.9-0.5-1.2-1.8c-0.9-2.8,0.9-4.6,2.4-6.4c3-3.5,5.3-7.5,7.1-11.7
		c1-2.4,2.6-4.5,4.1-6.5c5.2-7.1,8.4-15.2,12.1-23c0.8-1.6,1.1-3.4,1.7-5.1c0.3-0.9,0.7-1.7,1.1-2.6c0.7-1.2,1.7-1.6,2.9-1.5
		c2.5,0.3,5.1,0.5,7.5,1.6c1,0.5,1.2,1,1,1.9c-1.6,10-4,19.7-7.9,29.1c-3.5,8.4-7.8,16.4-11.9,24.5c-1.1,2.1-2.7,2.9-4.9,3.1
		C391.1,835.2,390.1,835.2,389.1,835.2z"/>
	<path d="M457,761.4c-0.2-2,0.1-4.2,0.4-6.3c0.2-1.6,0.9-2.6,2.7-3c3.6-0.8,7.1-1.8,10.7-2.8c5-1.3,9.9-3,14.5-5.4
		c0.8-0.4,1.5-0.7,2.5-0.5c0.7,0.1,1.2,0.4,1.3,1.1c1,4.3,2.9,8.3,3.5,12.6c0.1,0.8,0.1,1.7,0.1,2.6c0,1.7-0.7,2.8-2.5,3.5
		c-6.1,2.3-12,5-18.3,6.7c-3,0.8-6.1,1.4-9.3,1.3c-0.7,0-1.4,0-2.1-0.2c-3.3-0.9-2.9-1.1-3.2-3.5C457,765.5,456.9,763.5,457,761.4z"
		/>
	<path d="M457.9,836.3c-2.7,2.1-5.1,4.2-7.7,6.2c-1.3,1-2.9,1.6-4.4,2.2c-3.6,1.4-7,3.1-10.5,4.7c-2.9,1.3-6,2.2-9,3.4
		c-1.3,0.5-2.4,1.1-3.6,1.7c-3.7,1.9-7.7,3-11.9,3.1c-2.5,0.1-4.7-1.1-7-1.7c-4.4-1.2-8.7-3.1-12.6-5.5c-0.6-0.4-1.3-0.6-1.6-1.5
		c1-0.2,2-0.4,3-0.4c6.3-0.2,12.5-1.1,18.7-1.2c3.8-0.1,7.4-1.1,11.1-1.9c11.4-2.6,22.7-5.5,33.9-8.7
		C456.8,836.5,457.3,836.4,457.9,836.3z"/>
	<path d="M401.3,737c5.3,0.4,10.6,0,15.9-0.6c3.7-0.4,6.8,1.6,9,4.6c1.5,2.1,2.6,4.4,3.4,6.9c0.3,0.9,0.2,1.4-0.8,1.8
		c-4.9,2.1-9.7,4.3-15.2,4.7c-2.6,0.2-4.8-0.3-6.5-2.5c-0.7-0.9-1.5-1.8-2.1-2.8c-0.4-0.7-0.9-1.3-0.6-2.5c0.3-1.1-0.7-2.3-1.6-3.2
		c-1.3-1.2-2.2-2.8-3.3-4.2c-0.4-0.4-0.9-1-0.6-1.7c0.3-0.8,1.1-0.4,1.6-0.5C400.8,737,401.1,737,401.3,737z"/>
	<path d="M502.6,708.7c0-2.3,0-4.5,0-6.8c0-1.4,0.6-2.4,2.1-3c3.1-1.2,6.1-2.8,9.1-4.4c0.5-0.3,1-0.5,1.5-0.7
		c1.9-0.4,2.9,0.4,2.8,2.3c-0.5,6.1-1.6,12.1-4.5,17.6c-0.9,1.7-2,3.2-3.4,4.4c-1.7,1.4-3.6,2-5.9,1.3c-1-0.3-1.1-0.7-1.3-1.6
		C502.5,714.8,502.8,711.7,502.6,708.7z"/>
	<path d="M569.3,788c0,0.4,0.1,0.6,0.1,0.8c-1.5,4.6-2.9,9.2-5.5,13.4c-0.4,0.7-0.9,1.2-1.5,1.8c-0.4,0.4-1,0.8-0.4,1.5
		c0.4,0.4-0.1,0.7-0.3,1c-1.3,2.4-3.4,4.1-5.5,5.7c-4.8,3.7-10.6,5-16.5,7.1c0.6-2.2,2-3.7,2.8-5.4c1.1-2.4,2.4-4.7,3.5-7.1
		c0.6-1.2,1.4-2.2,2.7-2.8c4.4-2,8.6-4.5,12.2-7.8c1.9-1.7,3.8-3.5,5.5-5.4C567.2,789.7,568.1,788.8,569.3,788z"/>
	<path d="M407,767.8c0.2-3.2,0.4-6.4,1.9-9.3c0.6-1.2,1.3-1.6,2.6-1.2c1.6,0.4,3.2,0.6,4.8,1.2c1.4,0.6,2.2,1.6,2,3.1
		c-0.3,3.5-0.4,7-1.3,10.4c-0.6,2.4-1.3,2.8-3.7,2.4c-1.2-0.2-2.4-0.6-3.6-0.9c-2.2-0.6-2.7-2-2.7-4C407,768.9,407,768.4,407,767.8z
		"/>
	<path d="M557.6,480.6c0,0.1,0,0.2-0.1,0.2c-0.2,0.5-0.3,1.1-1.1,0.9c-0.1,0-0.2-0.4-0.2-0.6C556.4,480.1,557.1,480.6,557.6,480.6
		C557.6,480.7,557.6,480.6,557.6,480.6z"/>
	<path d="M315.5,831.8c0.1-0.2,0.3-0.4,0.4-0.5c0.4-0.6,1-0.5,1.4,0c0.5,0.7-0.3,0.8-0.8,1c-0.1,0.1-0.3,0.1-0.5,0.1
		C315.9,832.2,315.7,832,315.5,831.8z"/>
	<path d="M592.2,568.6c-0.5-0.1-1.2-0.1-1.9-0.2c-0.9-0.1-1.5-0.5-1.7-1.5c-0.2-1.2-0.1-2.2,0.8-2.9c0.5-0.4,1.2-0.7,1.9-0.2
		c0.7,0.5,1.4,0.9,1.9,1.6c0.9,1.3,1,1.3,2,0.3c0.4-0.4,0.7-0.9,1.3-0.5c0.4,0.2,0.6,0.5,0.6,0.9c0.1,0.7-0.3,1.2-0.9,1.5
		C595.1,568.1,593.8,568.5,592.2,568.6z"/>
	<path d="M568.8,652c0.8,0.2,1.7,0.3,1.9,1.2c0.2,0.6-0.4,1.1-0.9,1.5c-0.2,0.2-0.5,0.4-0.8,0.5c-1.3,0.5-2.2,1.3-2.7,2.7
		c-0.2,0.7-0.7,1.4-1.7,1.2c-0.8-0.2-1.6-0.5-1.7-1.3c-0.2-0.9,0-1.9,0.9-2.3c1.6-0.7,2.8-1.9,4-3.1C568,652.1,568.4,652,568.8,652z
		"/>
	<path d="M573.7,638.1c0-0.8-0.2-1.2-0.1-1.7c0.2-0.8,0.6-1.6,1.5-1.4c0.8,0.1,1.8,0.3,1.8,1.5c0,1.1,0.1,2.2,0.3,3.2
		c0.2,1-0.5,1.6-1.3,2c-0.8,0.4-1.8,0-1.9-0.9C573.9,639.8,573.6,638.8,573.7,638.1z"/>
	<path d="M591.7,574.7c0.8-0.1,1.9,0.5,2.8-0.6c0.2-0.3,0.8-0.1,1,0.2c0.4,0.4,0,0.7-0.3,1c-1.1,0.9-2.2,1.8-3.3,2.6
		c-0.6,0.4-1.4,0.6-2.2,0.4c-1-0.2-1.6-1-1.5-2.1c0.1-1.1,0.7-1.6,1.9-1.6C590.6,574.5,591,574.6,591.7,574.7z"/>
	<path d="M535.4,714.4c0.6,0,1.2,0.1,1.7,0.6c0.6,0.6,1.3,1.2,2,1.6c0.9,0.6,0.7,1.2,0.4,2c-0.4,1-1,0.7-1.7,0.6
		c-1.4-0.3-2.6-1-3.6-2c-0.5-0.6-0.5-1.3-0.3-2C534,714.4,534.7,714.4,535.4,714.4z"/>
	<path d="M554.5,672.2c-0.8-0.2-1.7-0.1-2-0.9c-0.3-0.7-0.1-1.5,0.5-2.1c1.2-1.4,2.3-1.8,3.3-1.1c1.5,0.9,1.5,2.8-0.1,3.7
		C555.7,671.9,555.1,672,554.5,672.2z"/>
	<path d="M593.4,545.9c0-1.5,0.5-2,1.7-2c2,0,2.7,0.6,2.7,2.1c0,1.3-0.8,2.2-1.9,2.2C594.3,548.4,593.4,547.5,593.4,545.9z"/>
	<path d="M554.5,738.1c-0.1,0-0.2,0-0.2,0c-1.5-0.2-2.3-0.7-2.2-1.5c0.1-1.2,1.3-2.3,2.5-2.3c1.8,0,2.2,0.3,2.2,1.9
		C556.8,737.5,556,738.2,554.5,738.1z"/>
	<path d="M595.4,717.1c0,1.5-0.8,2.4-1.9,2.4c-1.4,0-2-0.5-2-2c0-1.5,0.5-2.4,1.6-2.4C594.4,715.1,595.4,715.9,595.4,717.1z"/>
	<path d="M598.2,551.2c0,1.5-0.5,1.9-2,1.8c-1.4,0-2.2-0.7-2.2-1.9c0-1,1.1-2,2.2-2C597.6,549.3,598.2,549.9,598.2,551.2z"/>
	<path d="M538.8,675.9c0.1-1.4,0.6-2.3,1.4-2.3c1.2,0,2.4,1.3,2.3,2.5c-0.1,1.2-0.9,1.8-2,1.8C539.3,677.8,538.8,677.2,538.8,675.9z
		"/>
	<path d="M515.5,903.2c-0.1,0.6-0.8,1-1.1,0.6c-0.9-0.9-2-0.9-3.1-1.3c-0.9-0.4-0.8-1.1-0.5-1.8c0.3-0.8,0.8-1.3,1.8-1.1
		C513.4,899.9,515.4,902.3,515.5,903.2z"/>
	<path d="M521.3,886.7c0-1.1,0.5-1.7,1.5-1.7c1.3,0,2.3,1,2.3,2.2c0,1-1,1.8-2.1,1.7C521.9,888.8,521.3,888,521.3,886.7z"/>
	<path d="M551.8,732.2c-1,0.7-2.1,0.9-3.2,1.2c-1,0.3-1.7-0.3-2.1-1c-0.4-0.6-0.3-1.5,0.5-1.8c1.1-0.4,2.1,0.3,3.2,0.4
		C551,731.2,551.6,731.3,551.8,732.2z"/>
	<path d="M534,704.6c-0.3,0.5,0,1.5-1,1.6c-0.9,0.1-1.7-0.1-2-1.1c-0.3-0.8,0.2-2.8,1-3.4c0.5-0.4,1-0.3,1.3,0.3
		C533.8,702.7,533.7,703.7,534,704.6z"/>
	<path d="M598.4,531.8c0.9,0,2.1,1,2.2,1.8c0.1,0.9-0.9,1.7-2.1,1.7c-0.8,0-1.9-0.9-1.9-1.7C596.6,532.7,597.5,531.8,598.4,531.8z"
		/>
	<path d="M705.5,679.9c0,1-0.8,1.8-2,1.8c-0.9,0-1.7-0.9-1.7-1.8c0-0.9,0.9-1.7,1.9-1.6C704.8,678.3,705.5,678.9,705.5,679.9z"/>
	<path d="M539.3,697.2c0,1-0.7,2-1.5,2.1c-1.3,0.1-2.3-0.8-2.3-1.7c0-0.7,0.9-1.7,1.6-1.7C538.1,695.8,539.2,696.6,539.3,697.2z"/>
	<path d="M568.8,737.5c1,0,2.3,0.8,2.4,1.6c0.1,0.8-0.8,1.9-1.7,1.9c-0.9,0-1.8-1-1.8-2.1C567.6,738.1,568,737.6,568.8,737.5z"/>
	<path d="M593.9,767.1c0,1.1-0.9,2.1-1.7,2.1c-0.8,0-1.6-0.7-1.6-1.6c0-1,0.8-2,1.5-2C593.1,765.7,593.9,766.4,593.9,767.1z"/>
	<path d="M578.9,624.8c-1.4,0.1-1.9-0.7-1.5-1.9c0.3-0.9,1-1.6,1.7-2.2c0.5-0.4,1.4-0.1,1.3,0.6c-0.1,1.2-0.5,2.3-1.1,3.3
		C579.3,624.7,579,624.8,578.9,624.8z"/>
	<path d="M554,661.8c-0.6,0-1.8-0.9-1.9-1.5c-0.1-0.8,0.9-2,1.6-2c0.7,0,1.8,0.8,1.9,1.5C555.7,660.4,554.7,661.7,554,661.8z"/>
	<path d="M256.8,407c0,1.5-0.4,2.7-1,3.8c-0.2,0.4-0.5,0.8-1.1,0.6c-0.7-0.2-0.6-0.7-0.5-1.3C254.7,407.6,254.8,407.4,256.8,407z"/>
	<path d="M532.2,699.3c0,0.7-0.4,1-1.1,1c-1,0-2.3-0.9-2.4-1.6c-0.1-0.7,0.8-1.5,1.5-1.5C531.1,697.2,532.1,698.4,532.2,699.3z"/>
	<path d="M611.3,440.7c0,0.8-0.8,1.7-1.7,1.7c-0.8,0-1.5-0.4-1.4-1.2c0-0.7,0.1-1.6,1.1-1.8C610.1,439.2,611.3,440.1,611.3,440.7z"
		/>
	<path d="M532.9,266.4c-0.5-0.1-1.1-0.1-1.6-0.2c-0.8-0.2-1-0.8-0.8-1.5c0.1-0.6,0.6-0.8,1.3-0.7c0.5,0.2,1.1,0.2,1.6,0.4
		c0.5,0.2,1.1,0.3,1,1.1C534.1,266.4,533.5,266.5,532.9,266.4z"/>
	<path d="M252.5,412.5c0,0.4-1.7,2.6-2.2,2.6c-0.5,0-1.2,0-1-0.8c0.3-0.9,0.6-1.7,1-2.6c0.3-0.6,0.8-0.3,1.2-0.2
		C252,411.7,252.4,411.9,252.5,412.5z"/>
	<path d="M697,660c-0.3,0.6-0.1,1.5-1.1,1.6c-1,0.1-2.2-0.6-2.1-1.3c0.1-0.8,0.6-1.5,1.5-1.5C696,658.8,696.8,659.1,697,660z"/>
	<path d="M519.6,888.1c-0.1,0.9-1,1.9-1.7,1.8c-0.9-0.1-1.3-0.8-1.3-1.7c0.1-0.9,0.6-1.3,1.6-1.2C519.1,887,519.6,887.4,519.6,888.1
		z"/>
	<path d="M586.4,607.9c0,0.8-0.7,1.5-1.6,1.4c-0.8-0.1-1.7-0.2-1.6-1.3c0.1-0.7,0.2-1.7,1.3-1.5
		C585.4,606.6,586.4,606.7,586.4,607.9z"/>
	<path d="M588.5,591.1c-0.7-0.2-1.5-0.2-1.5-1.3c0-1,0.6-1.6,1.6-1.5c1,0.1,1.3,0.6,1.3,1.6C589.8,590.7,589.4,591.1,588.5,591.1z"
		/>
	<path d="M506.6,550.6c1.4,0,2.2,0.7,2.1,1.6c-0.1,0.7-0.4,1.4-1.1,1.6c-0.5,0.2-1.8-1.6-1.7-2.5
		C505.9,550.7,506.4,550.7,506.6,550.6z"/>
	<path d="M574.2,631.1c-0.1,0.7-0.8,0.9-1.6,1c-0.7,0.1-1.4-0.1-1.6-1c-0.1-0.9,0.6-1.8,1.4-1.7C573.4,629.5,574.1,630,574.2,631.1z
		"/>
	<path d="M567.4,732.9c1,0,1.4,0.6,1.2,1.5c-0.1,0.9-0.9,1.3-1.7,1.1c-0.7-0.1-1.4-0.3-1.2-1.3C565.8,733.1,566.2,732.8,567.4,732.9
		z"/>
	<path d="M521.6,898.8c-1.1,0.1-1.1-0.8-1.1-1.5c0-0.7,0.3-1.2,1.1-1.2c0.9-0.1,2.2,0.9,2,1.5C523.3,898.4,522.6,898.8,521.6,898.8z
		"/>
	<path d="M503.8,896.9c-0.6,0-1.3-0.1-1.2-1.1c0.1-0.7,0-1.7,1.1-1.6c0.8,0.1,1.8,0.2,1.9,1.3C505.7,896.1,504.8,896.9,503.8,896.9z
		"/>
	<path d="M596.4,752.3c-0.6-0.2-1.2-0.6-1.3-1.4c-0.1-0.7,1-1.7,1.7-1.5c0.7,0.2,1.3,0.5,1.4,1.3C598.2,751.3,597,752.4,596.4,752.3
		z"/>
	<path d="M527.7,263.6c-0.8,0-2.4-1.5-2.4-2.1c0-0.2,0.1-0.4,0.3-0.6c0.9-1.1,1.3,0,1.8,0.4c0.6,0.4,1.7,0.8,1,1.9
		C528.2,263.5,527.8,263.6,527.7,263.6z"/>
	<path d="M514,915.1c-0.2,0.6-0.4,1.2-1.3,1c-0.9-0.3-1.9-0.5-2.1-1.6c0-0.2,0.2-0.5,0.3-0.6c0.9-0.3,1.8-0.1,2.7,0.4
		C513.9,914.5,514.1,914.7,514,915.1z"/>
	<path d="M701.4,667.4c0.9,0.1,1.4,0.6,1.5,1.5c0.1,0.6-1,1.5-1.6,1.4c-0.7-0.1-1.3-0.5-1.3-1.4
		C700.1,668.1,700.7,667.4,701.4,667.4z"/>
	<path d="M543.9,707.5c0.5,0.2,1.5-0.2,1.5,0.9c0,0.9-0.9,1.8-1.9,1.7c-0.9-0.1-1.1-0.7-1-1.5C542.5,707.6,543,707.3,543.9,707.5z"
		/>
	<path d="M547.1,720c0,0.4-1.1,1.6-1.6,1.5c-0.7-0.1-1.3-0.5-1.3-1.3c0-0.8,0.2-1.3,1.2-1.3C546.2,718.8,546.7,719.3,547.1,720z"/>
	<path d="M543.1,715.5c0.1,0.9-0.3,1.3-1.1,1.2c-1.1,0-1.3-0.8-1.3-1.6c0-0.8,0.5-1.1,1.2-1.1C543,714.1,543.3,714.7,543.1,715.5z"
		/>
	<path d="M570.8,634.7c-0.4,0.7-0.2,1.7-1.3,1.7c-0.7,0-1.5-0.3-1.4-1.2c0.1-0.7,0.5-1.5,1.4-1.6C570.3,633.6,570.6,634,570.8,634.7
		z"/>
	<path d="M599.6,523.2c-0.4,0.4,0.4,1.6-0.9,1.5c-0.9-0.1-1.5-0.5-1.4-1.5c0.1-0.8,0.5-1.3,1.3-1.3
		C599.5,521.9,599.7,522.4,599.6,523.2z"/>
	<path d="M597.2,743c0.1,0.9-0.9,2.2-1.4,2.2c-0.7-0.1-1-0.5-0.9-1.1c0.1-0.7,0-1.7,1.1-1.7C596.4,742.3,597.1,742.3,597.2,743z"/>
	<path d="M578.5,631.4c-0.7-0.1-1.7-0.1-1.6-1.2c0.1-0.7,0.5-1.2,1.2-1.2c0.8,0,1.6,0.9,1.5,1.7
		C579.6,631.4,579.1,631.5,578.5,631.4z"/>
	<path d="M623.6,362.8c0.5,0.2,1.3,0,1.4,0.9c0.1,0.6-0.9,1.3-1.7,1.2c-0.8-0.1-1.1-0.5-1-1.3C622.3,362.9,622.6,362.7,623.6,362.8z
		"/>
	<path d="M258.9,411.8c0.8,0.3,1.7,0.2,1.7,1.3c0,0.6-0.2,1.2-0.9,1.1c-0.7-0.1-1.7,0.2-1.9-0.9
		C257.7,412.5,258.2,412.1,258.9,411.8z"/>
	<path d="M517.5,908.4c-0.4,0-1-0.3-0.9-1.1c0.1-0.8,0.6-1.2,1.5-1.1c0.6,0.1,1.3,0.2,1.2,1.1C519.2,908.1,518.6,908.5,517.5,908.4z
		"/>
	<path d="M588.6,723c-0.1,1-0.7,1-1.5,1c-0.9,0-1-0.7-1.1-1.2c-0.1-0.7,0.4-1.2,1.2-1C587.9,721.9,588.7,722,588.6,723z"/>
	<path d="M249.3,406.1c0.7,0.2,1.2,0.5,1.5,1.1c0.2,0.4,0.7,0.7,0.4,1.2c-0.4,0.7-0.9,0.3-1.4,0.2c-0.6-0.1-1-0.4-0.9-1.1
		C248.9,407.1,249.1,406.6,249.3,406.1z"/>
	<path d="M619.4,400.2c-0.1,0.9-0.8,1-1.5,1c-0.6,0-1.1-0.2-1-1c0.1-0.7,0.3-1.4,1.3-1.3C618.9,399,619.4,399.4,619.4,400.2z"/>
	<path d="M706.3,662.5c0.6,0.3,1.4,0.1,1.3,1.1c-0.1,0.6-0.1,1.4-1,1.2c-0.6-0.1-1.5,0-1.4-1.1C705.2,663,705.6,662.6,706.3,662.5z"
		/>
	<path d="M596.7,559.5c0.8,0.1,1.3,0.5,1.3,1.3c0,0.7-0.4,1-1,1.1c-0.8,0.1-1.3-0.4-1.3-1.3C595.8,560,596,559.6,596.7,559.5z"/>
	<path d="M535.8,682.4c-0.3,0.7-0.3,1.4-1.4,1.2c-0.6-0.1-1.3-0.1-1.2-1c0.1-0.7,0.5-1.4,1.3-1.2
		C535.1,681.5,535.8,681.6,535.8,682.4z"/>
	<path d="M632.1,358.8c-0.8,0.4-1,1.9-2.3,0.8c-0.6-0.5-0.6-1.2-0.1-1.6C630.8,357.1,631.4,357.9,632.1,358.8z"/>
	<path d="M322.1,440.3c-0.1,0.6-0.4,0.9-0.9,0.7c-0.7-0.2-1.7-0.1-1.5-1.3c0.1-0.5,0.3-0.8,0.9-0.7
		C321.4,439.1,322.1,439.3,322.1,440.3z"/>
	<path d="M581.2,617.5c-0.7,0-1.7-0.9-1.6-1.5c0-0.4,0.2-0.8,0.7-0.7c0.7,0.1,1.5,0.2,1.6,1.1C582,616.8,581.8,617.4,581.2,617.5z"
		/>
	<path d="M536.1,721.7c0.6,0.1,1.2,0.3,1.2,0.9c0,0.5,0,1.4-0.9,1.4c-0.7,0-1.2-0.5-1.3-1.1C535,722.3,535.5,721.8,536.1,721.7z"/>
	<path d="M546.1,729.6c-0.2,0.6-0.1,1.5-1.2,1.4c-0.7-0.1-1.1-0.5-1-1.3c0-0.7,0.4-1.1,1.2-1.1C545.7,728.6,546.2,728.8,546.1,729.6
		z"/>
	<path d="M703.2,355c-0.5-0.1-1.1-0.2-1.1-0.9c0-0.5,0.1-1.1,0.8-1.2c0.6,0,1.3,0.1,1.4,0.8C704.4,354.4,704,354.9,703.2,355z"/>
	<path d="M649.7,388c-0.2,0.6-0.1,1.4-1,1.3c-0.7,0-1.2-0.5-1.2-1.2c0-0.6,0.1-1.2,0.8-1.1C648.9,387.1,649.7,387.1,649.7,388z"/>
	<path d="M313.5,440.7c-0.2,0.7-0.4,1.4-1.2,1.4c-0.7,0.1-1-0.3-1-1c0-0.7,0.1-1.3,1-1.2C312.7,440,313.4,439.9,313.5,440.7z"/>
	<path d="M398.3,449.5c0.3-0.5,0.2-1.4,1-1.3c0.6,0,1,0.4,1,1.1c0,0.8-0.7,1.4-1.3,1.3C398.5,450.4,398.2,450,398.3,449.5z"/>
	<path d="M563,664.3c-0.2,0.9-0.9,0.9-1.7,0.9c-0.4,0-0.8-0.2-0.7-0.7c0.2-0.6,0.1-1.5,1.3-1.2C562.5,663.4,563,663.5,563,664.3z"/>
	<path d="M552.9,724.9c0.8,0,1.1,0.4,1,1.2c0,0.6-0.1,1.2-0.8,1.2c-0.8,0-1.2-0.6-1.2-1.4C552,725.3,552.3,724.9,552.9,724.9z"/>
	<path d="M536.5,706.6c-0.2,0.7-0.6,1.2-1.3,1.2c-0.7,0-1.2-0.4-1.2-1.2c0-0.7,0.5-1,1.1-0.9C535.7,705.8,536.4,705.8,536.5,706.6z"
		/>
	<path d="M552.4,288.8c0.5,0.2,1.4,0,1.3,0.9c-0.1,0.5-0.2,1.1-0.9,1.1c-0.7,0-1.2-0.3-1.3-1C551.4,289.1,551.8,288.8,552.4,288.8z"
		/>
	<path d="M575.6,732.1c-0.1,0.8-0.7,0.9-1.4,0.9c-0.6,0-1.1-0.2-1-0.9c0.1-0.6,0.4-1.1,1-0.9C574.8,731.2,575.5,731.3,575.6,732.1z"
		/>
	<path d="M560.3,732.6c0.5,0.2,1.1,0.2,1.2,0.9c0,0.6-0.1,1.3-0.9,1.4c-0.6,0-1.2-0.2-1.2-0.8C559.3,733.5,559.5,732.8,560.3,732.6z
		"/>
	<path d="M825,368.7c0.2-0.7,0.5-1.2,1-1c0.6,0.1,1.4,0.2,1.8,0.8c0.1,0.2,0.1,0.5,0.1,0.6c-0.1,0.2-0.4,0.3-0.6,0.2
		C826.4,369.3,825.7,369.1,825,368.7z"/>
	<path d="M533.4,883.8c-0.6-0.2-1.5,0.2-1.5-0.9c0-0.5,0.2-1,0.8-0.9c0.6,0.1,1.5,0,1.7,0.9C534.4,883.5,534,883.8,533.4,883.8z"/>
	<path d="M553.4,716.7c-0.1,0.5-0.3,1.2-0.9,1.1c-0.6-0.1-1.3-0.3-1.1-1.1c0.1-0.5,0.2-1.1,1-0.9
		C552.9,715.8,553.5,715.9,553.4,716.7z"/>
	<path d="M548.1,676.1c-0.2,0.5-0.3,1.1-1,1c-0.7,0-1.2-0.3-1.2-1.1c0-0.5,0.3-0.9,0.8-0.9C547.3,675.3,547.9,675.4,548.1,676.1z"/>
	<path d="M660.4,381.7c0.2-0.7,0.6-1.2,1.3-1c0.5,0.1,0.9,0.4,0.8,0.9c-0.1,0.7-0.6,1-1.3,1C660.7,382.5,660.5,382.1,660.4,381.7z"
		/>
	<path d="M570.6,380.1c-0.1-0.9,0.2-1.5,0.6-2.1c0.3-0.5,0.6-0.7,1.1-0.3c0.4,0.3,0.6,0.7,0.1,1.1
		C571.7,379.2,571.4,379.9,570.6,380.1z"/>
	<path d="M389.4,450.6c0,0.7-0.5,0.8-1,0.7c-0.6-0.1-1.3-0.2-1.3-1c0-0.6,0.5-0.9,1.1-0.9C389.1,449.5,389.4,449.9,389.4,450.6z"/>
	<path d="M550.3,707.1c-0.2,0.6-0.2,1.3-1,1.2c-0.6-0.1-0.9-0.6-0.9-1.2c0-0.5,0.2-1,0.8-0.9C549.8,706.2,550.2,706.5,550.3,707.1z"
		/>
	<path d="M600.3,549.3c-0.6-0.1-1-0.4-1-0.9c0-0.6,0.2-1.1,1-1c0.5,0.1,1,0.3,1,0.8C601.3,548.8,600.8,549.1,600.3,549.3z"/>
	<path d="M553.8,676.9c0.6,0.1,1.3,0.2,1.4,1c0.1,0.5-0.3,0.9-0.8,0.9c-0.6,0-1.3,0-1.4-0.9C552.9,677.4,553.2,677.1,553.8,676.9z"
		/>
	<path d="M375.3,447.3c-0.2,0.6-0.4,1.2-1.2,1.1c-0.5,0-0.8-0.5-0.7-1c0.1-0.8,0.6-1,1.3-0.9C375,446.6,375.4,446.7,375.3,447.3z"/>
	<path d="M715.2,337.5c-0.2,0.7,0.1,1.8-1.2,1.6c-0.6-0.1-1.1-0.4-0.8-1.1C713.6,336.7,714.4,337.5,715.2,337.5z"/>
	<path d="M349.1,443.3c0.6,0.2,1.2,0.3,1.2,1c0,0.7-0.7,0.7-1.2,0.7c-0.5,0-0.9-0.3-0.9-0.9C348.2,443.6,348.5,443.3,349.1,443.3z"
		/>
	<path d="M511.9,557.7c0.1,0,0.5,0,0.9,0.2c0.5,0.3,0.6,0.7,0.3,1.2c-0.3,0.5-0.6,0.3-1,0.1c-0.3-0.2-0.5-0.3-0.8-0.5
		c-0.3-0.2-0.8-0.2-0.6-0.8C510.8,557.6,511.2,557.6,511.9,557.7z"/>
	<path d="M556.3,295.7c0,0.7-0.5,0.9-1.1,0.9c-0.5,0-0.9-0.2-0.9-0.8c0-0.6,0.3-1.1,0.9-1.1C555.8,294.7,556.2,295,556.3,295.7z"/>
	<path d="M569.4,323.9c-0.8,0-1-0.4-1-1.1c0-0.5,0.3-1,0.9-0.9c0.5,0.1,1.1,0.2,1.1,1C570.4,323.6,570,323.9,569.4,323.9z"/>
	<path d="M590.7,596.3c-0.2,0.7-0.8,0.6-1.3,0.6c-0.5-0.1-1-0.2-0.9-0.8c0-0.6,0.4-1.1,1.1-0.9C590.2,595.2,590.8,595.5,590.7,596.3
		z"/>
	<path d="M593.7,580.6c-0.2,0.5-0.3,0.9-0.8,0.9c-0.6,0-1.3,0.1-1.4-0.7c-0.1-0.5,0-1,0.6-1.1C592.9,579.5,593.3,580.2,593.7,580.6z
		"/>
	<path d="M631.2,393.3c0,0.7-0.5,0.9-1.1,0.9c-0.4,0.1-0.8-0.2-0.7-0.6c0.1-0.6,0.2-1.3,1-1.3C631,392.4,631.2,392.8,631.2,393.3z"
		/>
	<path d="M544.9,279c-0.4,0-1-0.1-0.9-0.9c0.1-0.5,0.4-0.9,0.9-0.8c0.5,0,0.8,0.3,0.9,0.9C545.8,278.6,545.7,279,544.9,279z"/>
	<path d="M532.2,692.5c0.1-0.5,0.2-1,0.8-0.9c0.6,0,1,0.4,0.9,1.1c0,0.5-0.3,0.9-0.9,0.8C532.5,693.3,532.2,693,532.2,692.5z"/>
	<path d="M537.7,707.6c0.6,0.2,1.3,0.2,1.3,0.9c0,0.5-0.3,0.9-0.8,0.9c-0.6,0-1.1-0.1-1.2-0.9C537,708.1,537.2,707.8,537.7,707.6z"
		/>
	<path d="M548.2,665.2c0.8,0,1.1,0.6,1.2,1.2c0,0.4-0.5,0.8-1,0.7c-0.6-0.1-1-0.4-1-1C547.4,665.6,547.7,665.2,548.2,665.2z"/>
	<path d="M568,639.5c-0.5-0.1-0.9-0.2-0.9-0.8c0-0.5,0.3-0.8,0.7-0.7c0.4,0,1,0.1,1.1,0.7C569,639.1,568.5,639.4,568,639.5z"/>
	<path d="M638.8,391.9c-0.5-0.2-1.1-0.4-1-1c0-0.5,0.4-0.9,1-0.8c0.6,0.1,1,0.5,0.9,1.1C639.6,391.6,639.3,391.9,638.8,391.9z"/>
	<path d="M821.9,368.2c-0.1,0.5-0.3,1.1-0.9,1.1c-0.5,0-0.8-0.4-0.8-0.9c0.1-0.6,0.3-1,1-0.9C821.6,367.5,821.9,367.7,821.9,368.2z"
		/>
	<path d="M341,441.1c-0.4-0.1-1-0.1-1-0.8c0-0.4,0.2-0.8,0.7-0.8c0.5,0,0.9,0.2,1,0.8C341.8,440.8,341.5,441.1,341,441.1z"/>
	<path d="M508.1,902.5c-0.1,0.2-0.2,0.3-0.2,0.3c-0.6,0.4-1.1,0.9-1.8,0.2c-0.2-0.2-0.2-0.6,0-0.8
		C506.7,901.7,507.3,902,508.1,902.5z"/>
	<path d="M558.5,672.1c0.5,0.1,1.1,0,1.1,0.8c0,0.4-0.2,0.8-0.6,0.8c-0.6,0-1-0.4-1.1-1C557.6,672.3,558.1,672.2,558.5,672.1z"/>
	<path d="M573.7,615.5c-0.1,0.5-0.4,0.8-0.8,0.7c-0.5-0.1-1.1-0.2-1-0.9c0.1-0.6,0.5-0.6,1-0.6C573.4,614.8,573.7,615.1,573.7,615.5
		z"/>
	<path d="M712.7,349.6c-0.4,0-0.6-0.1-0.6-0.5c0.1-0.6,0-1.3,0.9-1.4c0.6,0,0.8,0.5,0.8,0.9C713.8,349.4,713.2,349.5,712.7,349.6z"
		/>
	<path d="M257.8,417.2c-0.4,0-0.9-0.1-1-0.7c-0.1-0.4,0.2-0.8,0.6-0.8c0.5,0,1.1,0.1,1.2,0.8C258.6,416.9,258.2,417.1,257.8,417.2z"
		/>
	<path d="M709.2,668.5c0.5,0.2,0.9,0.3,0.9,0.9c0,0.5-0.3,0.7-0.8,0.6c-0.4-0.1-1,0-1-0.6C708.4,668.8,708.7,668.5,709.2,668.5z"/>
	<path d="M769.6,357c0.1,0.4-0.2,0.6-0.6,0.7c-0.5,0.1-1-0.1-1-0.6c0-0.5,0.3-0.8,0.9-0.8C769.3,356.2,769.5,356.5,769.6,357z"/>
	<path d="M401.3,455c-0.1,0.7-0.7,0.6-1.1,0.6c-0.4,0.1-0.8-0.2-0.8-0.6c0-0.5,0.3-0.9,0.9-0.8C400.8,454.4,401.3,454.4,401.3,455z"
		/>
	<path d="M537.4,875.6c-0.1,0.5-0.4,0.7-0.8,0.7c-0.5,0-1-0.2-0.9-0.8c0-0.4,0.4-0.7,0.8-0.7C537,874.8,537.3,875.1,537.4,875.6z"/>
	<path d="M571.6,348.7c-0.1,0.4-0.3,0.8-0.7,0.8c-0.5,0.1-0.9-0.2-1-0.7c-0.1-0.4,0.2-0.8,0.6-0.7
		C571,348.2,571.5,348.1,571.6,348.7z"/>
	<path d="M569,629.3c0,0.6-0.4,0.7-0.9,0.7c-0.4,0-0.8-0.1-0.8-0.6c0.1-0.4,0-1,0.7-0.9C568.5,628.6,568.9,628.7,569,629.3z"/>
	<path d="M504.8,244.5c0,0.5-0.3,0.7-0.7,0.8c-0.5,0.1-0.7-0.2-0.6-0.7c0-0.4,0.1-0.8,0.6-0.8C504.5,243.8,504.8,244,504.8,244.5z"
		/>
	<path d="M569.8,645c-0.4,0-0.8-0.1-0.9-0.6c-0.1-0.5,0.1-0.9,0.7-1c0.4-0.1,0.8,0.1,0.8,0.6C570.6,644.5,570.4,644.9,569.8,645z"/>
	<path d="M546.3,691.8c-0.7,0.3-1.4,0.4-1.7-0.5c0-0.2,0.1-0.5,0.2-0.6C545.8,690.4,546.1,691.1,546.3,691.8z"/>
	<path d="M715.2,665.7c-0.4-0.1-0.7-0.2-0.7-0.7c0-0.4,0.2-0.7,0.6-0.8c0.4,0,0.7,0.2,0.7,0.6C715.8,665.4,715.7,665.6,715.2,665.7z
		"/>
	<path d="M567,386.7c0,0.6-0.3,0.8-0.9,0.8c-0.4,0-0.9-0.1-0.8-0.5c0-0.5,0.6-0.6,1.1-0.7C566.7,386.2,566.9,386.3,567,386.7z"/>
	<path d="M750.9,350.6c-0.1,0.5-0.3,0.9-0.9,0.8c-0.4-0.1-0.7-0.3-0.6-0.8c0.1-0.4,0.4-0.7,0.8-0.6C750.5,350.1,751,350,750.9,350.6
		z"/>
	<path d="M519.8,559.3c-0.1,0.6-0.5,0.7-1,0.8c-0.3,0.1-0.6,0-0.7-0.4c-0.1-0.5,0.1-0.9,0.7-0.9
		C519.3,558.7,519.6,558.8,519.8,559.3z"/>
	<path d="M264.5,423.9c0.1-0.3,0.1-0.8,0.6-0.8c0.4,0.1,0.9,0.2,0.8,0.8c-0.1,0.4-0.3,0.7-0.8,0.6
		C264.8,424.6,264.4,424.5,264.5,423.9z"/>
	<path d="M572.3,365.4c0,0.3,0,0.6-0.5,0.6c-0.5,0-1-0.1-1.2-0.6c-0.1-0.5,0.3-0.7,0.7-0.7C571.9,364.6,572.2,364.8,572.3,365.4z"/>
	<path d="M562.1,722.6c-0.4,0-0.6-0.3-0.6-0.7c0-0.4,0.2-0.7,0.7-0.7c0.5,0.1,0.9,0.3,0.9,0.8C563,722.4,562.6,722.6,562.1,722.6z"
		/>
	<path d="M508.3,549.3c-0.4,0-0.7-0.2-0.7-0.6c0-0.5,0.3-0.8,0.8-0.8c0.4,0,0.8,0.1,0.8,0.6C509.2,549,508.9,549.3,508.3,549.3z"/>
	<path d="M814.6,366.8c0.2-0.4,0.5-0.8,1.1-0.7c0.4,0.1,0.7,0.3,0.6,0.8c-0.1,0.4-0.4,0.6-0.8,0.6
		C815,367.4,814.7,367.2,814.6,366.8z"/>
	<path d="M596.5,558.7c-0.3-0.1-0.6-0.2-0.5-0.6c0.1-0.4,0.3-0.9,0.8-0.9c0.3,0,0.7,0.1,0.7,0.5
		C597.6,558.3,597.1,558.5,596.5,558.7z"/>
	<path d="M712,343.4c0.3,0.1,0.8,0,0.7,0.6c-0.1,0.3-0.1,0.8-0.7,0.8c-0.4-0.1-0.8-0.2-0.8-0.7C711.2,343.7,711.6,343.4,712,343.4z"
		/>
	<path d="M573.2,345.6c-0.1,0.6-0.3,0.9-0.8,0.8c-0.3,0-0.6-0.2-0.6-0.6c0-0.4,0.1-0.8,0.6-0.8C572.9,345,573.1,345.3,573.2,345.6z"
		/>
	<path d="M564.3,389c-0.1,0.3-0.1,0.6-0.6,0.5c-0.5-0.1-0.9-0.3-0.8-0.9c0.1-0.4,0.4-0.7,0.8-0.5C564.3,388.2,564.3,388.6,564.3,389
		z"/>
	<path d="M362.2,444.3c-0.1,0.4-0.3,0.7-0.8,0.6c-0.4-0.1-0.6-0.4-0.6-0.8c0.1-0.4,0.3-0.7,0.8-0.6
		C362,443.6,362.2,443.8,362.2,444.3z"/>
	<path d="M625.9,398.6c-0.2,0.5-0.6,0.5-0.9,0.4c-0.4-0.1-0.7-0.3-0.6-0.8c0.1-0.4,0.3-0.7,0.8-0.6C625.6,397.8,626,398,625.9,398.6
		z"/>
	<path d="M301.2,435c0.4,0.3,1,0.4,1,1c0,0.4-0.4,0.4-0.7,0.4c-0.4-0.1-1-0.1-1-0.7C300.5,435.3,300.8,435.1,301.2,435z"/>
	<path d="M779.1,362.2c-0.4-0.1-0.6-0.4-0.5-0.8c0.1-0.4,0.4-0.6,0.8-0.5c0.3,0.1,0.5,0.3,0.4,0.7
		C779.8,362,779.6,362.3,779.1,362.2z"/>
	<path d="M541.5,679.4c0.4,0.1,0.8,0.3,0.7,0.9c-0.1,0.3-0.5,0.4-0.8,0.4c-0.6,0-0.8-0.3-0.7-0.9
		C540.8,679.5,541.1,679.3,541.5,679.4z"/>
	<path d="M592.1,763.1c-0.1,0.3,0.1,0.8-0.5,0.8c-0.7,0-0.6-0.6-0.8-1c-0.1-0.5,0.2-0.7,0.6-0.7C592,762.2,592.1,762.6,592.1,763.1z
		"/>
	<path d="M561.9,712.4c-0.1,0.4-0.3,0.7-0.7,0.7c-0.4,0-0.7-0.3-0.6-0.7c0.1-0.4,0.4-0.7,0.8-0.6
		C561.7,711.8,561.8,712.1,561.9,712.4z"/>
	<path d="M514.7,252.2c-0.1,0.4-0.2,0.9-0.8,1c-0.3,0-0.5-0.3-0.5-0.6c0-0.4,0.1-0.8,0.6-0.8C514.3,251.7,514.6,251.7,514.7,252.2z"
		/>
	<path d="M579,607.2c0.4,0,0.8,0.1,0.8,0.6c0,0.4-0.4,0.7-0.7,0.7c-0.3,0-0.6-0.2-0.6-0.5C578.4,607.5,578.6,607.3,579,607.2z"/>
	<path d="M539.9,726.4c-0.1,0.3-0.2,0.7-0.7,0.6c-0.4,0-0.4-0.4-0.4-0.7c0.1-0.3,0-0.8,0.6-0.6C539.8,725.7,540,725.9,539.9,726.4z"
		/>
	<path d="M554.7,292.1c0.3,0.1,0.6,0.2,0.6,0.5c0,0.4,0,0.8-0.5,0.8c-0.4,0-0.8-0.1-0.7-0.6C554.1,292.5,554.3,292.2,554.7,292.1z"
		/>
	<path d="M558.2,385.4c-0.3,0-0.6-0.1-0.4-0.5c0.1-0.4,0.2-0.9,0.8-0.9c0.3,0,0.5,0.3,0.5,0.6C559.1,385.2,558.7,385.4,558.2,385.4z
		"/>
	<path d="M559.9,300.7c-0.2,0.4-0.4,0.6-0.9,0.7c-0.5,0.1-0.4-0.4-0.4-0.6c0-0.5,0.2-0.7,0.7-0.6
		C559.6,300.2,559.9,300.3,559.9,300.7z"/>
	<path d="M512.2,908.9c0.6,0.1,0.9,0.4,0.9,0.8c0,0.6-0.6,0.3-0.9,0.4c-0.3,0-0.6-0.1-0.6-0.5C511.6,909.1,511.9,908.9,512.2,908.9z
		"/>
	<path d="M538,270.9c0.4,0.1,0.8,0.1,0.7,0.7c-0.1,0.4-0.4,0.5-0.7,0.5c-0.5,0-0.6-0.3-0.6-0.7C537.4,271,537.7,270.9,538,270.9z"/>
	<path d="M559.1,512.2c0.9-0.1,1,0.3,1.1,0.7c0,0.3-0.1,0.6-0.5,0.6c-0.5,0-0.7-0.3-0.7-0.7C559,512.5,559.1,512.2,559.1,512.2z"/>
	<path d="M573.5,358.9c0.2,0.1,0.6,0.1,0.7,0.5c0,0.5-0.3,0.7-0.7,0.7c-0.3,0-0.7-0.2-0.7-0.7C572.8,359,573.2,359,573.5,358.9z"/>
	<path d="M572.8,719.4c0,0.4,0,0.8-0.6,0.8c-0.2,0-0.4-0.2-0.4-0.4c0-0.4,0-0.8,0.5-0.9C572.7,718.8,572.7,719.2,572.8,719.4z"/>
	<path d="M824.3,362.8c0,0.3-0.2,0.4-0.4,0.4c-0.3,0-0.6-0.2-0.6-0.6c0-0.3,0.2-0.4,0.4-0.4C824.1,362.2,824.2,362.4,824.3,362.8z"
		/>
	<path d="M587.7,602.8c0,0.1-0.1,0.3-0.4,0.3c-0.3,0-0.4-0.1-0.4-0.4c0-0.2,0.1-0.4,0.3-0.5C587.5,602.2,587.7,602.4,587.7,602.8z"
		/>
	<path d="M521,256c0,0.3-0.2,0.4-0.4,0.4c-0.2,0-0.4-0.2-0.5-0.3c-0.1-0.2,0-0.5,0.3-0.5C520.6,255.5,520.9,255.7,521,256z"/>
	<path d="M820.3,365.3c-0.1,0.2-0.3,0.3-0.5,0.2c-0.3,0-0.5-0.2-0.4-0.5c0.1-0.2,0.3-0.4,0.5-0.3
		C820.2,364.8,820.4,364.9,820.3,365.3z"/>
	<path d="M610.7,445.8c-0.4-0.1-0.8-0.1-0.7-0.6c0-0.1,0.2-0.3,0.3-0.3c0.4,0,0.8,0.2,0.9,0.5C611.2,445.7,610.9,445.7,610.7,445.8z
		"/>
	<path d="M518.6,253.2c0.2,0,0.4,0.1,0.5,0.3c0.1,0.4-0.1,0.6-0.4,0.5c-0.2,0-0.4-0.2-0.4-0.4C518.1,253.4,518.3,253.2,518.6,253.2z
		"/>
	<path d="M827.8,360.3c0,0.3-0.1,0.5-0.4,0.5c-0.4,0-0.6-0.2-0.6-0.5c0-0.1,0.3-0.3,0.5-0.3C827.6,359.8,827.8,360,827.8,360.3z"/>
	<path d="M379,773c0.8,0.7,1.7,1.4,2.5,2.1c1.1,0.8,0.7,1.8,0.3,2.7c-0.2,0.6-0.8,0.8-1.6,0.6c-1.7-0.5-4.7-4-4.8-5.7
		c0-0.3,0-0.6,0.2-0.9c1-1.1,1.9-2.3,2.9-3.4c0.7-0.8,1.5-0.4,2.1,0c0.8,0.5,0.5,1.2,0.1,1.8C380.2,771.1,379.7,771.9,379,773z"/>
	<path d="M334.8,837.1c0.8,0,1.7,0.2,2.3,0.9c0.5,0.6,1.2,1,1.9,1.3c0.5,0.2,1.1,0.2,1.1,1c-0.1,0.6-0.2,1.1-0.7,1.4
		c-0.7,0.3-1.7,0.5-1.9-0.1c-0.6-1.4-1.8-1.3-2.9-1.6c-0.1,0-0.2,0-0.2,0c-0.9-0.3-1.8-1.4-1.5-2C333.1,836.8,334,837.1,334.8,837.1
		z"/>
	<path d="M368.4,804.6c1.1-0.1,2.2,0.1,3.3,0.2c0.5,0.1,1,0.3,1,0.8c0.1,0.5-0.2,1-0.7,1.4c-1.1,0.7-4.8,0.5-5.8-0.4
		c-0.5-0.4-0.8-0.8-0.6-1.4c0.2-0.7,0.8-0.9,1.5-0.8C367.6,804.5,368,804.5,368.4,804.6z"/>
	<path d="M358.8,800.9c0.6,0.4,1.9,0.4,1.6,1.4c-0.4,1.5,0.6,1.9,1.4,2.6c0.2,0.2,0.5,0.4,0.5,0.7c0,0.4-0.1,0.8-0.5,1
		c-0.4,0.2-0.9,0.1-1-0.3c-0.3-1.2-1.3-1.2-2.2-1.3c-0.4,0-0.8-0.2-1.1-0.4c-1.1-0.6-1.3-1.6-0.4-2.5
		C357.6,801.7,358.2,801.3,358.8,800.9z"/>
	<path d="M375.7,796.7c0,0.8-1,1.7-1.8,1.5c-1.1-0.2-2-0.8-2.8-1.6c-0.7-0.8-0.4-2,0.4-2.7c0.8-0.6,1.7-0.5,2.4,0.4
		C374.6,795.1,375.1,795.9,375.7,796.7z"/>
	<path d="M374,779.4c0,0.9-0.3,1.7-0.8,2.4c-0.3,0.5-0.8,1.1-1.5,0.9c-0.6-0.1-0.9-0.5-1.2-1.1c-0.5-1.2-0.2-2.5,0.3-3.6
		c0.4-0.9,1.4-0.5,2.1-0.3C374,777.9,373.9,778.8,374,779.4z"/>
	<path d="M395.8,756c0,0.8-1.4,1.6-2.5,1.6c-0.9,0-1.8-0.8-1.8-1.5c0-0.1,0.1-0.4,0.1-0.4c1.8-0.2,0.8-2.4,2.1-2.9
		c0.6-0.3,1.3-0.2,1.5,0.6C395.5,754.2,395.7,755.2,395.8,756z"/>
	<path d="M380,790.9c-0.4-0.8,0-1.2,0-1.6c0.5-2.8,1.2-2.3,3.2-2c0.4,0,1,0.1,1.1,0.7c0.1,0.6-0.1,1.2-0.6,1.4
		C382.4,789.8,381.4,790.7,380,790.9z"/>
	<path d="M384.3,782.5c1,0,2,0.7,2,1.5c0,1.1-0.8,2-1.8,2c-0.9,0-1.8-0.9-1.8-1.8C382.7,783.5,383.6,782.5,384.3,782.5z"/>
	<path d="M380.5,779.4c0.7,0,1.3,0.2,1.5,0.9c0.2,0.6-0.1,1.1-0.6,1.4c-0.5,0.3-0.9,0.5-1.4,0.8c-0.7,0.5-1.2-0.1-1.6-0.5
		c-0.5-0.5-0.6-1-0.1-1.7C378.8,779.6,379.7,779.5,380.5,779.4z"/>
	<path d="M358,794.5c0,1-0.8,2-1.6,2c-0.9,0-1.7-0.9-1.7-1.9c0-1,0.7-1.8,1.5-1.8C357.1,792.8,358,793.6,358,794.5z"/>
	<path d="M393.5,769.3c-0.3-0.1-0.7-0.1-1.1-0.2c-0.7-0.1-1.1-0.5-1-1.3c0.1-0.8,0.5-1.3,1.3-1.4c0.4,0,0.9,0.1,1.4,0.3
		c0.8,0.3,1.4,0.7,1.2,1.7C395,769.3,394.2,769.1,393.5,769.3z"/>
	<path d="M353,787.8c-0.6,0.1-1,0.3-1.4,0.2c-0.7-0.2-1.4-0.6-1.1-1.5c0.2-0.7,0.7-1,1.5-0.7c0.7,0.2,1.5,0.4,2.2,0.7
		c0.3,0.1,0.8,0.2,0.6,0.8c-0.1,0.4-0.5,0.6-0.9,0.6C353.6,787.8,353.2,787.8,353,787.8z"/>
	<path d="M359.9,785.3c-0.1,0.9-1,2-1.6,1.7c-0.7-0.3-1.5-0.6-1.2-1.7c0.2-0.7,0.2-1.5,1.2-1.4C359,784.1,360,784.1,359.9,785.3z"/>
	<path d="M388.6,753.9c0.2-0.6-0.1-1.6,1.1-1.6c1,0,1.7,0.8,1.7,1.8c0,0.7-0.4,1-1,1C389.4,755.1,388.7,754.6,388.6,753.9z"/>
	<path d="M377.2,761.9c-0.1,1-0.4,1.5-1.3,1.5c-0.7-0.1-1.4-0.1-1.5-1.1c-0.1-0.9,0.4-1.3,1.3-1.2
		C376.3,761.2,377.1,761.2,377.2,761.9z"/>
	<path d="M330.3,817.7c-0.2,0.5,0.1,1.3-0.8,1.4c-0.8,0.1-1.7-0.5-1.7-1.2c0-0.8,0.5-1.4,1.3-1.3
		C329.7,816.7,330.4,816.7,330.3,817.7z"/>
	<path d="M362.2,797.2c-0.6-0.2-1.6,0-1.6-0.9c0-0.6,0.1-1.5,1.1-1.5c0.7,0,1.7,0.7,1.7,1.3C363.4,796.6,362.8,797.2,362.2,797.2z"
		/>
	<path d="M330.4,838.3c0.6,0.1,1.2,0.3,1.1,1.1c-0.1,0.6-0.1,1.5-1.1,1.5c-0.7,0-1.4-0.3-1.6-1.1
		C328.7,839.1,329.6,838.3,330.4,838.3z"/>
	<path d="M328.8,811.8c-0.3,0.6-0.1,1.5-1.1,1.6c-0.9,0.1-1.2-0.6-1.3-1.3c-0.1-0.6,0-1.3,0.7-1.2
		C327.7,810.9,328.6,810.9,328.8,811.8z"/>
	<path d="M373.9,785.1c0,0.6-0.4,1-1,1c-0.7,0-1.4-0.2-1.7-1c-0.2-0.5,0.6-1.3,1.3-1.3C373.4,783.8,373.7,784.3,373.9,785.1z"/>
	<path d="M345.2,760c-0.1,0.8-1,1.6-1.6,1.4c-0.5-0.1-0.8-0.5-0.7-1c0.1-0.6,0.2-1.4,1-1.3C344.4,759.2,345.2,759.2,345.2,760z"/>
	<path d="M349.4,772.1c0,0.5-0.2,0.8-0.7,0.8c-0.7,0.1-2-0.7-2-1.2c0-0.5,0.4-0.9,0.8-1C348.3,770.6,349.3,771.5,349.4,772.1z"/>
	<path d="M383.8,756.6c-0.1,0.7-0.4,1.2-1.2,1.1c-0.8-0.1-1-0.6-1.1-1.3c0-0.8,0.4-0.9,1.1-0.8C383.2,755.6,383.9,755.7,383.8,756.6
		z"/>
	<path d="M388.2,772.4c0.1-0.7-0.2-1.5,0.7-1.6c0.6,0,1.1,0.4,1.2,1.2c0.1,0.9-0.4,1.4-1.2,1.5C388,773.5,388.4,772.7,388.2,772.4z"
		/>
	<path d="M325.5,835.2c0.7,0,1.2,0.3,1.1,0.9c-0.1,0.6-0.3,1.3-1.1,1.3c-0.6,0-1-0.3-1-1C324.7,835.9,324.8,835.3,325.5,835.2z"/>
	<path d="M240.6,663.8c0,0.6-0.1,1.1-0.7,1c-0.6-0.1-1.6,0.2-1.5-0.9c0-0.5,0.1-1.2,0.9-1.1C239.9,662.8,240.5,663.1,240.6,663.8z"
		/>
	<path d="M331.5,830.4c-0.9,0-1.2-0.4-1.3-1.1c0-0.6,0.3-1.1,0.9-1c0.6,0,1.3,0.1,1.3,1C332.5,829.9,332.1,830.4,331.5,830.4z"/>
	<path d="M309.1,804.9c-0.5-0.2-1.1-0.3-1-1.1c0.1-0.5,0.2-1.2,0.9-1.1c0.5,0.1,1.2,0.1,1.2,0.8
		C310.1,804.3,309.9,804.9,309.1,804.9z"/>
	<path d="M310.8,813.2c-0.3,0.4-0.1,1.3-0.9,1.1c-0.6-0.2-1.5-0.2-1.4-1.2c0.1-0.6,0.5-0.9,1.1-0.9
		C310.3,812.1,310.7,812.5,310.8,813.2z"/>
	<path d="M342,845.4c0,0.8-0.1,1.3-0.9,1.3c-0.8,0-1.2-0.3-1.1-1.1c0-0.6,0.2-1.1,0.9-1.1C341.6,844.5,342.2,844.7,342,845.4z"/>
	<path d="M393.6,763.6c-1.1,0-1.3-0.6-1.3-1.4c0-0.5,0.3-0.9,0.8-0.8c0.6,0.2,1.5,0.2,1.3,1.2C394.4,763.2,394.2,763.7,393.6,763.6z
		"/>
	<path d="M345.1,763.6c0,0.6-0.3,1.1-0.8,1.3c-0.4,0.1-1.3-0.7-1.3-1.3c0-0.5,0.2-0.9,0.8-0.9C344.5,762.7,345.1,762.8,345.1,763.6z
		"/>
	<path d="M371,767.9c-0.2,0.5-0.2,1.3-1,1.3c-0.5,0-1.2-0.2-1-0.9c0.1-0.5-0.1-1.4,0.9-1.3C370.6,766.9,370.9,767.3,371,767.9z"/>
	<path d="M320.9,824.7c-0.6-0.2-1.1-0.4-1-1.1c0.2-0.7,0.4-1.3,1.2-1c0.4,0.1,1,0.2,0.8,0.9C321.7,824.1,321.7,824.7,320.9,824.7z"
		/>
	<path d="M352.7,763.7c-0.2,0.5-0.5,1-1.2,0.8c-0.8-0.1-1.1-0.8-1-1.5c0.1-0.5,0.5-0.8,1-0.5C352.2,762.7,352.8,762.9,352.7,763.7z"
		/>
	<path d="M336.8,858.8c0.1-1.1,0.1-2,1.3-2c0.5,0,0.7,0.4,0.7,0.8C338.8,858.8,337.8,858.7,336.8,858.8z"/>
	<path d="M317.3,815.1c0,0.6-0.4,0.9-0.9,0.9c-0.6,0-1.3-0.1-1.3-1c0-0.5,0.1-1,0.7-1C316.5,813.9,317.1,814.4,317.3,815.1z"/>
	<path d="M347.4,871.2c-0.2,0.5-0.5,0.8-1,0.7c-0.7-0.1-1.2-0.2-1.1-1.1c0.1-0.5,0.3-0.9,0.9-0.8
		C346.9,870.1,347.3,870.5,347.4,871.2z"/>
	<path d="M335.6,849.9c0.3-0.6,0.2-1.5,1.1-1.4c0.5,0,1.1,0.2,1,0.9c-0.1,0.5-0.2,1.1-0.9,1.1C336.3,850.5,335.8,850.4,335.6,849.9z
		"/>
	<path d="M372.6,799.7c-0.3,0.8-0.7,1.2-1.5,1c-0.5-0.1-0.9-0.4-0.8-1c0.1-0.8,0.7-0.9,1.4-0.8C372.2,799,372.5,799.3,372.6,799.7z"
		/>
	<path d="M355.5,801.7c-0.1,0.5-0.3,0.9-0.9,0.9c-0.7,0-1-0.5-1-1.1c0-0.4,0.2-0.7,0.7-0.8C355,800.7,355.3,801.1,355.5,801.7z"/>
	<path d="M385.3,778.8c-0.6,0-1-0.3-0.9-0.9c0.1-0.5,0.2-1.1,1-1.1c0.5,0,0.8,0.4,0.8,0.9C386.3,778.5,385.8,778.7,385.3,778.8z"/>
	<path d="M339.1,755.3c-0.5-0.1-0.9-0.4-0.8-0.9c0.1-0.3,0.3-0.8,0.8-0.6c0.4,0.1,1,0.2,0.9,0.8
		C340.1,755.1,339.6,755.3,339.1,755.3z"/>
	<path d="M377.3,747.4c0.4,0.1,0.8,0.2,0.8,0.7c-0.1,0.7-0.7,0.7-1.3,0.7c-0.3,0-0.7-0.1-0.6-0.5
		C376.2,747.6,376.6,747.4,377.3,747.4z"/>
	<path d="M359.9,788.8c-0.1,0.5-0.3,0.7-0.8,0.6c-0.5-0.1-1.1-0.1-1-0.9c0.1-0.4,0.5-0.5,0.9-0.5C359.5,788.1,360,788.2,359.9,788.8
		z"/>
	<path d="M320.2,814.2c-0.5-0.1-1-0.2-0.9-0.8c0.1-0.3,0.3-0.6,0.6-0.5c0.4,0.1,1,0,1.1,0.6C321.2,814.1,320.6,814.1,320.2,814.2z"
		/>
	<path d="M342.2,749.4c0.4,0,0.7,0.1,0.7,0.6c0,0.6-0.4,0.8-0.9,0.8c-0.4,0-0.8-0.2-0.8-0.7C341.3,749.7,341.6,749.3,342.2,749.4z"
		/>
	<path d="M357,772.6c0.3,0.2,1,0.1,0.9,0.7c-0.1,0.5-0.6,0.6-1.1,0.6c-0.4,0-0.7-0.3-0.6-0.7C356.2,772.8,356.4,772.5,357,772.6z"/>
	<path d="M241.5,656.9c-0.2,0.6-0.6,0.9-1.2,0.7c-0.4-0.1-0.4-0.4-0.3-0.7c0.1-0.4,0.3-0.9,0.9-0.8
		C241.3,656.1,241.6,656.4,241.5,656.9z"/>
	<path d="M325.9,825.4c0-0.5,0.3-0.7,0.7-0.6c0.5,0,0.8,0.3,0.8,0.9c-0.1,0.5-0.4,0.7-0.8,0.7C326.1,826.3,325.8,826,325.9,825.4z"
		/>
	<path d="M325.5,842.4c0.4,0.1,1,0.1,0.9,0.8c0,0.4-0.3,0.8-0.7,0.7c-0.4-0.1-1,0-0.9-0.7C324.8,842.7,324.9,842.3,325.5,842.4z"/>
	<path d="M335.2,846.2c-0.1,0.3-0.3,0.5-0.6,0.5c-0.6,0-1.1-0.2-1-0.9c0-0.3,0.2-0.6,0.6-0.6C334.8,845.2,334.9,845.7,335.2,846.2z"
		/>
	<path d="M348.6,855.6c-0.1,0.4-0.3,0.6-0.6,0.5c-0.4-0.1-1.2,0-1-0.8c0.1-0.3,0.2-0.7,0.6-0.6C348,854.8,348.5,854.9,348.6,855.6z"
		/>
	<path d="M362.6,803.2c0-0.3,0.2-0.6,0.6-0.5c0.4,0,1,0,0.9,0.7c0,0.4-0.3,0.7-0.8,0.6C362.9,803.9,362.7,803.6,362.6,803.2z"/>
	<path d="M378.7,791c0,0.5-0.2,0.8-0.6,0.8c-0.4,0-0.7-0.2-0.8-0.7c0-0.3,0.2-0.6,0.5-0.6C378.3,790.4,378.6,790.6,378.7,791z"/>
	<path d="M360.2,774.2c0.4,0.2,1,0.1,0.9,0.8c-0.1,0.4-0.4,0.3-0.7,0.3c-0.4,0-0.8-0.1-0.8-0.6C359.5,774.4,359.9,774.3,360.2,774.2
		z"/>
	<path d="M368.4,796c0,0.6-0.3,0.8-0.7,0.8c-0.4,0-0.8-0.2-0.7-0.7c0.1-0.4,0.3-0.7,0.7-0.7C368.1,795.3,368.4,795.6,368.4,796z"/>
	<path d="M333,851.9c-0.1,0.3-0.2,0.6-0.5,0.6c-0.4,0-0.4-0.3-0.4-0.6c0-0.3,0-0.6,0.4-0.6C332.8,851.4,332.9,851.6,333,851.9z"/>
	<path d="M321.3,833c-0.1,0.2-0.3,0.3-0.5,0.3c-0.4,0-0.5-0.4-0.4-0.7c0.1-0.3,0.4-0.3,0.6-0.2C321.2,832.5,321.3,832.7,321.3,833z"
		/>
	<path d="M367.7,799c-0.1,0.1-0.2,0.4-0.3,0.5c-0.3,0.2-0.4-0.1-0.4-0.3c0-0.2,0.1-0.5,0.2-0.6C367.4,798.5,367.6,798.7,367.7,799z"
		/>
	<path d="M479.6,248.6c1.2,0.7,1.3,1.8,1.2,3c0,0.4-0.2,0.8-0.6,0.9c-0.5,0.1-1-0.3-1.1-0.7C479.1,250.7,478.6,249.5,479.6,248.6
		C479.7,248.6,479.6,248.6,479.6,248.6z"/>
	<path d="M490.3,259.7c0.1,0.4,0.1,0.9-0.4,0.9c-1,0.1-1.8-0.4-2.6-0.8c-0.3-0.2-0.3-0.5-0.2-0.8c0.1-0.4,0.3-0.7,0.8-0.6
		C488.8,258.7,489.7,259,490.3,259.7C490.3,259.7,490.3,259.7,490.3,259.7z"/>
	<path d="M410.7,273c-0.2,0.5-0.5,0.8-1,0.8c-0.6-0.1-1-0.4-1-1c0-0.5,0.3-0.9,0.8-0.9C410.3,271.9,410.5,272.4,410.7,273z"/>
	<path d="M432.8,243.3c-0.1,0.5-0.4,0.9-0.9,0.8c-0.6,0-1.1-0.2-1.1-0.9c0-0.4,0.2-1,0.8-0.8C432.2,242.5,432.8,242.6,432.8,243.3z"
		/>
	<path d="M438.8,271.1c0.3,0.2,0.9,0.1,0.8,0.8c-0.1,0.5-0.3,1.2-1,1.1c-0.6,0-1.1-0.4-0.8-1.1C438,271.4,438.1,270.9,438.8,271.1z"
		/>
	<path d="M454.7,272c0.7,0.2,1.1,0.6,1,1.2c-0.1,0.5-0.6,0.6-1.1,0.6c-0.5,0-0.9-0.3-0.9-0.8C453.7,272.2,454.4,272.2,454.7,272z"/>
	<path d="M464.4,281.8c-0.2,0.6-0.4,1.1-0.9,1c-0.6-0.1-0.9-0.7-0.8-1.2c0-0.4,0.3-0.7,0.8-0.7C464,280.9,464.3,281.3,464.4,281.8z"
		/>
	<path d="M432.2,361.9c0.4,0.2,1.1,0.2,0.9,1c-0.1,0.3-0.2,0.8-0.7,0.7c-0.4-0.1-1.2,0-1.1-0.8C431.3,362.3,431.5,361.8,432.2,361.9
		z"/>
	<path d="M465.7,297.4c0,0.6-0.3,0.8-0.9,0.8c-0.4,0-0.7-0.2-0.7-0.7c0-0.5,0.2-0.8,0.6-0.8C465.1,296.8,465.6,296.8,465.7,297.4z"
		/>
	<path d="M423.7,356.1c-0.6,0-0.7-0.4-0.7-0.8c0-0.6,0.4-0.7,0.9-0.7c0.4,0,0.8,0.1,0.7,0.6C424.5,355.8,424.1,356.1,423.7,356.1z"
		/>
	<path d="M420.7,255.4c0.6,0,0.8,0.3,0.9,0.8c0,0.5-0.3,0.7-0.7,0.7c-0.4,0-0.7-0.3-0.7-0.7C420.1,255.8,420.2,255.5,420.7,255.4z"
		/>
	<path d="M464.6,287.1c-0.4-0.1-0.6-0.4-0.6-0.9c0-0.5,0.3-0.7,0.7-0.7c0.4,0,0.7,0.3,0.7,0.8C465.3,286.7,465.1,287,464.6,287.1z"
		/>
	<path d="M441.3,240.1c-0.2,0.7-0.6,0.7-1,0.6c-0.4-0.1-0.8-0.3-0.6-0.7c0.1-0.5,0.5-0.7,1-0.5C441.1,239.6,441.3,239.9,441.3,240.1
		z"/>
	<path d="M425.8,363.9c0.1-0.3,0.1-0.7,0.5-0.7c0.4,0,1-0.2,1,0.5c0,0.4-0.1,0.9-0.5,0.9C426.4,364.7,426,364.4,425.8,363.9z"/>
	<path d="M416.3,260.1c-0.2,0.4-0.5,0.8-1,0.8c-0.3,0-0.6-0.3-0.5-0.6c0.1-0.5,0.4-0.8,1-0.7C416,259.6,416.3,259.7,416.3,260.1z"/>
	<path d="M417.8,254.8c0.5,0.1,0.6,0.4,0.5,0.8c0,0.4-0.2,0.7-0.7,0.6c-0.4-0.1-0.6-0.4-0.6-0.8C417,255,417.4,254.9,417.8,254.8z"
		/>
	<path d="M487.9,293.8c-0.2,0.3-0.4,0.4-0.7,0.3c-0.4-0.2-0.6-0.5-0.4-0.9c0.1-0.3,0.5-0.3,0.8-0.2
		C487.8,293.2,488,293.5,487.9,293.8z"/>
	<path d="M424.9,252.3c-0.1,0.3-0.1,0.6-0.5,0.6c-0.5,0-0.8-0.2-0.8-0.6c0-0.3,0.3-0.7,0.8-0.7C424.8,251.7,424.9,252,424.9,252.3z"
		/>
	<path d="M421.8,253.4c0,0.3-0.2,0.5-0.4,0.5c-0.4,0.1-0.6-0.1-0.7-0.4c0-0.3,0.1-0.5,0.4-0.5C421.5,252.9,421.8,253,421.8,253.4z"
		/>
	<path d="M492.8,279.1c0.2,0,0.4,0.3,0.3,0.6c-0.1,0.2-0.3,0.4-0.5,0.3c-0.4,0-0.4-0.3-0.4-0.7C492.2,279.1,492.4,279,492.8,279.1z"
		/>
	<path d="M471.5,249.2c0.1,0.3-0.1,0.4-0.4,0.5c-0.2,0-0.5,0-0.6-0.3c-0.1-0.3,0.1-0.6,0.5-0.6C471.3,248.8,471.5,249,471.5,249.2z"
		/>
</g>
</svg>
